G04 #@! TF.GenerationSoftware,KiCad,Pcbnew,(5.1.6)-1*
G04 #@! TF.CreationDate,2020-09-10T01:06:56+02:00*
G04 #@! TF.ProjectId,BananaSchplit,42616e61-6e61-4536-9368-706c69742e6b,rev?*
G04 #@! TF.SameCoordinates,Original*
G04 #@! TF.FileFunction,Legend,Top*
G04 #@! TF.FilePolarity,Positive*
%FSLAX46Y46*%
G04 Gerber Fmt 4.6, Leading zero omitted, Abs format (unit mm)*
G04 Created by KiCad (PCBNEW (5.1.6)-1) date 2020-09-10 01:06:56*
%MOMM*%
%LPD*%
G01*
G04 APERTURE LIST*
%ADD10C,0.120000*%
%ADD11C,0.150000*%
%ADD12C,0.010000*%
G04 APERTURE END LIST*
D10*
X37950000Y-23200000D02*
G75*
G03*
X37950000Y-23200000I-50000J0D01*
G01*
X51850000Y-22800000D02*
G75*
G03*
X51850000Y-22800000I-50000J0D01*
G01*
X76955902Y-31725000D02*
G75*
G03*
X76955902Y-31725000I-55902J0D01*
G01*
X67655902Y-27650000D02*
G75*
G03*
X67655902Y-27650000I-55902J0D01*
G01*
D11*
X36219047Y-24121428D02*
X36980952Y-24121428D01*
X36600000Y-24502380D02*
X36600000Y-23740476D01*
X64619047Y-30146428D02*
X65380952Y-30146428D01*
X65000000Y-30527380D02*
X65000000Y-29765476D01*
X73819047Y-26846428D02*
X74580952Y-26846428D01*
X74200000Y-27227380D02*
X74200000Y-26465476D01*
X71494047Y-43921428D02*
X72255952Y-43921428D01*
X71875000Y-44302380D02*
X71875000Y-43540476D01*
X49269047Y-43921428D02*
X50030952Y-43921428D01*
X49650000Y-44302380D02*
X49650000Y-43540476D01*
X27044047Y-43921428D02*
X27805952Y-43921428D01*
X27425000Y-44302380D02*
X27425000Y-43540476D01*
X47802380Y-35569047D02*
X48516666Y-35569047D01*
X48659523Y-35616666D01*
X48754761Y-35711904D01*
X48802380Y-35854761D01*
X48802380Y-35950000D01*
X48802380Y-34616666D02*
X48802380Y-35092857D01*
X47802380Y-35092857D01*
X48707142Y-33711904D02*
X48754761Y-33759523D01*
X48802380Y-33902380D01*
X48802380Y-33997619D01*
X48754761Y-34140476D01*
X48659523Y-34235714D01*
X48564285Y-34283333D01*
X48373809Y-34330952D01*
X48230952Y-34330952D01*
X48040476Y-34283333D01*
X47945238Y-34235714D01*
X47850000Y-34140476D01*
X47802380Y-33997619D01*
X47802380Y-33902380D01*
X47850000Y-33759523D01*
X47897619Y-33711904D01*
X47802380Y-32997619D02*
X48516666Y-32997619D01*
X48659523Y-33045238D01*
X48754761Y-33140476D01*
X48802380Y-33283333D01*
X48802380Y-33378571D01*
X48802380Y-32045238D02*
X48802380Y-32521428D01*
X47802380Y-32521428D01*
X48707142Y-31140476D02*
X48754761Y-31188095D01*
X48802380Y-31330952D01*
X48802380Y-31426190D01*
X48754761Y-31569047D01*
X48659523Y-31664285D01*
X48564285Y-31711904D01*
X48373809Y-31759523D01*
X48230952Y-31759523D01*
X48040476Y-31711904D01*
X47945238Y-31664285D01*
X47850000Y-31569047D01*
X47802380Y-31426190D01*
X47802380Y-31330952D01*
X47850000Y-31188095D01*
X47897619Y-31140476D01*
X47802380Y-30426190D02*
X48516666Y-30426190D01*
X48659523Y-30473809D01*
X48754761Y-30569047D01*
X48802380Y-30711904D01*
X48802380Y-30807142D01*
X48802380Y-29473809D02*
X48802380Y-29950000D01*
X47802380Y-29950000D01*
X48707142Y-28569047D02*
X48754761Y-28616666D01*
X48802380Y-28759523D01*
X48802380Y-28854761D01*
X48754761Y-28997619D01*
X48659523Y-29092857D01*
X48564285Y-29140476D01*
X48373809Y-29188095D01*
X48230952Y-29188095D01*
X48040476Y-29140476D01*
X47945238Y-29092857D01*
X47850000Y-28997619D01*
X47802380Y-28854761D01*
X47802380Y-28759523D01*
X47850000Y-28616666D01*
X47897619Y-28569047D01*
X47802380Y-27854761D02*
X48516666Y-27854761D01*
X48659523Y-27902380D01*
X48754761Y-27997619D01*
X48802380Y-28140476D01*
X48802380Y-28235714D01*
X48802380Y-26902380D02*
X48802380Y-27378571D01*
X47802380Y-27378571D01*
X48707142Y-25997619D02*
X48754761Y-26045238D01*
X48802380Y-26188095D01*
X48802380Y-26283333D01*
X48754761Y-26426190D01*
X48659523Y-26521428D01*
X48564285Y-26569047D01*
X48373809Y-26616666D01*
X48230952Y-26616666D01*
X48040476Y-26569047D01*
X47945238Y-26521428D01*
X47850000Y-26426190D01*
X47802380Y-26283333D01*
X47802380Y-26188095D01*
X47850000Y-26045238D01*
X47897619Y-25997619D01*
X29766666Y-28752380D02*
X30100000Y-29752380D01*
X30433333Y-28752380D01*
X31338095Y-29657142D02*
X31290476Y-29704761D01*
X31147619Y-29752380D01*
X31052380Y-29752380D01*
X30909523Y-29704761D01*
X30814285Y-29609523D01*
X30766666Y-29514285D01*
X30719047Y-29323809D01*
X30719047Y-29180952D01*
X30766666Y-28990476D01*
X30814285Y-28895238D01*
X30909523Y-28800000D01*
X31052380Y-28752380D01*
X31147619Y-28752380D01*
X31290476Y-28800000D01*
X31338095Y-28847619D01*
X32338095Y-29657142D02*
X32290476Y-29704761D01*
X32147619Y-29752380D01*
X32052380Y-29752380D01*
X31909523Y-29704761D01*
X31814285Y-29609523D01*
X31766666Y-29514285D01*
X31719047Y-29323809D01*
X31719047Y-29180952D01*
X31766666Y-28990476D01*
X31814285Y-28895238D01*
X31909523Y-28800000D01*
X32052380Y-28752380D01*
X32147619Y-28752380D01*
X32290476Y-28800000D01*
X32338095Y-28847619D01*
X30338095Y-33800000D02*
X30242857Y-33752380D01*
X30100000Y-33752380D01*
X29957142Y-33800000D01*
X29861904Y-33895238D01*
X29814285Y-33990476D01*
X29766666Y-34180952D01*
X29766666Y-34323809D01*
X29814285Y-34514285D01*
X29861904Y-34609523D01*
X29957142Y-34704761D01*
X30100000Y-34752380D01*
X30195238Y-34752380D01*
X30338095Y-34704761D01*
X30385714Y-34657142D01*
X30385714Y-34323809D01*
X30195238Y-34323809D01*
X30814285Y-34752380D02*
X30814285Y-33752380D01*
X31385714Y-34752380D01*
X31385714Y-33752380D01*
X31861904Y-34752380D02*
X31861904Y-33752380D01*
X32100000Y-33752380D01*
X32242857Y-33800000D01*
X32338095Y-33895238D01*
X32385714Y-33990476D01*
X32433333Y-34180952D01*
X32433333Y-34323809D01*
X32385714Y-34514285D01*
X32338095Y-34609523D01*
X32242857Y-34704761D01*
X32100000Y-34752380D01*
X31861904Y-34752380D01*
X88600000Y-43011904D02*
X88552380Y-43107142D01*
X88552380Y-43250000D01*
X88600000Y-43392857D01*
X88695238Y-43488095D01*
X88790476Y-43535714D01*
X88980952Y-43583333D01*
X89123809Y-43583333D01*
X89314285Y-43535714D01*
X89409523Y-43488095D01*
X89504761Y-43392857D01*
X89552380Y-43250000D01*
X89552380Y-43154761D01*
X89504761Y-43011904D01*
X89457142Y-42964285D01*
X89123809Y-42964285D01*
X89123809Y-43154761D01*
X89552380Y-42535714D02*
X88552380Y-42535714D01*
X89552380Y-41964285D01*
X88552380Y-41964285D01*
X89552380Y-41488095D02*
X88552380Y-41488095D01*
X88552380Y-41250000D01*
X88600000Y-41107142D01*
X88695238Y-41011904D01*
X88790476Y-40964285D01*
X88980952Y-40916666D01*
X89123809Y-40916666D01*
X89314285Y-40964285D01*
X89409523Y-41011904D01*
X89504761Y-41107142D01*
X89552380Y-41250000D01*
X89552380Y-41488095D01*
X66350000Y-43011904D02*
X66302380Y-43107142D01*
X66302380Y-43250000D01*
X66350000Y-43392857D01*
X66445238Y-43488095D01*
X66540476Y-43535714D01*
X66730952Y-43583333D01*
X66873809Y-43583333D01*
X67064285Y-43535714D01*
X67159523Y-43488095D01*
X67254761Y-43392857D01*
X67302380Y-43250000D01*
X67302380Y-43154761D01*
X67254761Y-43011904D01*
X67207142Y-42964285D01*
X66873809Y-42964285D01*
X66873809Y-43154761D01*
X67302380Y-42535714D02*
X66302380Y-42535714D01*
X67302380Y-41964285D01*
X66302380Y-41964285D01*
X67302380Y-41488095D02*
X66302380Y-41488095D01*
X66302380Y-41250000D01*
X66350000Y-41107142D01*
X66445238Y-41011904D01*
X66540476Y-40964285D01*
X66730952Y-40916666D01*
X66873809Y-40916666D01*
X67064285Y-40964285D01*
X67159523Y-41011904D01*
X67254761Y-41107142D01*
X67302380Y-41250000D01*
X67302380Y-41488095D01*
X44100000Y-43011904D02*
X44052380Y-43107142D01*
X44052380Y-43250000D01*
X44100000Y-43392857D01*
X44195238Y-43488095D01*
X44290476Y-43535714D01*
X44480952Y-43583333D01*
X44623809Y-43583333D01*
X44814285Y-43535714D01*
X44909523Y-43488095D01*
X45004761Y-43392857D01*
X45052380Y-43250000D01*
X45052380Y-43154761D01*
X45004761Y-43011904D01*
X44957142Y-42964285D01*
X44623809Y-42964285D01*
X44623809Y-43154761D01*
X45052380Y-42535714D02*
X44052380Y-42535714D01*
X45052380Y-41964285D01*
X44052380Y-41964285D01*
X45052380Y-41488095D02*
X44052380Y-41488095D01*
X44052380Y-41250000D01*
X44100000Y-41107142D01*
X44195238Y-41011904D01*
X44290476Y-40964285D01*
X44480952Y-40916666D01*
X44623809Y-40916666D01*
X44814285Y-40964285D01*
X44909523Y-41011904D01*
X45004761Y-41107142D01*
X45052380Y-41250000D01*
X45052380Y-41488095D01*
X69807142Y-39321428D02*
X70950000Y-39321428D01*
X72450000Y-39702380D02*
X71592857Y-39702380D01*
X72021428Y-39702380D02*
X72021428Y-38702380D01*
X71878571Y-38845238D01*
X71735714Y-38940476D01*
X71592857Y-38988095D01*
X73021428Y-38797619D02*
X73092857Y-38750000D01*
X73235714Y-38702380D01*
X73592857Y-38702380D01*
X73735714Y-38750000D01*
X73807142Y-38797619D01*
X73878571Y-38892857D01*
X73878571Y-38988095D01*
X73807142Y-39130952D01*
X72950000Y-39702380D01*
X73878571Y-39702380D01*
X74307142Y-38702380D02*
X74807142Y-39702380D01*
X75307142Y-38702380D01*
X47657142Y-39321428D02*
X48800000Y-39321428D01*
X48228571Y-39702380D02*
X48228571Y-38940476D01*
X50300000Y-39702380D02*
X49442857Y-39702380D01*
X49871428Y-39702380D02*
X49871428Y-38702380D01*
X49728571Y-38845238D01*
X49585714Y-38940476D01*
X49442857Y-38988095D01*
X50871428Y-38797619D02*
X50942857Y-38750000D01*
X51085714Y-38702380D01*
X51442857Y-38702380D01*
X51585714Y-38750000D01*
X51657142Y-38797619D01*
X51728571Y-38892857D01*
X51728571Y-38988095D01*
X51657142Y-39130952D01*
X50800000Y-39702380D01*
X51728571Y-39702380D01*
X52157142Y-38702380D02*
X52657142Y-39702380D01*
X53157142Y-38702380D01*
X26371428Y-39321428D02*
X27514285Y-39321428D01*
X26942857Y-39702380D02*
X26942857Y-38940476D01*
X28942857Y-38702380D02*
X28228571Y-38702380D01*
X28157142Y-39178571D01*
X28228571Y-39130952D01*
X28371428Y-39083333D01*
X28728571Y-39083333D01*
X28871428Y-39130952D01*
X28942857Y-39178571D01*
X29014285Y-39273809D01*
X29014285Y-39511904D01*
X28942857Y-39607142D01*
X28871428Y-39654761D01*
X28728571Y-39702380D01*
X28371428Y-39702380D01*
X28228571Y-39654761D01*
X28157142Y-39607142D01*
X29442857Y-38702380D02*
X29942857Y-39702380D01*
X30442857Y-38702380D01*
D10*
X35460000Y-20163748D02*
X35460000Y-22936252D01*
X32040000Y-20163748D02*
X32040000Y-22936252D01*
D11*
X48350000Y-24700000D02*
X42100000Y-24700000D01*
X42100000Y-24700000D02*
X42100000Y-27950000D01*
X48350000Y-24700000D02*
X54600000Y-24700000D01*
X54600000Y-24700000D02*
X54600000Y-27950000D01*
X48350000Y-37200000D02*
X42100000Y-37200000D01*
X42100000Y-37200000D02*
X42100000Y-33950000D01*
X48350000Y-37200000D02*
X54600000Y-37200000D01*
X54600000Y-37200000D02*
X54600000Y-33950000D01*
D10*
X40710000Y-28340000D02*
X38360000Y-28340000D01*
X33890000Y-28340000D02*
X36240000Y-28340000D01*
X33890000Y-34095563D02*
X33890000Y-28340000D01*
X40710000Y-34095563D02*
X40710000Y-28340000D01*
X39645563Y-35160000D02*
X38360000Y-35160000D01*
X34954437Y-35160000D02*
X36240000Y-35160000D01*
X34954437Y-35160000D02*
X33890000Y-34095563D01*
X39645563Y-35160000D02*
X40710000Y-34095563D01*
X35452500Y-36187500D02*
X35452500Y-35400000D01*
X35058750Y-35793750D02*
X35846250Y-35793750D01*
D12*
G36*
X90418657Y-31195258D02*
G01*
X90475662Y-31220094D01*
X90523728Y-31262315D01*
X90564114Y-31322805D01*
X90573956Y-31342578D01*
X90585112Y-31368140D01*
X90592585Y-31391755D01*
X90597100Y-31418480D01*
X90599381Y-31453371D01*
X90600152Y-31501482D01*
X90600200Y-31525750D01*
X90599963Y-31579306D01*
X90598656Y-31617756D01*
X90595386Y-31646313D01*
X90589258Y-31670191D01*
X90579378Y-31694603D01*
X90566714Y-31720983D01*
X90525015Y-31789397D01*
X90472582Y-31850030D01*
X90413619Y-31898774D01*
X90352329Y-31931519D01*
X90350616Y-31932168D01*
X90287632Y-31955722D01*
X90293803Y-32028717D01*
X90299027Y-32077451D01*
X90306655Y-32133506D01*
X90314546Y-32181916D01*
X90322550Y-32227725D01*
X90332033Y-32284641D01*
X90341513Y-32343669D01*
X90346203Y-32373880D01*
X90355974Y-32426693D01*
X90370459Y-32491109D01*
X90387813Y-32559497D01*
X90406190Y-32624227D01*
X90408863Y-32632960D01*
X90431865Y-32709657D01*
X90448006Y-32769939D01*
X90457590Y-32816402D01*
X90460923Y-32851646D01*
X90458307Y-32878268D01*
X90450048Y-32898867D01*
X90441396Y-32910721D01*
X90410349Y-32933506D01*
X90371887Y-32944106D01*
X90334438Y-32940634D01*
X90325069Y-32936775D01*
X90301183Y-32916763D01*
X90279061Y-32880984D01*
X90257619Y-32827518D01*
X90249795Y-32803367D01*
X90238738Y-32770755D01*
X90221765Y-32724582D01*
X90200839Y-32670016D01*
X90177922Y-32612227D01*
X90167505Y-32586602D01*
X90121402Y-32472113D01*
X90083310Y-32372514D01*
X90052234Y-32284482D01*
X90027179Y-32204690D01*
X90007152Y-32129815D01*
X89991156Y-32056530D01*
X89978199Y-31981512D01*
X89970752Y-31928859D01*
X89958192Y-31807555D01*
X89954654Y-31702991D01*
X89960175Y-31613681D01*
X89963914Y-31594354D01*
X90192765Y-31594354D01*
X90199030Y-31613274D01*
X90213332Y-31630488D01*
X90232665Y-31657313D01*
X90239357Y-31690657D01*
X90239520Y-31698946D01*
X90239520Y-31741217D01*
X90267460Y-31723493D01*
X90294714Y-31703896D01*
X90322752Y-31680513D01*
X90324246Y-31679144D01*
X90347164Y-31653760D01*
X90371210Y-31620899D01*
X90379769Y-31607262D01*
X90400412Y-31554798D01*
X90405758Y-31497825D01*
X90395493Y-31443517D01*
X90387749Y-31425679D01*
X90373710Y-31403730D01*
X90359727Y-31397293D01*
X90348211Y-31399467D01*
X90315305Y-31414108D01*
X90285805Y-31437864D01*
X90255309Y-31474702D01*
X90239471Y-31497528D01*
X90212213Y-31540411D01*
X90196902Y-31571376D01*
X90192765Y-31594354D01*
X89963914Y-31594354D01*
X89974791Y-31538140D01*
X89981090Y-31517538D01*
X90019229Y-31426866D01*
X90067865Y-31348411D01*
X90125280Y-31283707D01*
X90189756Y-31234288D01*
X90259574Y-31201688D01*
X90333014Y-31187443D01*
X90351450Y-31186927D01*
X90418657Y-31195258D01*
G37*
X90418657Y-31195258D02*
X90475662Y-31220094D01*
X90523728Y-31262315D01*
X90564114Y-31322805D01*
X90573956Y-31342578D01*
X90585112Y-31368140D01*
X90592585Y-31391755D01*
X90597100Y-31418480D01*
X90599381Y-31453371D01*
X90600152Y-31501482D01*
X90600200Y-31525750D01*
X90599963Y-31579306D01*
X90598656Y-31617756D01*
X90595386Y-31646313D01*
X90589258Y-31670191D01*
X90579378Y-31694603D01*
X90566714Y-31720983D01*
X90525015Y-31789397D01*
X90472582Y-31850030D01*
X90413619Y-31898774D01*
X90352329Y-31931519D01*
X90350616Y-31932168D01*
X90287632Y-31955722D01*
X90293803Y-32028717D01*
X90299027Y-32077451D01*
X90306655Y-32133506D01*
X90314546Y-32181916D01*
X90322550Y-32227725D01*
X90332033Y-32284641D01*
X90341513Y-32343669D01*
X90346203Y-32373880D01*
X90355974Y-32426693D01*
X90370459Y-32491109D01*
X90387813Y-32559497D01*
X90406190Y-32624227D01*
X90408863Y-32632960D01*
X90431865Y-32709657D01*
X90448006Y-32769939D01*
X90457590Y-32816402D01*
X90460923Y-32851646D01*
X90458307Y-32878268D01*
X90450048Y-32898867D01*
X90441396Y-32910721D01*
X90410349Y-32933506D01*
X90371887Y-32944106D01*
X90334438Y-32940634D01*
X90325069Y-32936775D01*
X90301183Y-32916763D01*
X90279061Y-32880984D01*
X90257619Y-32827518D01*
X90249795Y-32803367D01*
X90238738Y-32770755D01*
X90221765Y-32724582D01*
X90200839Y-32670016D01*
X90177922Y-32612227D01*
X90167505Y-32586602D01*
X90121402Y-32472113D01*
X90083310Y-32372514D01*
X90052234Y-32284482D01*
X90027179Y-32204690D01*
X90007152Y-32129815D01*
X89991156Y-32056530D01*
X89978199Y-31981512D01*
X89970752Y-31928859D01*
X89958192Y-31807555D01*
X89954654Y-31702991D01*
X89960175Y-31613681D01*
X89963914Y-31594354D01*
X90192765Y-31594354D01*
X90199030Y-31613274D01*
X90213332Y-31630488D01*
X90232665Y-31657313D01*
X90239357Y-31690657D01*
X90239520Y-31698946D01*
X90239520Y-31741217D01*
X90267460Y-31723493D01*
X90294714Y-31703896D01*
X90322752Y-31680513D01*
X90324246Y-31679144D01*
X90347164Y-31653760D01*
X90371210Y-31620899D01*
X90379769Y-31607262D01*
X90400412Y-31554798D01*
X90405758Y-31497825D01*
X90395493Y-31443517D01*
X90387749Y-31425679D01*
X90373710Y-31403730D01*
X90359727Y-31397293D01*
X90348211Y-31399467D01*
X90315305Y-31414108D01*
X90285805Y-31437864D01*
X90255309Y-31474702D01*
X90239471Y-31497528D01*
X90212213Y-31540411D01*
X90196902Y-31571376D01*
X90192765Y-31594354D01*
X89963914Y-31594354D01*
X89974791Y-31538140D01*
X89981090Y-31517538D01*
X90019229Y-31426866D01*
X90067865Y-31348411D01*
X90125280Y-31283707D01*
X90189756Y-31234288D01*
X90259574Y-31201688D01*
X90333014Y-31187443D01*
X90351450Y-31186927D01*
X90418657Y-31195258D01*
G36*
X86627226Y-30387918D02*
G01*
X86685585Y-30400495D01*
X86732520Y-30419823D01*
X86763873Y-30444629D01*
X86764671Y-30445623D01*
X86783192Y-30483795D01*
X86782669Y-30524005D01*
X86763434Y-30562174D01*
X86754344Y-30572338D01*
X86731791Y-30591940D01*
X86711883Y-30598814D01*
X86685764Y-30596526D01*
X86656577Y-30592493D01*
X86615723Y-30588142D01*
X86571814Y-30584385D01*
X86569877Y-30584243D01*
X86526606Y-30582052D01*
X86495341Y-30583852D01*
X86467962Y-30590825D01*
X86437797Y-30603485D01*
X86380642Y-30634887D01*
X86315459Y-30678955D01*
X86246480Y-30732151D01*
X86177940Y-30790938D01*
X86114072Y-30851777D01*
X86059110Y-30911132D01*
X86036628Y-30938711D01*
X85996718Y-30994858D01*
X85970836Y-31043609D01*
X85957066Y-31090165D01*
X85953491Y-31139725D01*
X85954487Y-31161562D01*
X85958368Y-31198183D01*
X85965641Y-31228875D01*
X85978736Y-31260505D01*
X86000085Y-31299942D01*
X86008726Y-31314771D01*
X86045338Y-31368393D01*
X86096823Y-31431150D01*
X86161059Y-31501038D01*
X86235925Y-31576055D01*
X86319297Y-31654198D01*
X86409054Y-31733466D01*
X86503073Y-31811854D01*
X86599231Y-31887361D01*
X86674982Y-31943419D01*
X86772461Y-32015389D01*
X86852977Y-32079390D01*
X86917570Y-32136873D01*
X86967282Y-32189286D01*
X87003153Y-32238082D01*
X87026226Y-32284710D01*
X87037540Y-32330619D01*
X87038137Y-32377262D01*
X87029059Y-32426087D01*
X87026935Y-32433661D01*
X87009563Y-32469040D01*
X86978129Y-32510412D01*
X86936430Y-32554076D01*
X86888262Y-32596328D01*
X86837422Y-32633468D01*
X86798481Y-32656440D01*
X86753384Y-32678966D01*
X86709990Y-32698382D01*
X86665121Y-32715653D01*
X86615594Y-32731742D01*
X86558230Y-32747614D01*
X86489847Y-32764232D01*
X86407265Y-32782562D01*
X86325630Y-32799772D01*
X86212424Y-32823033D01*
X86116689Y-32842053D01*
X86036084Y-32857119D01*
X85968272Y-32868517D01*
X85910913Y-32876535D01*
X85861667Y-32881457D01*
X85818197Y-32883570D01*
X85778163Y-32883160D01*
X85739225Y-32880514D01*
X85701146Y-32876193D01*
X85646061Y-32865878D01*
X85605158Y-32850288D01*
X85581799Y-32835139D01*
X85534617Y-32795773D01*
X85501785Y-32761844D01*
X85479630Y-32729409D01*
X85475170Y-32720745D01*
X85457106Y-32670732D01*
X85456330Y-32629200D01*
X85472995Y-32593712D01*
X85483858Y-32581378D01*
X85520117Y-32557120D01*
X85560058Y-32552771D01*
X85603001Y-32568393D01*
X85605999Y-32570174D01*
X85637430Y-32582627D01*
X85669745Y-32586457D01*
X85692796Y-32585075D01*
X85730837Y-32582950D01*
X85778560Y-32580374D01*
X85830080Y-32577667D01*
X85895300Y-32573513D01*
X85968769Y-32567618D01*
X86039688Y-32560898D01*
X86079000Y-32556557D01*
X86140114Y-32549410D01*
X86206676Y-32541847D01*
X86269008Y-32534957D01*
X86302520Y-32531373D01*
X86372156Y-32523128D01*
X86445814Y-32512782D01*
X86518737Y-32501145D01*
X86586168Y-32489026D01*
X86643349Y-32477236D01*
X86685524Y-32466584D01*
X86688600Y-32465653D01*
X86724448Y-32451048D01*
X86763166Y-32429780D01*
X86799402Y-32405454D01*
X86827810Y-32381674D01*
X86843038Y-32362043D01*
X86843280Y-32361441D01*
X86840480Y-32345187D01*
X86822045Y-32321483D01*
X86787495Y-32289931D01*
X86736354Y-32250132D01*
X86668144Y-32201686D01*
X86587000Y-32147224D01*
X86437274Y-32044050D01*
X86299141Y-31939313D01*
X86173884Y-31834225D01*
X86062787Y-31730000D01*
X85967132Y-31627850D01*
X85888203Y-31528989D01*
X85827283Y-31434629D01*
X85820935Y-31423093D01*
X85779360Y-31330347D01*
X85756841Y-31239816D01*
X85752968Y-31147894D01*
X85767330Y-31050977D01*
X85775014Y-31020814D01*
X85799263Y-30960957D01*
X85839759Y-30894451D01*
X85894460Y-30823494D01*
X85961323Y-30750289D01*
X86038302Y-30677034D01*
X86123355Y-30605932D01*
X86214439Y-30539181D01*
X86235384Y-30525100D01*
X86305616Y-30479429D01*
X86362645Y-30444495D01*
X86409594Y-30418941D01*
X86449590Y-30401408D01*
X86485756Y-30390540D01*
X86521218Y-30384979D01*
X86559099Y-30383367D01*
X86561600Y-30383366D01*
X86627226Y-30387918D01*
G37*
X86627226Y-30387918D02*
X86685585Y-30400495D01*
X86732520Y-30419823D01*
X86763873Y-30444629D01*
X86764671Y-30445623D01*
X86783192Y-30483795D01*
X86782669Y-30524005D01*
X86763434Y-30562174D01*
X86754344Y-30572338D01*
X86731791Y-30591940D01*
X86711883Y-30598814D01*
X86685764Y-30596526D01*
X86656577Y-30592493D01*
X86615723Y-30588142D01*
X86571814Y-30584385D01*
X86569877Y-30584243D01*
X86526606Y-30582052D01*
X86495341Y-30583852D01*
X86467962Y-30590825D01*
X86437797Y-30603485D01*
X86380642Y-30634887D01*
X86315459Y-30678955D01*
X86246480Y-30732151D01*
X86177940Y-30790938D01*
X86114072Y-30851777D01*
X86059110Y-30911132D01*
X86036628Y-30938711D01*
X85996718Y-30994858D01*
X85970836Y-31043609D01*
X85957066Y-31090165D01*
X85953491Y-31139725D01*
X85954487Y-31161562D01*
X85958368Y-31198183D01*
X85965641Y-31228875D01*
X85978736Y-31260505D01*
X86000085Y-31299942D01*
X86008726Y-31314771D01*
X86045338Y-31368393D01*
X86096823Y-31431150D01*
X86161059Y-31501038D01*
X86235925Y-31576055D01*
X86319297Y-31654198D01*
X86409054Y-31733466D01*
X86503073Y-31811854D01*
X86599231Y-31887361D01*
X86674982Y-31943419D01*
X86772461Y-32015389D01*
X86852977Y-32079390D01*
X86917570Y-32136873D01*
X86967282Y-32189286D01*
X87003153Y-32238082D01*
X87026226Y-32284710D01*
X87037540Y-32330619D01*
X87038137Y-32377262D01*
X87029059Y-32426087D01*
X87026935Y-32433661D01*
X87009563Y-32469040D01*
X86978129Y-32510412D01*
X86936430Y-32554076D01*
X86888262Y-32596328D01*
X86837422Y-32633468D01*
X86798481Y-32656440D01*
X86753384Y-32678966D01*
X86709990Y-32698382D01*
X86665121Y-32715653D01*
X86615594Y-32731742D01*
X86558230Y-32747614D01*
X86489847Y-32764232D01*
X86407265Y-32782562D01*
X86325630Y-32799772D01*
X86212424Y-32823033D01*
X86116689Y-32842053D01*
X86036084Y-32857119D01*
X85968272Y-32868517D01*
X85910913Y-32876535D01*
X85861667Y-32881457D01*
X85818197Y-32883570D01*
X85778163Y-32883160D01*
X85739225Y-32880514D01*
X85701146Y-32876193D01*
X85646061Y-32865878D01*
X85605158Y-32850288D01*
X85581799Y-32835139D01*
X85534617Y-32795773D01*
X85501785Y-32761844D01*
X85479630Y-32729409D01*
X85475170Y-32720745D01*
X85457106Y-32670732D01*
X85456330Y-32629200D01*
X85472995Y-32593712D01*
X85483858Y-32581378D01*
X85520117Y-32557120D01*
X85560058Y-32552771D01*
X85603001Y-32568393D01*
X85605999Y-32570174D01*
X85637430Y-32582627D01*
X85669745Y-32586457D01*
X85692796Y-32585075D01*
X85730837Y-32582950D01*
X85778560Y-32580374D01*
X85830080Y-32577667D01*
X85895300Y-32573513D01*
X85968769Y-32567618D01*
X86039688Y-32560898D01*
X86079000Y-32556557D01*
X86140114Y-32549410D01*
X86206676Y-32541847D01*
X86269008Y-32534957D01*
X86302520Y-32531373D01*
X86372156Y-32523128D01*
X86445814Y-32512782D01*
X86518737Y-32501145D01*
X86586168Y-32489026D01*
X86643349Y-32477236D01*
X86685524Y-32466584D01*
X86688600Y-32465653D01*
X86724448Y-32451048D01*
X86763166Y-32429780D01*
X86799402Y-32405454D01*
X86827810Y-32381674D01*
X86843038Y-32362043D01*
X86843280Y-32361441D01*
X86840480Y-32345187D01*
X86822045Y-32321483D01*
X86787495Y-32289931D01*
X86736354Y-32250132D01*
X86668144Y-32201686D01*
X86587000Y-32147224D01*
X86437274Y-32044050D01*
X86299141Y-31939313D01*
X86173884Y-31834225D01*
X86062787Y-31730000D01*
X85967132Y-31627850D01*
X85888203Y-31528989D01*
X85827283Y-31434629D01*
X85820935Y-31423093D01*
X85779360Y-31330347D01*
X85756841Y-31239816D01*
X85752968Y-31147894D01*
X85767330Y-31050977D01*
X85775014Y-31020814D01*
X85799263Y-30960957D01*
X85839759Y-30894451D01*
X85894460Y-30823494D01*
X85961323Y-30750289D01*
X86038302Y-30677034D01*
X86123355Y-30605932D01*
X86214439Y-30539181D01*
X86235384Y-30525100D01*
X86305616Y-30479429D01*
X86362645Y-30444495D01*
X86409594Y-30418941D01*
X86449590Y-30401408D01*
X86485756Y-30390540D01*
X86521218Y-30384979D01*
X86559099Y-30383367D01*
X86561600Y-30383366D01*
X86627226Y-30387918D01*
G36*
X87772697Y-31440866D02*
G01*
X87817526Y-31460461D01*
X87847572Y-31491720D01*
X87861343Y-31533496D01*
X87862080Y-31547197D01*
X87852792Y-31584075D01*
X87828230Y-31614321D01*
X87793347Y-31633254D01*
X87766773Y-31637280D01*
X87736488Y-31643731D01*
X87707351Y-31665395D01*
X87702541Y-31670300D01*
X87661924Y-31719891D01*
X87619451Y-31783692D01*
X87577791Y-31856478D01*
X87539613Y-31933020D01*
X87507586Y-32008092D01*
X87484379Y-32076467D01*
X87475150Y-32115611D01*
X87468755Y-32184518D01*
X87473064Y-32252865D01*
X87486965Y-32316533D01*
X87509346Y-32371401D01*
X87539094Y-32413346D01*
X87560229Y-32430732D01*
X87581221Y-32441712D01*
X87603577Y-32446846D01*
X87634238Y-32447081D01*
X87663960Y-32444874D01*
X87737248Y-32436174D01*
X87800124Y-32423178D01*
X87862393Y-32403630D01*
X87892099Y-32392382D01*
X87933483Y-32375054D01*
X87982686Y-32352868D01*
X88035814Y-32327761D01*
X88088973Y-32301673D01*
X88138265Y-32276544D01*
X88179797Y-32254311D01*
X88209673Y-32236914D01*
X88222308Y-32228012D01*
X88254271Y-32203574D01*
X88289474Y-32182686D01*
X88321166Y-32168981D01*
X88338259Y-32165600D01*
X88365562Y-32174552D01*
X88388353Y-32196783D01*
X88400104Y-32225348D01*
X88400560Y-32231841D01*
X88392726Y-32262902D01*
X88370807Y-32303347D01*
X88337176Y-32350642D01*
X88294204Y-32402255D01*
X88244264Y-32455650D01*
X88189728Y-32508294D01*
X88132968Y-32557653D01*
X88076358Y-32601194D01*
X88022270Y-32636382D01*
X88021248Y-32636973D01*
X87947167Y-32676472D01*
X87881244Y-32703702D01*
X87817143Y-32720635D01*
X87748526Y-32729243D01*
X87719840Y-32730744D01*
X87656217Y-32731522D01*
X87605551Y-32728207D01*
X87560788Y-32720225D01*
X87547120Y-32716744D01*
X87461509Y-32684833D01*
X87389543Y-32638762D01*
X87330465Y-32577741D01*
X87283517Y-32500981D01*
X87247942Y-32407695D01*
X87246900Y-32404145D01*
X87238139Y-32356634D01*
X87234229Y-32295543D01*
X87234987Y-32226981D01*
X87240232Y-32157053D01*
X87249783Y-32091868D01*
X87257151Y-32058920D01*
X87279424Y-31991630D01*
X87312973Y-31913760D01*
X87355339Y-31829699D01*
X87404058Y-31743839D01*
X87456670Y-31660570D01*
X87510714Y-31584282D01*
X87552232Y-31532505D01*
X87591803Y-31488999D01*
X87624865Y-31460053D01*
X87655749Y-31443042D01*
X87688787Y-31435340D01*
X87714581Y-31434080D01*
X87772697Y-31440866D01*
G37*
X87772697Y-31440866D02*
X87817526Y-31460461D01*
X87847572Y-31491720D01*
X87861343Y-31533496D01*
X87862080Y-31547197D01*
X87852792Y-31584075D01*
X87828230Y-31614321D01*
X87793347Y-31633254D01*
X87766773Y-31637280D01*
X87736488Y-31643731D01*
X87707351Y-31665395D01*
X87702541Y-31670300D01*
X87661924Y-31719891D01*
X87619451Y-31783692D01*
X87577791Y-31856478D01*
X87539613Y-31933020D01*
X87507586Y-32008092D01*
X87484379Y-32076467D01*
X87475150Y-32115611D01*
X87468755Y-32184518D01*
X87473064Y-32252865D01*
X87486965Y-32316533D01*
X87509346Y-32371401D01*
X87539094Y-32413346D01*
X87560229Y-32430732D01*
X87581221Y-32441712D01*
X87603577Y-32446846D01*
X87634238Y-32447081D01*
X87663960Y-32444874D01*
X87737248Y-32436174D01*
X87800124Y-32423178D01*
X87862393Y-32403630D01*
X87892099Y-32392382D01*
X87933483Y-32375054D01*
X87982686Y-32352868D01*
X88035814Y-32327761D01*
X88088973Y-32301673D01*
X88138265Y-32276544D01*
X88179797Y-32254311D01*
X88209673Y-32236914D01*
X88222308Y-32228012D01*
X88254271Y-32203574D01*
X88289474Y-32182686D01*
X88321166Y-32168981D01*
X88338259Y-32165600D01*
X88365562Y-32174552D01*
X88388353Y-32196783D01*
X88400104Y-32225348D01*
X88400560Y-32231841D01*
X88392726Y-32262902D01*
X88370807Y-32303347D01*
X88337176Y-32350642D01*
X88294204Y-32402255D01*
X88244264Y-32455650D01*
X88189728Y-32508294D01*
X88132968Y-32557653D01*
X88076358Y-32601194D01*
X88022270Y-32636382D01*
X88021248Y-32636973D01*
X87947167Y-32676472D01*
X87881244Y-32703702D01*
X87817143Y-32720635D01*
X87748526Y-32729243D01*
X87719840Y-32730744D01*
X87656217Y-32731522D01*
X87605551Y-32728207D01*
X87560788Y-32720225D01*
X87547120Y-32716744D01*
X87461509Y-32684833D01*
X87389543Y-32638762D01*
X87330465Y-32577741D01*
X87283517Y-32500981D01*
X87247942Y-32407695D01*
X87246900Y-32404145D01*
X87238139Y-32356634D01*
X87234229Y-32295543D01*
X87234987Y-32226981D01*
X87240232Y-32157053D01*
X87249783Y-32091868D01*
X87257151Y-32058920D01*
X87279424Y-31991630D01*
X87312973Y-31913760D01*
X87355339Y-31829699D01*
X87404058Y-31743839D01*
X87456670Y-31660570D01*
X87510714Y-31584282D01*
X87552232Y-31532505D01*
X87591803Y-31488999D01*
X87624865Y-31460053D01*
X87655749Y-31443042D01*
X87688787Y-31435340D01*
X87714581Y-31434080D01*
X87772697Y-31440866D01*
G36*
X88375227Y-30709690D02*
G01*
X88394239Y-30716626D01*
X88419474Y-30729817D01*
X88436004Y-30743201D01*
X88437071Y-30744703D01*
X88440044Y-30759028D01*
X88442895Y-30790014D01*
X88445405Y-30834000D01*
X88447353Y-30887327D01*
X88448309Y-30931033D01*
X88450231Y-31006813D01*
X88453881Y-31073231D01*
X88459974Y-31135076D01*
X88469225Y-31197134D01*
X88482349Y-31264195D01*
X88500060Y-31341046D01*
X88523074Y-31432476D01*
X88523294Y-31433325D01*
X88547672Y-31524969D01*
X88570028Y-31602222D01*
X88592221Y-31670637D01*
X88616110Y-31735769D01*
X88643556Y-31803172D01*
X88659494Y-31840146D01*
X88681235Y-31886517D01*
X88706540Y-31935216D01*
X88733523Y-31983213D01*
X88760299Y-32027481D01*
X88784979Y-32064991D01*
X88805679Y-32092714D01*
X88820512Y-32107623D01*
X88826675Y-32108548D01*
X88832249Y-32096523D01*
X88842983Y-32068244D01*
X88857784Y-32026789D01*
X88875554Y-31975237D01*
X88895200Y-31916665D01*
X88898552Y-31906520D01*
X88931070Y-31810293D01*
X88959733Y-31731957D01*
X88985816Y-31669738D01*
X89010599Y-31621867D01*
X89035358Y-31586572D01*
X89061370Y-31562081D01*
X89089913Y-31546623D01*
X89122265Y-31538427D01*
X89159703Y-31535721D01*
X89165987Y-31535680D01*
X89206142Y-31539388D01*
X89243126Y-31551804D01*
X89279455Y-31574864D01*
X89317642Y-31610505D01*
X89360203Y-31660665D01*
X89403419Y-31718560D01*
X89443940Y-31772496D01*
X89490816Y-31830967D01*
X89538004Y-31886623D01*
X89576382Y-31928900D01*
X89637355Y-31993705D01*
X89684751Y-32046369D01*
X89719692Y-32088779D01*
X89743303Y-32122824D01*
X89756707Y-32150390D01*
X89761027Y-32173365D01*
X89757388Y-32193635D01*
X89746912Y-32213089D01*
X89746183Y-32214139D01*
X89723312Y-32230471D01*
X89687947Y-32237006D01*
X89645553Y-32233456D01*
X89606087Y-32221480D01*
X89576230Y-32211343D01*
X89550543Y-32206349D01*
X89547652Y-32206240D01*
X89529695Y-32201808D01*
X89498681Y-32189852D01*
X89459501Y-32172374D01*
X89429937Y-32157980D01*
X89374133Y-32127651D01*
X89329665Y-32097426D01*
X89288452Y-32061429D01*
X89265741Y-32038600D01*
X89233311Y-32004091D01*
X89204065Y-31971536D01*
X89182492Y-31945991D01*
X89176262Y-31937819D01*
X89155222Y-31908158D01*
X89121921Y-32008939D01*
X89082838Y-32117356D01*
X89043562Y-32206176D01*
X89003626Y-32276120D01*
X88962564Y-32327907D01*
X88919910Y-32362259D01*
X88883160Y-32377994D01*
X88857320Y-32384693D01*
X88838324Y-32387409D01*
X88818934Y-32385820D01*
X88791914Y-32379606D01*
X88766320Y-32372796D01*
X88700746Y-32346645D01*
X88639494Y-32303977D01*
X88581281Y-32243627D01*
X88524823Y-32164431D01*
X88510030Y-32140200D01*
X88422311Y-31972583D01*
X88351242Y-31794392D01*
X88297137Y-31607139D01*
X88260313Y-31412338D01*
X88241086Y-31211503D01*
X88239770Y-31006147D01*
X88247610Y-30882507D01*
X88254639Y-30823170D01*
X88264562Y-30780449D01*
X88279096Y-30750677D01*
X88299959Y-30730184D01*
X88325150Y-30716815D01*
X88352411Y-30707981D01*
X88375227Y-30709690D01*
G37*
X88375227Y-30709690D02*
X88394239Y-30716626D01*
X88419474Y-30729817D01*
X88436004Y-30743201D01*
X88437071Y-30744703D01*
X88440044Y-30759028D01*
X88442895Y-30790014D01*
X88445405Y-30834000D01*
X88447353Y-30887327D01*
X88448309Y-30931033D01*
X88450231Y-31006813D01*
X88453881Y-31073231D01*
X88459974Y-31135076D01*
X88469225Y-31197134D01*
X88482349Y-31264195D01*
X88500060Y-31341046D01*
X88523074Y-31432476D01*
X88523294Y-31433325D01*
X88547672Y-31524969D01*
X88570028Y-31602222D01*
X88592221Y-31670637D01*
X88616110Y-31735769D01*
X88643556Y-31803172D01*
X88659494Y-31840146D01*
X88681235Y-31886517D01*
X88706540Y-31935216D01*
X88733523Y-31983213D01*
X88760299Y-32027481D01*
X88784979Y-32064991D01*
X88805679Y-32092714D01*
X88820512Y-32107623D01*
X88826675Y-32108548D01*
X88832249Y-32096523D01*
X88842983Y-32068244D01*
X88857784Y-32026789D01*
X88875554Y-31975237D01*
X88895200Y-31916665D01*
X88898552Y-31906520D01*
X88931070Y-31810293D01*
X88959733Y-31731957D01*
X88985816Y-31669738D01*
X89010599Y-31621867D01*
X89035358Y-31586572D01*
X89061370Y-31562081D01*
X89089913Y-31546623D01*
X89122265Y-31538427D01*
X89159703Y-31535721D01*
X89165987Y-31535680D01*
X89206142Y-31539388D01*
X89243126Y-31551804D01*
X89279455Y-31574864D01*
X89317642Y-31610505D01*
X89360203Y-31660665D01*
X89403419Y-31718560D01*
X89443940Y-31772496D01*
X89490816Y-31830967D01*
X89538004Y-31886623D01*
X89576382Y-31928900D01*
X89637355Y-31993705D01*
X89684751Y-32046369D01*
X89719692Y-32088779D01*
X89743303Y-32122824D01*
X89756707Y-32150390D01*
X89761027Y-32173365D01*
X89757388Y-32193635D01*
X89746912Y-32213089D01*
X89746183Y-32214139D01*
X89723312Y-32230471D01*
X89687947Y-32237006D01*
X89645553Y-32233456D01*
X89606087Y-32221480D01*
X89576230Y-32211343D01*
X89550543Y-32206349D01*
X89547652Y-32206240D01*
X89529695Y-32201808D01*
X89498681Y-32189852D01*
X89459501Y-32172374D01*
X89429937Y-32157980D01*
X89374133Y-32127651D01*
X89329665Y-32097426D01*
X89288452Y-32061429D01*
X89265741Y-32038600D01*
X89233311Y-32004091D01*
X89204065Y-31971536D01*
X89182492Y-31945991D01*
X89176262Y-31937819D01*
X89155222Y-31908158D01*
X89121921Y-32008939D01*
X89082838Y-32117356D01*
X89043562Y-32206176D01*
X89003626Y-32276120D01*
X88962564Y-32327907D01*
X88919910Y-32362259D01*
X88883160Y-32377994D01*
X88857320Y-32384693D01*
X88838324Y-32387409D01*
X88818934Y-32385820D01*
X88791914Y-32379606D01*
X88766320Y-32372796D01*
X88700746Y-32346645D01*
X88639494Y-32303977D01*
X88581281Y-32243627D01*
X88524823Y-32164431D01*
X88510030Y-32140200D01*
X88422311Y-31972583D01*
X88351242Y-31794392D01*
X88297137Y-31607139D01*
X88260313Y-31412338D01*
X88241086Y-31211503D01*
X88239770Y-31006147D01*
X88247610Y-30882507D01*
X88254639Y-30823170D01*
X88264562Y-30780449D01*
X88279096Y-30750677D01*
X88299959Y-30730184D01*
X88325150Y-30716815D01*
X88352411Y-30707981D01*
X88375227Y-30709690D01*
G36*
X90952976Y-30156432D02*
G01*
X90998851Y-30166850D01*
X91029132Y-30188918D01*
X91046056Y-30224543D01*
X91048867Y-30238182D01*
X91050884Y-30259923D01*
X91046527Y-30277237D01*
X91032831Y-30296208D01*
X91008279Y-30321497D01*
X90977392Y-30358251D01*
X90952937Y-30402704D01*
X90933654Y-30458244D01*
X90918281Y-30528257D01*
X90909132Y-30587987D01*
X90905253Y-30632131D01*
X90902862Y-30692249D01*
X90901882Y-30764057D01*
X90902236Y-30843271D01*
X90903848Y-30925604D01*
X90906640Y-31006773D01*
X90910536Y-31082492D01*
X90915458Y-31148477D01*
X90919936Y-31190240D01*
X90931368Y-31262785D01*
X90947227Y-31340875D01*
X90966162Y-31419296D01*
X90986820Y-31492834D01*
X91007849Y-31556273D01*
X91026676Y-31601894D01*
X91046032Y-31639876D01*
X91062539Y-31664422D01*
X91080960Y-31680940D01*
X91106055Y-31694834D01*
X91110303Y-31696845D01*
X91135931Y-31707966D01*
X91157762Y-31713881D01*
X91182391Y-31715184D01*
X91216412Y-31712471D01*
X91245241Y-31709016D01*
X91293183Y-31703096D01*
X91325217Y-31699915D01*
X91345612Y-31699781D01*
X91358635Y-31703003D01*
X91368554Y-31709888D01*
X91377440Y-31718560D01*
X91394212Y-31742981D01*
X91395641Y-31769617D01*
X91381068Y-31801200D01*
X91349836Y-31840463D01*
X91347514Y-31843018D01*
X91307212Y-31880658D01*
X91263153Y-31907331D01*
X91210619Y-31924951D01*
X91144894Y-31935434D01*
X91113280Y-31938097D01*
X91070439Y-31940001D01*
X91039455Y-31937802D01*
X91012064Y-31930213D01*
X90984303Y-31918025D01*
X90909397Y-31872365D01*
X90845446Y-31811943D01*
X90791559Y-31735617D01*
X90746845Y-31642248D01*
X90728005Y-31589903D01*
X90699146Y-31491989D01*
X90677999Y-31396009D01*
X90664203Y-31297943D01*
X90657398Y-31193773D01*
X90657223Y-31079480D01*
X90663318Y-30951044D01*
X90666615Y-30905250D01*
X90680498Y-30772192D01*
X90701038Y-30641847D01*
X90727365Y-30517966D01*
X90758611Y-30404297D01*
X90793907Y-30304591D01*
X90818628Y-30249009D01*
X90845208Y-30202282D01*
X90872168Y-30172917D01*
X90903367Y-30158255D01*
X90942664Y-30155637D01*
X90952976Y-30156432D01*
G37*
X90952976Y-30156432D02*
X90998851Y-30166850D01*
X91029132Y-30188918D01*
X91046056Y-30224543D01*
X91048867Y-30238182D01*
X91050884Y-30259923D01*
X91046527Y-30277237D01*
X91032831Y-30296208D01*
X91008279Y-30321497D01*
X90977392Y-30358251D01*
X90952937Y-30402704D01*
X90933654Y-30458244D01*
X90918281Y-30528257D01*
X90909132Y-30587987D01*
X90905253Y-30632131D01*
X90902862Y-30692249D01*
X90901882Y-30764057D01*
X90902236Y-30843271D01*
X90903848Y-30925604D01*
X90906640Y-31006773D01*
X90910536Y-31082492D01*
X90915458Y-31148477D01*
X90919936Y-31190240D01*
X90931368Y-31262785D01*
X90947227Y-31340875D01*
X90966162Y-31419296D01*
X90986820Y-31492834D01*
X91007849Y-31556273D01*
X91026676Y-31601894D01*
X91046032Y-31639876D01*
X91062539Y-31664422D01*
X91080960Y-31680940D01*
X91106055Y-31694834D01*
X91110303Y-31696845D01*
X91135931Y-31707966D01*
X91157762Y-31713881D01*
X91182391Y-31715184D01*
X91216412Y-31712471D01*
X91245241Y-31709016D01*
X91293183Y-31703096D01*
X91325217Y-31699915D01*
X91345612Y-31699781D01*
X91358635Y-31703003D01*
X91368554Y-31709888D01*
X91377440Y-31718560D01*
X91394212Y-31742981D01*
X91395641Y-31769617D01*
X91381068Y-31801200D01*
X91349836Y-31840463D01*
X91347514Y-31843018D01*
X91307212Y-31880658D01*
X91263153Y-31907331D01*
X91210619Y-31924951D01*
X91144894Y-31935434D01*
X91113280Y-31938097D01*
X91070439Y-31940001D01*
X91039455Y-31937802D01*
X91012064Y-31930213D01*
X90984303Y-31918025D01*
X90909397Y-31872365D01*
X90845446Y-31811943D01*
X90791559Y-31735617D01*
X90746845Y-31642248D01*
X90728005Y-31589903D01*
X90699146Y-31491989D01*
X90677999Y-31396009D01*
X90664203Y-31297943D01*
X90657398Y-31193773D01*
X90657223Y-31079480D01*
X90663318Y-30951044D01*
X90666615Y-30905250D01*
X90680498Y-30772192D01*
X90701038Y-30641847D01*
X90727365Y-30517966D01*
X90758611Y-30404297D01*
X90793907Y-30304591D01*
X90818628Y-30249009D01*
X90845208Y-30202282D01*
X90872168Y-30172917D01*
X90903367Y-30158255D01*
X90942664Y-30155637D01*
X90952976Y-30156432D01*
G36*
X91622448Y-31222992D02*
G01*
X91646414Y-31231419D01*
X91663652Y-31248413D01*
X91675231Y-31276386D01*
X91682219Y-31317752D01*
X91685683Y-31374922D01*
X91686655Y-31437494D01*
X91687320Y-31588229D01*
X91715766Y-31612703D01*
X91744212Y-31637176D01*
X91781806Y-31617957D01*
X91811302Y-31598695D01*
X91843378Y-31571683D01*
X91857182Y-31557834D01*
X91882549Y-31533355D01*
X91906213Y-31515369D01*
X91916823Y-31509993D01*
X91943260Y-31511081D01*
X91969532Y-31526456D01*
X91989161Y-31551091D01*
X91995459Y-31570996D01*
X91990510Y-31600260D01*
X91972168Y-31637288D01*
X91943754Y-31678284D01*
X91908588Y-31719453D01*
X91869990Y-31756998D01*
X91831280Y-31787126D01*
X91795779Y-31806041D01*
X91787579Y-31808629D01*
X91733217Y-31821358D01*
X91692622Y-31826651D01*
X91660570Y-31824294D01*
X91631834Y-31814074D01*
X91609719Y-31801380D01*
X91557654Y-31756919D01*
X91513615Y-31696530D01*
X91484245Y-31634574D01*
X91476286Y-31608298D01*
X91471820Y-31578641D01*
X91470927Y-31542307D01*
X91473684Y-31495998D01*
X91480169Y-31436420D01*
X91490459Y-31360275D01*
X91490765Y-31358135D01*
X91504104Y-31297172D01*
X91524406Y-31254585D01*
X91552361Y-31229425D01*
X91588662Y-31220738D01*
X91590686Y-31220720D01*
X91622448Y-31222992D01*
G37*
X91622448Y-31222992D02*
X91646414Y-31231419D01*
X91663652Y-31248413D01*
X91675231Y-31276386D01*
X91682219Y-31317752D01*
X91685683Y-31374922D01*
X91686655Y-31437494D01*
X91687320Y-31588229D01*
X91715766Y-31612703D01*
X91744212Y-31637176D01*
X91781806Y-31617957D01*
X91811302Y-31598695D01*
X91843378Y-31571683D01*
X91857182Y-31557834D01*
X91882549Y-31533355D01*
X91906213Y-31515369D01*
X91916823Y-31509993D01*
X91943260Y-31511081D01*
X91969532Y-31526456D01*
X91989161Y-31551091D01*
X91995459Y-31570996D01*
X91990510Y-31600260D01*
X91972168Y-31637288D01*
X91943754Y-31678284D01*
X91908588Y-31719453D01*
X91869990Y-31756998D01*
X91831280Y-31787126D01*
X91795779Y-31806041D01*
X91787579Y-31808629D01*
X91733217Y-31821358D01*
X91692622Y-31826651D01*
X91660570Y-31824294D01*
X91631834Y-31814074D01*
X91609719Y-31801380D01*
X91557654Y-31756919D01*
X91513615Y-31696530D01*
X91484245Y-31634574D01*
X91476286Y-31608298D01*
X91471820Y-31578641D01*
X91470927Y-31542307D01*
X91473684Y-31495998D01*
X91480169Y-31436420D01*
X91490459Y-31360275D01*
X91490765Y-31358135D01*
X91504104Y-31297172D01*
X91524406Y-31254585D01*
X91552361Y-31229425D01*
X91588662Y-31220738D01*
X91590686Y-31220720D01*
X91622448Y-31222992D01*
G36*
X92524938Y-30142534D02*
G01*
X92536825Y-30151983D01*
X92561066Y-30182460D01*
X92573399Y-30221417D01*
X92573994Y-30271241D01*
X92563023Y-30334316D01*
X92552724Y-30373423D01*
X92534819Y-30439036D01*
X92517829Y-30507083D01*
X92502294Y-30574734D01*
X92488754Y-30639162D01*
X92477747Y-30697539D01*
X92469813Y-30747036D01*
X92465493Y-30784826D01*
X92465324Y-30808080D01*
X92468618Y-30814320D01*
X92479513Y-30809683D01*
X92504042Y-30797183D01*
X92538135Y-30778937D01*
X92564230Y-30764591D01*
X92661304Y-30712004D01*
X92747240Y-30668521D01*
X92827512Y-30631543D01*
X92907594Y-30598469D01*
X92940033Y-30586038D01*
X92996984Y-30564377D01*
X93057634Y-30540887D01*
X93113699Y-30518795D01*
X93147672Y-30505120D01*
X93205682Y-30483503D01*
X93250582Y-30472266D01*
X93286513Y-30471047D01*
X93317616Y-30479484D01*
X93335227Y-30488752D01*
X93374919Y-30522339D01*
X93396599Y-30564602D01*
X93401762Y-30603115D01*
X93399697Y-30640684D01*
X93390666Y-30671567D01*
X93372304Y-30698015D01*
X93342249Y-30722276D01*
X93298137Y-30746602D01*
X93237604Y-30773242D01*
X93212337Y-30783435D01*
X93168481Y-30801848D01*
X93115173Y-30825680D01*
X93061018Y-30851038D01*
X93036178Y-30863139D01*
X92997389Y-30881326D01*
X92943894Y-30904948D01*
X92879970Y-30932194D01*
X92809896Y-30961254D01*
X92737949Y-30990315D01*
X92705895Y-31002992D01*
X92633447Y-31031583D01*
X92577809Y-31054026D01*
X92536800Y-31071398D01*
X92508238Y-31084780D01*
X92489942Y-31095252D01*
X92479731Y-31103893D01*
X92475424Y-31111783D01*
X92474755Y-31117427D01*
X92479359Y-31143386D01*
X92491756Y-31181743D01*
X92509739Y-31227205D01*
X92531103Y-31274480D01*
X92553641Y-31318276D01*
X92569692Y-31345200D01*
X92606480Y-31397682D01*
X92640215Y-31434180D01*
X92675552Y-31457509D01*
X92717147Y-31470487D01*
X92769653Y-31475929D01*
X92786633Y-31476480D01*
X92857020Y-31472263D01*
X92925106Y-31457659D01*
X92984902Y-31434384D01*
X93026143Y-31407896D01*
X93061862Y-31387068D01*
X93096412Y-31386302D01*
X93122699Y-31399096D01*
X93141503Y-31422938D01*
X93144640Y-31454674D01*
X93133944Y-31491870D01*
X93111251Y-31532098D01*
X93078396Y-31572925D01*
X93037213Y-31611921D01*
X92989537Y-31646655D01*
X92937204Y-31674695D01*
X92905423Y-31686940D01*
X92851616Y-31700376D01*
X92788684Y-31709610D01*
X92724155Y-31714059D01*
X92665562Y-31713139D01*
X92629122Y-31708380D01*
X92582948Y-31692888D01*
X92530115Y-31666175D01*
X92477566Y-31632118D01*
X92442646Y-31604206D01*
X92404832Y-31562864D01*
X92365883Y-31506701D01*
X92328579Y-31440834D01*
X92295701Y-31370380D01*
X92270031Y-31300456D01*
X92261823Y-31271520D01*
X92253942Y-31241328D01*
X92247665Y-31218659D01*
X92246049Y-31213392D01*
X92235458Y-31210794D01*
X92211413Y-31215014D01*
X92178938Y-31224412D01*
X92143055Y-31237349D01*
X92108789Y-31252186D01*
X92081377Y-31267143D01*
X92042603Y-31281256D01*
X92002955Y-31276255D01*
X91966659Y-31252696D01*
X91965938Y-31251981D01*
X91942293Y-31216126D01*
X91936500Y-31177469D01*
X91947473Y-31140575D01*
X91974126Y-31110006D01*
X92003528Y-31094058D01*
X92024082Y-31084092D01*
X92056526Y-31065695D01*
X92095886Y-31041769D01*
X92125891Y-31022636D01*
X92219022Y-30962009D01*
X92225600Y-30880544D01*
X92234591Y-30797726D01*
X92248359Y-30706522D01*
X92265557Y-30614203D01*
X92284836Y-30528040D01*
X92303788Y-30458720D01*
X92320760Y-30401853D01*
X92339060Y-30337594D01*
X92355304Y-30277889D01*
X92358491Y-30265680D01*
X92373536Y-30213013D01*
X92387639Y-30176813D01*
X92402375Y-30153381D01*
X92409311Y-30146300D01*
X92445661Y-30126338D01*
X92485498Y-30125141D01*
X92524938Y-30142534D01*
G37*
X92524938Y-30142534D02*
X92536825Y-30151983D01*
X92561066Y-30182460D01*
X92573399Y-30221417D01*
X92573994Y-30271241D01*
X92563023Y-30334316D01*
X92552724Y-30373423D01*
X92534819Y-30439036D01*
X92517829Y-30507083D01*
X92502294Y-30574734D01*
X92488754Y-30639162D01*
X92477747Y-30697539D01*
X92469813Y-30747036D01*
X92465493Y-30784826D01*
X92465324Y-30808080D01*
X92468618Y-30814320D01*
X92479513Y-30809683D01*
X92504042Y-30797183D01*
X92538135Y-30778937D01*
X92564230Y-30764591D01*
X92661304Y-30712004D01*
X92747240Y-30668521D01*
X92827512Y-30631543D01*
X92907594Y-30598469D01*
X92940033Y-30586038D01*
X92996984Y-30564377D01*
X93057634Y-30540887D01*
X93113699Y-30518795D01*
X93147672Y-30505120D01*
X93205682Y-30483503D01*
X93250582Y-30472266D01*
X93286513Y-30471047D01*
X93317616Y-30479484D01*
X93335227Y-30488752D01*
X93374919Y-30522339D01*
X93396599Y-30564602D01*
X93401762Y-30603115D01*
X93399697Y-30640684D01*
X93390666Y-30671567D01*
X93372304Y-30698015D01*
X93342249Y-30722276D01*
X93298137Y-30746602D01*
X93237604Y-30773242D01*
X93212337Y-30783435D01*
X93168481Y-30801848D01*
X93115173Y-30825680D01*
X93061018Y-30851038D01*
X93036178Y-30863139D01*
X92997389Y-30881326D01*
X92943894Y-30904948D01*
X92879970Y-30932194D01*
X92809896Y-30961254D01*
X92737949Y-30990315D01*
X92705895Y-31002992D01*
X92633447Y-31031583D01*
X92577809Y-31054026D01*
X92536800Y-31071398D01*
X92508238Y-31084780D01*
X92489942Y-31095252D01*
X92479731Y-31103893D01*
X92475424Y-31111783D01*
X92474755Y-31117427D01*
X92479359Y-31143386D01*
X92491756Y-31181743D01*
X92509739Y-31227205D01*
X92531103Y-31274480D01*
X92553641Y-31318276D01*
X92569692Y-31345200D01*
X92606480Y-31397682D01*
X92640215Y-31434180D01*
X92675552Y-31457509D01*
X92717147Y-31470487D01*
X92769653Y-31475929D01*
X92786633Y-31476480D01*
X92857020Y-31472263D01*
X92925106Y-31457659D01*
X92984902Y-31434384D01*
X93026143Y-31407896D01*
X93061862Y-31387068D01*
X93096412Y-31386302D01*
X93122699Y-31399096D01*
X93141503Y-31422938D01*
X93144640Y-31454674D01*
X93133944Y-31491870D01*
X93111251Y-31532098D01*
X93078396Y-31572925D01*
X93037213Y-31611921D01*
X92989537Y-31646655D01*
X92937204Y-31674695D01*
X92905423Y-31686940D01*
X92851616Y-31700376D01*
X92788684Y-31709610D01*
X92724155Y-31714059D01*
X92665562Y-31713139D01*
X92629122Y-31708380D01*
X92582948Y-31692888D01*
X92530115Y-31666175D01*
X92477566Y-31632118D01*
X92442646Y-31604206D01*
X92404832Y-31562864D01*
X92365883Y-31506701D01*
X92328579Y-31440834D01*
X92295701Y-31370380D01*
X92270031Y-31300456D01*
X92261823Y-31271520D01*
X92253942Y-31241328D01*
X92247665Y-31218659D01*
X92246049Y-31213392D01*
X92235458Y-31210794D01*
X92211413Y-31215014D01*
X92178938Y-31224412D01*
X92143055Y-31237349D01*
X92108789Y-31252186D01*
X92081377Y-31267143D01*
X92042603Y-31281256D01*
X92002955Y-31276255D01*
X91966659Y-31252696D01*
X91965938Y-31251981D01*
X91942293Y-31216126D01*
X91936500Y-31177469D01*
X91947473Y-31140575D01*
X91974126Y-31110006D01*
X92003528Y-31094058D01*
X92024082Y-31084092D01*
X92056526Y-31065695D01*
X92095886Y-31041769D01*
X92125891Y-31022636D01*
X92219022Y-30962009D01*
X92225600Y-30880544D01*
X92234591Y-30797726D01*
X92248359Y-30706522D01*
X92265557Y-30614203D01*
X92284836Y-30528040D01*
X92303788Y-30458720D01*
X92320760Y-30401853D01*
X92339060Y-30337594D01*
X92355304Y-30277889D01*
X92358491Y-30265680D01*
X92373536Y-30213013D01*
X92387639Y-30176813D01*
X92402375Y-30153381D01*
X92409311Y-30146300D01*
X92445661Y-30126338D01*
X92485498Y-30125141D01*
X92524938Y-30142534D01*
G36*
X91725051Y-30333292D02*
G01*
X91790724Y-30359895D01*
X91850394Y-30397708D01*
X91899886Y-30445210D01*
X91922881Y-30477596D01*
X91951693Y-30544796D01*
X91963756Y-30618269D01*
X91960175Y-30694575D01*
X91942050Y-30770276D01*
X91910483Y-30841934D01*
X91866578Y-30906111D01*
X91811435Y-30959369D01*
X91757693Y-30992930D01*
X91711785Y-31008817D01*
X91653478Y-31019589D01*
X91590204Y-31024554D01*
X91529396Y-31023022D01*
X91491914Y-31017636D01*
X91420040Y-30992806D01*
X91354290Y-30951912D01*
X91299487Y-30898506D01*
X91269085Y-30853514D01*
X91256590Y-30816099D01*
X91250370Y-30765542D01*
X91250299Y-30707984D01*
X91250317Y-30707801D01*
X91441433Y-30707801D01*
X91445562Y-30739456D01*
X91466471Y-30772091D01*
X91502335Y-30796281D01*
X91548782Y-30809855D01*
X91590800Y-30811599D01*
X91628568Y-30806830D01*
X91662701Y-30798634D01*
X91676236Y-30793398D01*
X91720308Y-30760783D01*
X91752621Y-30714603D01*
X91770025Y-30659699D01*
X91771543Y-30646901D01*
X91770426Y-30597294D01*
X91756239Y-30560700D01*
X91727023Y-30533117D01*
X91711390Y-30524072D01*
X91683152Y-30514984D01*
X91653037Y-30513295D01*
X91627398Y-30518303D01*
X91612588Y-30529307D01*
X91611120Y-30535146D01*
X91602252Y-30553028D01*
X91580627Y-30568679D01*
X91553712Y-30577904D01*
X91534657Y-30578103D01*
X91508978Y-30582605D01*
X91484186Y-30602590D01*
X91462911Y-30633293D01*
X91447783Y-30669951D01*
X91441433Y-30707801D01*
X91250317Y-30707801D01*
X91256255Y-30649570D01*
X91268113Y-30596442D01*
X91274648Y-30577624D01*
X91295785Y-30536607D01*
X91325691Y-30494210D01*
X91360221Y-30454995D01*
X91395228Y-30423526D01*
X91426569Y-30404365D01*
X91434443Y-30401746D01*
X91460892Y-30389790D01*
X91477846Y-30374698D01*
X91495719Y-30358247D01*
X91523501Y-30340942D01*
X91533726Y-30335923D01*
X91592379Y-30319787D01*
X91657545Y-30319416D01*
X91725051Y-30333292D01*
G37*
X91725051Y-30333292D02*
X91790724Y-30359895D01*
X91850394Y-30397708D01*
X91899886Y-30445210D01*
X91922881Y-30477596D01*
X91951693Y-30544796D01*
X91963756Y-30618269D01*
X91960175Y-30694575D01*
X91942050Y-30770276D01*
X91910483Y-30841934D01*
X91866578Y-30906111D01*
X91811435Y-30959369D01*
X91757693Y-30992930D01*
X91711785Y-31008817D01*
X91653478Y-31019589D01*
X91590204Y-31024554D01*
X91529396Y-31023022D01*
X91491914Y-31017636D01*
X91420040Y-30992806D01*
X91354290Y-30951912D01*
X91299487Y-30898506D01*
X91269085Y-30853514D01*
X91256590Y-30816099D01*
X91250370Y-30765542D01*
X91250299Y-30707984D01*
X91250317Y-30707801D01*
X91441433Y-30707801D01*
X91445562Y-30739456D01*
X91466471Y-30772091D01*
X91502335Y-30796281D01*
X91548782Y-30809855D01*
X91590800Y-30811599D01*
X91628568Y-30806830D01*
X91662701Y-30798634D01*
X91676236Y-30793398D01*
X91720308Y-30760783D01*
X91752621Y-30714603D01*
X91770025Y-30659699D01*
X91771543Y-30646901D01*
X91770426Y-30597294D01*
X91756239Y-30560700D01*
X91727023Y-30533117D01*
X91711390Y-30524072D01*
X91683152Y-30514984D01*
X91653037Y-30513295D01*
X91627398Y-30518303D01*
X91612588Y-30529307D01*
X91611120Y-30535146D01*
X91602252Y-30553028D01*
X91580627Y-30568679D01*
X91553712Y-30577904D01*
X91534657Y-30578103D01*
X91508978Y-30582605D01*
X91484186Y-30602590D01*
X91462911Y-30633293D01*
X91447783Y-30669951D01*
X91441433Y-30707801D01*
X91250317Y-30707801D01*
X91256255Y-30649570D01*
X91268113Y-30596442D01*
X91274648Y-30577624D01*
X91295785Y-30536607D01*
X91325691Y-30494210D01*
X91360221Y-30454995D01*
X91395228Y-30423526D01*
X91426569Y-30404365D01*
X91434443Y-30401746D01*
X91460892Y-30389790D01*
X91477846Y-30374698D01*
X91495719Y-30358247D01*
X91523501Y-30340942D01*
X91533726Y-30335923D01*
X91592379Y-30319787D01*
X91657545Y-30319416D01*
X91725051Y-30333292D01*
G36*
X89592184Y-25304600D02*
G01*
X89625397Y-25319552D01*
X89649996Y-25341513D01*
X89660353Y-25367887D01*
X89660400Y-25369768D01*
X89663249Y-25379733D01*
X89674847Y-25384530D01*
X89699761Y-25385316D01*
X89718820Y-25384559D01*
X89758673Y-25380040D01*
X89796262Y-25371689D01*
X89812802Y-25365870D01*
X89856590Y-25354848D01*
X89895901Y-25363412D01*
X89930576Y-25389856D01*
X89953430Y-25423773D01*
X89960818Y-25461186D01*
X89966039Y-25494181D01*
X89980148Y-25511685D01*
X90006882Y-25516534D01*
X90031012Y-25514485D01*
X90079205Y-25514338D01*
X90115175Y-25529467D01*
X90141440Y-25561158D01*
X90147879Y-25574258D01*
X90157185Y-25598574D01*
X90161745Y-25622039D01*
X90162029Y-25651143D01*
X90158507Y-25692376D01*
X90157254Y-25703840D01*
X90150498Y-25756288D01*
X90141836Y-25812620D01*
X90133079Y-25861113D01*
X90132608Y-25863431D01*
X90123626Y-25908865D01*
X90119403Y-25938579D01*
X90120411Y-25956717D01*
X90127121Y-25967421D01*
X90140003Y-25974834D01*
X90145540Y-25977202D01*
X90172915Y-25997749D01*
X90200849Y-26034906D01*
X90227458Y-26085113D01*
X90250862Y-26144807D01*
X90269179Y-26210426D01*
X90269495Y-26211840D01*
X90273911Y-26244201D01*
X90277023Y-26293241D01*
X90278857Y-26355361D01*
X90279438Y-26426962D01*
X90278792Y-26504446D01*
X90276944Y-26584214D01*
X90273920Y-26662668D01*
X90269743Y-26736210D01*
X90265419Y-26790960D01*
X90260101Y-26860377D01*
X90255596Y-26941254D01*
X90252306Y-27024738D01*
X90250629Y-27101973D01*
X90250504Y-27121160D01*
X90249730Y-27195247D01*
X90247365Y-27256378D01*
X90242750Y-27311895D01*
X90235222Y-27369139D01*
X90224122Y-27435453D01*
X90220321Y-27456440D01*
X90208884Y-27521007D01*
X90197752Y-27587594D01*
X90187973Y-27649679D01*
X90180596Y-27700741D01*
X90178686Y-27715520D01*
X90171968Y-27761220D01*
X90161723Y-27820021D01*
X90149189Y-27885269D01*
X90135607Y-27950312D01*
X90131349Y-27969520D01*
X90116932Y-28035098D01*
X90102205Y-28104784D01*
X90088683Y-28171237D01*
X90077883Y-28227113D01*
X90075751Y-28238760D01*
X90065143Y-28295624D01*
X90054374Y-28348194D01*
X90042578Y-28399655D01*
X90028883Y-28453192D01*
X90012420Y-28511988D01*
X89992320Y-28579230D01*
X89967713Y-28658100D01*
X89937730Y-28751785D01*
X89924568Y-28792480D01*
X89872815Y-28945266D01*
X89822278Y-29079729D01*
X89771972Y-29197746D01*
X89720915Y-29301196D01*
X89668121Y-29391954D01*
X89612606Y-29471899D01*
X89553385Y-29542909D01*
X89505350Y-29592001D01*
X89449179Y-29642947D01*
X89384830Y-29696853D01*
X89317201Y-29749944D01*
X89251190Y-29798450D01*
X89191694Y-29838596D01*
X89161217Y-29857070D01*
X89123290Y-29877085D01*
X89070889Y-29902478D01*
X89008482Y-29931273D01*
X88940537Y-29961494D01*
X88871524Y-29991167D01*
X88805911Y-30018316D01*
X88748166Y-30040966D01*
X88729735Y-30047794D01*
X88529590Y-30109877D01*
X88326708Y-30151850D01*
X88120713Y-30173768D01*
X87911226Y-30175687D01*
X87867160Y-30173578D01*
X87811346Y-30169708D01*
X87755409Y-30164712D01*
X87706710Y-30159302D01*
X87678647Y-30155283D01*
X87643424Y-30150357D01*
X87593950Y-30144825D01*
X87536259Y-30139299D01*
X87476383Y-30134391D01*
X87463985Y-30133489D01*
X87378511Y-30126179D01*
X87308807Y-30117072D01*
X87250337Y-30105187D01*
X87198567Y-30089546D01*
X87148963Y-30069168D01*
X87134423Y-30062275D01*
X87075562Y-30028494D01*
X87025503Y-29987287D01*
X86979907Y-29934418D01*
X86936713Y-29869440D01*
X86896177Y-29800674D01*
X86865192Y-29743335D01*
X86841473Y-29692332D01*
X86822737Y-29642573D01*
X86806700Y-29588967D01*
X86803209Y-29575603D01*
X86962423Y-29575603D01*
X86963377Y-29591367D01*
X86975266Y-29622179D01*
X86997320Y-29666480D01*
X87028768Y-29722707D01*
X87064194Y-29781776D01*
X87094921Y-29827074D01*
X87127242Y-29863562D01*
X87163815Y-29892288D01*
X87207296Y-29914302D01*
X87260343Y-29930651D01*
X87325612Y-29942385D01*
X87405761Y-29950551D01*
X87503447Y-29956200D01*
X87506480Y-29956333D01*
X87566226Y-29959272D01*
X87623606Y-29962702D01*
X87673331Y-29966262D01*
X87710110Y-29969597D01*
X87719840Y-29970764D01*
X87747710Y-29973223D01*
X87791596Y-29975504D01*
X87847195Y-29977455D01*
X87910204Y-29978927D01*
X87976317Y-29979767D01*
X87976548Y-29979769D01*
X88061414Y-29979754D01*
X88131262Y-29978170D01*
X88191352Y-29974715D01*
X88246948Y-29969090D01*
X88301870Y-29961228D01*
X88437494Y-29934396D01*
X88576876Y-29896481D01*
X88723126Y-29846485D01*
X88879352Y-29783409D01*
X88942486Y-29755575D01*
X89004338Y-29727025D01*
X89054166Y-29701880D01*
X89098238Y-29676410D01*
X89142819Y-29646886D01*
X89194177Y-29609578D01*
X89218440Y-29591323D01*
X89288220Y-29535900D01*
X89348941Y-29481271D01*
X89402996Y-29424322D01*
X89452777Y-29361935D01*
X89500674Y-29290994D01*
X89549080Y-29208385D01*
X89600386Y-29110990D01*
X89624953Y-29061720D01*
X89661405Y-28981720D01*
X89700152Y-28886238D01*
X89739725Y-28779760D01*
X89778652Y-28666771D01*
X89815465Y-28551759D01*
X89848693Y-28439208D01*
X89876866Y-28333604D01*
X89898516Y-28239435D01*
X89904598Y-28208280D01*
X89916650Y-28144056D01*
X89929147Y-28079878D01*
X89940970Y-28021338D01*
X89950997Y-27974031D01*
X89955469Y-27954280D01*
X89963822Y-27914146D01*
X89973532Y-27860070D01*
X89983556Y-27798287D01*
X89992847Y-27735031D01*
X89995451Y-27715827D01*
X90004587Y-27648930D01*
X90014833Y-27577220D01*
X90025042Y-27508524D01*
X90034072Y-27450667D01*
X90035566Y-27441507D01*
X90042988Y-27384383D01*
X90049673Y-27308383D01*
X90055566Y-27214943D01*
X90060613Y-27105494D01*
X90064758Y-26981471D01*
X90067947Y-26844307D01*
X90070125Y-26695436D01*
X90071237Y-26536291D01*
X90071320Y-26506480D01*
X90071359Y-26425684D01*
X90070980Y-26362599D01*
X90070029Y-26314616D01*
X90068350Y-26279126D01*
X90065790Y-26253522D01*
X90062193Y-26235195D01*
X90057404Y-26221536D01*
X90053990Y-26214673D01*
X90040502Y-26193509D01*
X90027800Y-26187312D01*
X90009045Y-26192232D01*
X89967652Y-26197951D01*
X89927722Y-26183943D01*
X89896020Y-26156618D01*
X89876610Y-26136264D01*
X89862919Y-26129404D01*
X89848157Y-26133516D01*
X89842254Y-26136651D01*
X89827263Y-26146303D01*
X89829821Y-26150100D01*
X89836121Y-26150519D01*
X89861495Y-26159916D01*
X89884809Y-26182718D01*
X89900595Y-26212299D01*
X89904240Y-26233075D01*
X89901566Y-26255037D01*
X89894270Y-26291584D01*
X89883436Y-26337800D01*
X89870147Y-26388769D01*
X89868831Y-26393557D01*
X89847696Y-26481041D01*
X89829857Y-26575900D01*
X89818633Y-26657090D01*
X89810313Y-26722304D01*
X89799207Y-26794342D01*
X89786891Y-26863573D01*
X89777084Y-26911090D01*
X89759037Y-26984288D01*
X89734998Y-27071679D01*
X89706452Y-27168564D01*
X89674882Y-27270240D01*
X89641771Y-27372007D01*
X89608602Y-27469163D01*
X89576859Y-27557008D01*
X89556918Y-27608840D01*
X89525053Y-27685128D01*
X89487761Y-27767966D01*
X89447127Y-27853211D01*
X89405237Y-27936721D01*
X89364177Y-28014353D01*
X89326032Y-28081966D01*
X89292889Y-28135417D01*
X89288482Y-28141951D01*
X89212430Y-28252555D01*
X89145819Y-28348106D01*
X89087170Y-28430686D01*
X89035001Y-28502374D01*
X88987831Y-28565253D01*
X88979680Y-28575898D01*
X88943197Y-28623701D01*
X88906563Y-28672256D01*
X88873887Y-28716083D01*
X88849280Y-28749701D01*
X88848021Y-28751454D01*
X88820574Y-28785647D01*
X88780737Y-28829855D01*
X88731669Y-28881006D01*
X88676529Y-28936031D01*
X88618475Y-28991861D01*
X88560665Y-29045428D01*
X88506259Y-29093660D01*
X88458415Y-29133489D01*
X88440899Y-29147078D01*
X88290888Y-29248761D01*
X88125474Y-29339755D01*
X87947325Y-29418665D01*
X87858035Y-29451853D01*
X87808731Y-29468942D01*
X87767846Y-29482456D01*
X87731461Y-29493249D01*
X87695655Y-29502175D01*
X87656506Y-29510089D01*
X87610095Y-29517847D01*
X87552500Y-29526303D01*
X87479802Y-29536312D01*
X87455680Y-29539581D01*
X87348730Y-29552701D01*
X87255394Y-29561038D01*
X87169650Y-29565048D01*
X87113364Y-29565540D01*
X87048884Y-29565946D01*
X87001420Y-29567968D01*
X86972121Y-29571530D01*
X86962423Y-29575603D01*
X86803209Y-29575603D01*
X86800863Y-29566625D01*
X86785413Y-29499080D01*
X86777401Y-29444407D01*
X86776571Y-29396668D01*
X86779507Y-29374156D01*
X86931199Y-29374156D01*
X86940458Y-29383825D01*
X86957806Y-29388357D01*
X86981289Y-29395337D01*
X86994211Y-29403392D01*
X87008696Y-29409388D01*
X87041447Y-29412015D01*
X87090708Y-29411371D01*
X87154722Y-29407552D01*
X87231734Y-29400656D01*
X87319986Y-29390780D01*
X87394029Y-29381270D01*
X87480934Y-29369314D01*
X87551400Y-29358926D01*
X87609167Y-29349273D01*
X87657972Y-29339522D01*
X87701555Y-29328839D01*
X87743656Y-29316391D01*
X87788012Y-29301346D01*
X87838363Y-29282871D01*
X87842245Y-29281414D01*
X87971841Y-29229310D01*
X88087543Y-29174814D01*
X88193771Y-29115111D01*
X88294943Y-29047386D01*
X88395479Y-28968822D01*
X88499799Y-28876603D01*
X88545850Y-28833077D01*
X88632802Y-28744847D01*
X88701934Y-28664421D01*
X88736635Y-28617266D01*
X88771441Y-28567171D01*
X88812333Y-28509839D01*
X88852967Y-28454111D01*
X88873380Y-28426720D01*
X88930136Y-28348973D01*
X88990713Y-28261773D01*
X89052243Y-28169564D01*
X89111853Y-28076788D01*
X89166676Y-27987887D01*
X89213840Y-27907305D01*
X89241375Y-27857065D01*
X89311993Y-27713650D01*
X89380796Y-27555899D01*
X89445572Y-27389789D01*
X89504107Y-27221299D01*
X89554187Y-27056408D01*
X89590925Y-26912880D01*
X89617432Y-26762440D01*
X89629568Y-26633480D01*
X89637011Y-26545950D01*
X89648641Y-26464237D01*
X89665767Y-26381569D01*
X89689697Y-26291169D01*
X89706539Y-26234700D01*
X89706980Y-26216601D01*
X89695995Y-26211761D01*
X89677831Y-26220509D01*
X89666026Y-26231556D01*
X89647811Y-26243743D01*
X89619271Y-26255460D01*
X89587828Y-26264509D01*
X89560904Y-26268691D01*
X89547115Y-26266778D01*
X89533577Y-26262375D01*
X89507345Y-26256242D01*
X89490898Y-26252926D01*
X89441559Y-26249979D01*
X89401568Y-26260494D01*
X89373923Y-26283114D01*
X89362293Y-26311289D01*
X89351766Y-26341845D01*
X89333354Y-26372374D01*
X89330775Y-26375568D01*
X89314078Y-26398474D01*
X89305227Y-26416587D01*
X89304800Y-26419444D01*
X89301361Y-26433072D01*
X89291883Y-26462038D01*
X89277622Y-26502714D01*
X89259833Y-26551474D01*
X89249657Y-26578684D01*
X89226574Y-26642487D01*
X89202990Y-26712105D01*
X89181476Y-26779683D01*
X89164603Y-26837365D01*
X89162752Y-26844224D01*
X89145585Y-26905628D01*
X89127902Y-26961351D01*
X89107744Y-27016572D01*
X89083147Y-27076468D01*
X89052152Y-27146216D01*
X89030910Y-27192280D01*
X89007338Y-27244345D01*
X88980835Y-27305070D01*
X88955853Y-27364186D01*
X88947188Y-27385320D01*
X88924788Y-27437948D01*
X88895563Y-27502610D01*
X88861071Y-27576188D01*
X88822872Y-27655568D01*
X88782525Y-27737634D01*
X88741590Y-27819270D01*
X88701624Y-27897361D01*
X88664188Y-27968791D01*
X88630840Y-28030444D01*
X88603140Y-28079206D01*
X88586198Y-28106680D01*
X88506306Y-28212693D01*
X88412488Y-28308076D01*
X88302229Y-28395287D01*
X88265993Y-28419945D01*
X88217855Y-28450546D01*
X88154967Y-28488847D01*
X88080531Y-28533027D01*
X87997749Y-28581266D01*
X87909823Y-28631745D01*
X87819955Y-28682642D01*
X87731346Y-28732137D01*
X87647200Y-28778410D01*
X87570717Y-28819641D01*
X87505100Y-28854009D01*
X87480761Y-28866355D01*
X87363662Y-28929533D01*
X87257494Y-28995983D01*
X87163654Y-29064458D01*
X87083543Y-29133711D01*
X87018559Y-29202495D01*
X86970101Y-29269563D01*
X86939567Y-29333668D01*
X86933648Y-29354024D01*
X86931199Y-29374156D01*
X86779507Y-29374156D01*
X86782667Y-29349930D01*
X86790115Y-29317683D01*
X86806570Y-29264603D01*
X86827987Y-29216642D01*
X86856989Y-29169717D01*
X86896196Y-29119743D01*
X86948230Y-29062638D01*
X86964870Y-29045415D01*
X87006704Y-29003372D01*
X87045125Y-28967165D01*
X87083086Y-28934704D01*
X87123541Y-28903895D01*
X87169443Y-28872650D01*
X87223744Y-28838875D01*
X87289398Y-28800482D01*
X87369358Y-28755377D01*
X87393243Y-28742077D01*
X87457596Y-28705984D01*
X87523735Y-28668316D01*
X87586730Y-28631921D01*
X87641650Y-28599649D01*
X87682803Y-28574816D01*
X87729616Y-28546356D01*
X87787765Y-28511653D01*
X87850895Y-28474466D01*
X87912651Y-28438552D01*
X87933200Y-28426729D01*
X88040343Y-28363972D01*
X88131136Y-28307593D01*
X88207823Y-28255774D01*
X88272648Y-28206699D01*
X88327855Y-28158551D01*
X88375687Y-28109514D01*
X88418390Y-28057770D01*
X88457960Y-28001876D01*
X88479174Y-27967147D01*
X88507190Y-27917309D01*
X88540320Y-27855716D01*
X88576878Y-27785722D01*
X88615179Y-27710681D01*
X88653535Y-27633947D01*
X88690260Y-27558874D01*
X88723669Y-27488815D01*
X88752074Y-27427125D01*
X88773790Y-27377157D01*
X88780726Y-27359920D01*
X88795420Y-27323951D01*
X88816520Y-27274844D01*
X88841728Y-27217821D01*
X88868750Y-27158106D01*
X88883445Y-27126240D01*
X88917936Y-27050306D01*
X88945200Y-26985473D01*
X88967647Y-26924954D01*
X88987690Y-26861961D01*
X89007741Y-26789706D01*
X89020181Y-26741449D01*
X89032570Y-26700389D01*
X89051505Y-26647214D01*
X89074648Y-26588083D01*
X89099664Y-26529156D01*
X89106193Y-26514614D01*
X89170675Y-26372850D01*
X89131932Y-26289805D01*
X89098514Y-26211290D01*
X89064377Y-26118532D01*
X89031524Y-26017423D01*
X89001957Y-25913857D01*
X88994924Y-25886739D01*
X88982071Y-25832546D01*
X88969187Y-25772068D01*
X88956871Y-25708870D01*
X88945722Y-25646515D01*
X88936338Y-25588569D01*
X88929317Y-25538595D01*
X88925258Y-25500158D01*
X88924758Y-25476821D01*
X88925481Y-25473029D01*
X88936510Y-25453558D01*
X88955059Y-25429861D01*
X88957670Y-25426980D01*
X88990661Y-25405048D01*
X89030960Y-25398098D01*
X89071787Y-25406471D01*
X89095149Y-25420097D01*
X89113431Y-25432765D01*
X89120965Y-25432075D01*
X89121920Y-25425655D01*
X89131166Y-25389352D01*
X89155284Y-25357467D01*
X89188846Y-25335266D01*
X89222661Y-25327920D01*
X89242822Y-25334327D01*
X89268378Y-25350341D01*
X89276506Y-25356942D01*
X89298838Y-25374705D01*
X89315610Y-25380467D01*
X89335886Y-25376333D01*
X89345440Y-25372955D01*
X89381965Y-25363064D01*
X89416299Y-25359556D01*
X89442298Y-25362634D01*
X89452641Y-25369404D01*
X89461706Y-25369470D01*
X89475669Y-25353522D01*
X89478617Y-25348876D01*
X89498646Y-25324049D01*
X89521133Y-25306741D01*
X89522439Y-25306116D01*
X89555988Y-25299256D01*
X89592184Y-25304600D01*
G37*
X89592184Y-25304600D02*
X89625397Y-25319552D01*
X89649996Y-25341513D01*
X89660353Y-25367887D01*
X89660400Y-25369768D01*
X89663249Y-25379733D01*
X89674847Y-25384530D01*
X89699761Y-25385316D01*
X89718820Y-25384559D01*
X89758673Y-25380040D01*
X89796262Y-25371689D01*
X89812802Y-25365870D01*
X89856590Y-25354848D01*
X89895901Y-25363412D01*
X89930576Y-25389856D01*
X89953430Y-25423773D01*
X89960818Y-25461186D01*
X89966039Y-25494181D01*
X89980148Y-25511685D01*
X90006882Y-25516534D01*
X90031012Y-25514485D01*
X90079205Y-25514338D01*
X90115175Y-25529467D01*
X90141440Y-25561158D01*
X90147879Y-25574258D01*
X90157185Y-25598574D01*
X90161745Y-25622039D01*
X90162029Y-25651143D01*
X90158507Y-25692376D01*
X90157254Y-25703840D01*
X90150498Y-25756288D01*
X90141836Y-25812620D01*
X90133079Y-25861113D01*
X90132608Y-25863431D01*
X90123626Y-25908865D01*
X90119403Y-25938579D01*
X90120411Y-25956717D01*
X90127121Y-25967421D01*
X90140003Y-25974834D01*
X90145540Y-25977202D01*
X90172915Y-25997749D01*
X90200849Y-26034906D01*
X90227458Y-26085113D01*
X90250862Y-26144807D01*
X90269179Y-26210426D01*
X90269495Y-26211840D01*
X90273911Y-26244201D01*
X90277023Y-26293241D01*
X90278857Y-26355361D01*
X90279438Y-26426962D01*
X90278792Y-26504446D01*
X90276944Y-26584214D01*
X90273920Y-26662668D01*
X90269743Y-26736210D01*
X90265419Y-26790960D01*
X90260101Y-26860377D01*
X90255596Y-26941254D01*
X90252306Y-27024738D01*
X90250629Y-27101973D01*
X90250504Y-27121160D01*
X90249730Y-27195247D01*
X90247365Y-27256378D01*
X90242750Y-27311895D01*
X90235222Y-27369139D01*
X90224122Y-27435453D01*
X90220321Y-27456440D01*
X90208884Y-27521007D01*
X90197752Y-27587594D01*
X90187973Y-27649679D01*
X90180596Y-27700741D01*
X90178686Y-27715520D01*
X90171968Y-27761220D01*
X90161723Y-27820021D01*
X90149189Y-27885269D01*
X90135607Y-27950312D01*
X90131349Y-27969520D01*
X90116932Y-28035098D01*
X90102205Y-28104784D01*
X90088683Y-28171237D01*
X90077883Y-28227113D01*
X90075751Y-28238760D01*
X90065143Y-28295624D01*
X90054374Y-28348194D01*
X90042578Y-28399655D01*
X90028883Y-28453192D01*
X90012420Y-28511988D01*
X89992320Y-28579230D01*
X89967713Y-28658100D01*
X89937730Y-28751785D01*
X89924568Y-28792480D01*
X89872815Y-28945266D01*
X89822278Y-29079729D01*
X89771972Y-29197746D01*
X89720915Y-29301196D01*
X89668121Y-29391954D01*
X89612606Y-29471899D01*
X89553385Y-29542909D01*
X89505350Y-29592001D01*
X89449179Y-29642947D01*
X89384830Y-29696853D01*
X89317201Y-29749944D01*
X89251190Y-29798450D01*
X89191694Y-29838596D01*
X89161217Y-29857070D01*
X89123290Y-29877085D01*
X89070889Y-29902478D01*
X89008482Y-29931273D01*
X88940537Y-29961494D01*
X88871524Y-29991167D01*
X88805911Y-30018316D01*
X88748166Y-30040966D01*
X88729735Y-30047794D01*
X88529590Y-30109877D01*
X88326708Y-30151850D01*
X88120713Y-30173768D01*
X87911226Y-30175687D01*
X87867160Y-30173578D01*
X87811346Y-30169708D01*
X87755409Y-30164712D01*
X87706710Y-30159302D01*
X87678647Y-30155283D01*
X87643424Y-30150357D01*
X87593950Y-30144825D01*
X87536259Y-30139299D01*
X87476383Y-30134391D01*
X87463985Y-30133489D01*
X87378511Y-30126179D01*
X87308807Y-30117072D01*
X87250337Y-30105187D01*
X87198567Y-30089546D01*
X87148963Y-30069168D01*
X87134423Y-30062275D01*
X87075562Y-30028494D01*
X87025503Y-29987287D01*
X86979907Y-29934418D01*
X86936713Y-29869440D01*
X86896177Y-29800674D01*
X86865192Y-29743335D01*
X86841473Y-29692332D01*
X86822737Y-29642573D01*
X86806700Y-29588967D01*
X86803209Y-29575603D01*
X86962423Y-29575603D01*
X86963377Y-29591367D01*
X86975266Y-29622179D01*
X86997320Y-29666480D01*
X87028768Y-29722707D01*
X87064194Y-29781776D01*
X87094921Y-29827074D01*
X87127242Y-29863562D01*
X87163815Y-29892288D01*
X87207296Y-29914302D01*
X87260343Y-29930651D01*
X87325612Y-29942385D01*
X87405761Y-29950551D01*
X87503447Y-29956200D01*
X87506480Y-29956333D01*
X87566226Y-29959272D01*
X87623606Y-29962702D01*
X87673331Y-29966262D01*
X87710110Y-29969597D01*
X87719840Y-29970764D01*
X87747710Y-29973223D01*
X87791596Y-29975504D01*
X87847195Y-29977455D01*
X87910204Y-29978927D01*
X87976317Y-29979767D01*
X87976548Y-29979769D01*
X88061414Y-29979754D01*
X88131262Y-29978170D01*
X88191352Y-29974715D01*
X88246948Y-29969090D01*
X88301870Y-29961228D01*
X88437494Y-29934396D01*
X88576876Y-29896481D01*
X88723126Y-29846485D01*
X88879352Y-29783409D01*
X88942486Y-29755575D01*
X89004338Y-29727025D01*
X89054166Y-29701880D01*
X89098238Y-29676410D01*
X89142819Y-29646886D01*
X89194177Y-29609578D01*
X89218440Y-29591323D01*
X89288220Y-29535900D01*
X89348941Y-29481271D01*
X89402996Y-29424322D01*
X89452777Y-29361935D01*
X89500674Y-29290994D01*
X89549080Y-29208385D01*
X89600386Y-29110990D01*
X89624953Y-29061720D01*
X89661405Y-28981720D01*
X89700152Y-28886238D01*
X89739725Y-28779760D01*
X89778652Y-28666771D01*
X89815465Y-28551759D01*
X89848693Y-28439208D01*
X89876866Y-28333604D01*
X89898516Y-28239435D01*
X89904598Y-28208280D01*
X89916650Y-28144056D01*
X89929147Y-28079878D01*
X89940970Y-28021338D01*
X89950997Y-27974031D01*
X89955469Y-27954280D01*
X89963822Y-27914146D01*
X89973532Y-27860070D01*
X89983556Y-27798287D01*
X89992847Y-27735031D01*
X89995451Y-27715827D01*
X90004587Y-27648930D01*
X90014833Y-27577220D01*
X90025042Y-27508524D01*
X90034072Y-27450667D01*
X90035566Y-27441507D01*
X90042988Y-27384383D01*
X90049673Y-27308383D01*
X90055566Y-27214943D01*
X90060613Y-27105494D01*
X90064758Y-26981471D01*
X90067947Y-26844307D01*
X90070125Y-26695436D01*
X90071237Y-26536291D01*
X90071320Y-26506480D01*
X90071359Y-26425684D01*
X90070980Y-26362599D01*
X90070029Y-26314616D01*
X90068350Y-26279126D01*
X90065790Y-26253522D01*
X90062193Y-26235195D01*
X90057404Y-26221536D01*
X90053990Y-26214673D01*
X90040502Y-26193509D01*
X90027800Y-26187312D01*
X90009045Y-26192232D01*
X89967652Y-26197951D01*
X89927722Y-26183943D01*
X89896020Y-26156618D01*
X89876610Y-26136264D01*
X89862919Y-26129404D01*
X89848157Y-26133516D01*
X89842254Y-26136651D01*
X89827263Y-26146303D01*
X89829821Y-26150100D01*
X89836121Y-26150519D01*
X89861495Y-26159916D01*
X89884809Y-26182718D01*
X89900595Y-26212299D01*
X89904240Y-26233075D01*
X89901566Y-26255037D01*
X89894270Y-26291584D01*
X89883436Y-26337800D01*
X89870147Y-26388769D01*
X89868831Y-26393557D01*
X89847696Y-26481041D01*
X89829857Y-26575900D01*
X89818633Y-26657090D01*
X89810313Y-26722304D01*
X89799207Y-26794342D01*
X89786891Y-26863573D01*
X89777084Y-26911090D01*
X89759037Y-26984288D01*
X89734998Y-27071679D01*
X89706452Y-27168564D01*
X89674882Y-27270240D01*
X89641771Y-27372007D01*
X89608602Y-27469163D01*
X89576859Y-27557008D01*
X89556918Y-27608840D01*
X89525053Y-27685128D01*
X89487761Y-27767966D01*
X89447127Y-27853211D01*
X89405237Y-27936721D01*
X89364177Y-28014353D01*
X89326032Y-28081966D01*
X89292889Y-28135417D01*
X89288482Y-28141951D01*
X89212430Y-28252555D01*
X89145819Y-28348106D01*
X89087170Y-28430686D01*
X89035001Y-28502374D01*
X88987831Y-28565253D01*
X88979680Y-28575898D01*
X88943197Y-28623701D01*
X88906563Y-28672256D01*
X88873887Y-28716083D01*
X88849280Y-28749701D01*
X88848021Y-28751454D01*
X88820574Y-28785647D01*
X88780737Y-28829855D01*
X88731669Y-28881006D01*
X88676529Y-28936031D01*
X88618475Y-28991861D01*
X88560665Y-29045428D01*
X88506259Y-29093660D01*
X88458415Y-29133489D01*
X88440899Y-29147078D01*
X88290888Y-29248761D01*
X88125474Y-29339755D01*
X87947325Y-29418665D01*
X87858035Y-29451853D01*
X87808731Y-29468942D01*
X87767846Y-29482456D01*
X87731461Y-29493249D01*
X87695655Y-29502175D01*
X87656506Y-29510089D01*
X87610095Y-29517847D01*
X87552500Y-29526303D01*
X87479802Y-29536312D01*
X87455680Y-29539581D01*
X87348730Y-29552701D01*
X87255394Y-29561038D01*
X87169650Y-29565048D01*
X87113364Y-29565540D01*
X87048884Y-29565946D01*
X87001420Y-29567968D01*
X86972121Y-29571530D01*
X86962423Y-29575603D01*
X86803209Y-29575603D01*
X86800863Y-29566625D01*
X86785413Y-29499080D01*
X86777401Y-29444407D01*
X86776571Y-29396668D01*
X86779507Y-29374156D01*
X86931199Y-29374156D01*
X86940458Y-29383825D01*
X86957806Y-29388357D01*
X86981289Y-29395337D01*
X86994211Y-29403392D01*
X87008696Y-29409388D01*
X87041447Y-29412015D01*
X87090708Y-29411371D01*
X87154722Y-29407552D01*
X87231734Y-29400656D01*
X87319986Y-29390780D01*
X87394029Y-29381270D01*
X87480934Y-29369314D01*
X87551400Y-29358926D01*
X87609167Y-29349273D01*
X87657972Y-29339522D01*
X87701555Y-29328839D01*
X87743656Y-29316391D01*
X87788012Y-29301346D01*
X87838363Y-29282871D01*
X87842245Y-29281414D01*
X87971841Y-29229310D01*
X88087543Y-29174814D01*
X88193771Y-29115111D01*
X88294943Y-29047386D01*
X88395479Y-28968822D01*
X88499799Y-28876603D01*
X88545850Y-28833077D01*
X88632802Y-28744847D01*
X88701934Y-28664421D01*
X88736635Y-28617266D01*
X88771441Y-28567171D01*
X88812333Y-28509839D01*
X88852967Y-28454111D01*
X88873380Y-28426720D01*
X88930136Y-28348973D01*
X88990713Y-28261773D01*
X89052243Y-28169564D01*
X89111853Y-28076788D01*
X89166676Y-27987887D01*
X89213840Y-27907305D01*
X89241375Y-27857065D01*
X89311993Y-27713650D01*
X89380796Y-27555899D01*
X89445572Y-27389789D01*
X89504107Y-27221299D01*
X89554187Y-27056408D01*
X89590925Y-26912880D01*
X89617432Y-26762440D01*
X89629568Y-26633480D01*
X89637011Y-26545950D01*
X89648641Y-26464237D01*
X89665767Y-26381569D01*
X89689697Y-26291169D01*
X89706539Y-26234700D01*
X89706980Y-26216601D01*
X89695995Y-26211761D01*
X89677831Y-26220509D01*
X89666026Y-26231556D01*
X89647811Y-26243743D01*
X89619271Y-26255460D01*
X89587828Y-26264509D01*
X89560904Y-26268691D01*
X89547115Y-26266778D01*
X89533577Y-26262375D01*
X89507345Y-26256242D01*
X89490898Y-26252926D01*
X89441559Y-26249979D01*
X89401568Y-26260494D01*
X89373923Y-26283114D01*
X89362293Y-26311289D01*
X89351766Y-26341845D01*
X89333354Y-26372374D01*
X89330775Y-26375568D01*
X89314078Y-26398474D01*
X89305227Y-26416587D01*
X89304800Y-26419444D01*
X89301361Y-26433072D01*
X89291883Y-26462038D01*
X89277622Y-26502714D01*
X89259833Y-26551474D01*
X89249657Y-26578684D01*
X89226574Y-26642487D01*
X89202990Y-26712105D01*
X89181476Y-26779683D01*
X89164603Y-26837365D01*
X89162752Y-26844224D01*
X89145585Y-26905628D01*
X89127902Y-26961351D01*
X89107744Y-27016572D01*
X89083147Y-27076468D01*
X89052152Y-27146216D01*
X89030910Y-27192280D01*
X89007338Y-27244345D01*
X88980835Y-27305070D01*
X88955853Y-27364186D01*
X88947188Y-27385320D01*
X88924788Y-27437948D01*
X88895563Y-27502610D01*
X88861071Y-27576188D01*
X88822872Y-27655568D01*
X88782525Y-27737634D01*
X88741590Y-27819270D01*
X88701624Y-27897361D01*
X88664188Y-27968791D01*
X88630840Y-28030444D01*
X88603140Y-28079206D01*
X88586198Y-28106680D01*
X88506306Y-28212693D01*
X88412488Y-28308076D01*
X88302229Y-28395287D01*
X88265993Y-28419945D01*
X88217855Y-28450546D01*
X88154967Y-28488847D01*
X88080531Y-28533027D01*
X87997749Y-28581266D01*
X87909823Y-28631745D01*
X87819955Y-28682642D01*
X87731346Y-28732137D01*
X87647200Y-28778410D01*
X87570717Y-28819641D01*
X87505100Y-28854009D01*
X87480761Y-28866355D01*
X87363662Y-28929533D01*
X87257494Y-28995983D01*
X87163654Y-29064458D01*
X87083543Y-29133711D01*
X87018559Y-29202495D01*
X86970101Y-29269563D01*
X86939567Y-29333668D01*
X86933648Y-29354024D01*
X86931199Y-29374156D01*
X86779507Y-29374156D01*
X86782667Y-29349930D01*
X86790115Y-29317683D01*
X86806570Y-29264603D01*
X86827987Y-29216642D01*
X86856989Y-29169717D01*
X86896196Y-29119743D01*
X86948230Y-29062638D01*
X86964870Y-29045415D01*
X87006704Y-29003372D01*
X87045125Y-28967165D01*
X87083086Y-28934704D01*
X87123541Y-28903895D01*
X87169443Y-28872650D01*
X87223744Y-28838875D01*
X87289398Y-28800482D01*
X87369358Y-28755377D01*
X87393243Y-28742077D01*
X87457596Y-28705984D01*
X87523735Y-28668316D01*
X87586730Y-28631921D01*
X87641650Y-28599649D01*
X87682803Y-28574816D01*
X87729616Y-28546356D01*
X87787765Y-28511653D01*
X87850895Y-28474466D01*
X87912651Y-28438552D01*
X87933200Y-28426729D01*
X88040343Y-28363972D01*
X88131136Y-28307593D01*
X88207823Y-28255774D01*
X88272648Y-28206699D01*
X88327855Y-28158551D01*
X88375687Y-28109514D01*
X88418390Y-28057770D01*
X88457960Y-28001876D01*
X88479174Y-27967147D01*
X88507190Y-27917309D01*
X88540320Y-27855716D01*
X88576878Y-27785722D01*
X88615179Y-27710681D01*
X88653535Y-27633947D01*
X88690260Y-27558874D01*
X88723669Y-27488815D01*
X88752074Y-27427125D01*
X88773790Y-27377157D01*
X88780726Y-27359920D01*
X88795420Y-27323951D01*
X88816520Y-27274844D01*
X88841728Y-27217821D01*
X88868750Y-27158106D01*
X88883445Y-27126240D01*
X88917936Y-27050306D01*
X88945200Y-26985473D01*
X88967647Y-26924954D01*
X88987690Y-26861961D01*
X89007741Y-26789706D01*
X89020181Y-26741449D01*
X89032570Y-26700389D01*
X89051505Y-26647214D01*
X89074648Y-26588083D01*
X89099664Y-26529156D01*
X89106193Y-26514614D01*
X89170675Y-26372850D01*
X89131932Y-26289805D01*
X89098514Y-26211290D01*
X89064377Y-26118532D01*
X89031524Y-26017423D01*
X89001957Y-25913857D01*
X88994924Y-25886739D01*
X88982071Y-25832546D01*
X88969187Y-25772068D01*
X88956871Y-25708870D01*
X88945722Y-25646515D01*
X88936338Y-25588569D01*
X88929317Y-25538595D01*
X88925258Y-25500158D01*
X88924758Y-25476821D01*
X88925481Y-25473029D01*
X88936510Y-25453558D01*
X88955059Y-25429861D01*
X88957670Y-25426980D01*
X88990661Y-25405048D01*
X89030960Y-25398098D01*
X89071787Y-25406471D01*
X89095149Y-25420097D01*
X89113431Y-25432765D01*
X89120965Y-25432075D01*
X89121920Y-25425655D01*
X89131166Y-25389352D01*
X89155284Y-25357467D01*
X89188846Y-25335266D01*
X89222661Y-25327920D01*
X89242822Y-25334327D01*
X89268378Y-25350341D01*
X89276506Y-25356942D01*
X89298838Y-25374705D01*
X89315610Y-25380467D01*
X89335886Y-25376333D01*
X89345440Y-25372955D01*
X89381965Y-25363064D01*
X89416299Y-25359556D01*
X89442298Y-25362634D01*
X89452641Y-25369404D01*
X89461706Y-25369470D01*
X89475669Y-25353522D01*
X89478617Y-25348876D01*
X89498646Y-25324049D01*
X89521133Y-25306741D01*
X89522439Y-25306116D01*
X89555988Y-25299256D01*
X89592184Y-25304600D01*
G36*
X85471739Y-22784868D02*
G01*
X85549603Y-22790725D01*
X85611051Y-22801266D01*
X85611640Y-22801413D01*
X85692035Y-22827054D01*
X85770995Y-22862395D01*
X85844940Y-22905056D01*
X85910289Y-22952654D01*
X85963461Y-23002810D01*
X86000875Y-23053141D01*
X86006695Y-23064121D01*
X86038134Y-23150247D01*
X86049874Y-23238062D01*
X86041905Y-23325488D01*
X86014213Y-23410447D01*
X86008794Y-23421960D01*
X85976837Y-23476673D01*
X85930782Y-23540577D01*
X85873068Y-23611058D01*
X85806138Y-23685505D01*
X85732430Y-23761302D01*
X85654387Y-23835837D01*
X85574449Y-23906496D01*
X85499640Y-23967138D01*
X85460412Y-23997749D01*
X85428064Y-24023618D01*
X85405450Y-24042416D01*
X85395424Y-24051810D01*
X85395221Y-24052417D01*
X85405903Y-24052698D01*
X85433137Y-24051889D01*
X85473193Y-24050137D01*
X85522342Y-24047595D01*
X85540520Y-24046573D01*
X85667348Y-24042717D01*
X85777677Y-24047113D01*
X85873828Y-24060353D01*
X85958119Y-24083030D01*
X86032874Y-24115734D01*
X86100411Y-24159058D01*
X86151398Y-24202320D01*
X86205548Y-24267058D01*
X86242771Y-24342723D01*
X86262982Y-24428870D01*
X86266093Y-24525056D01*
X86252020Y-24630838D01*
X86242370Y-24672600D01*
X86204434Y-24790408D01*
X86153036Y-24896897D01*
X86086104Y-24995476D01*
X86001565Y-25089556D01*
X85971504Y-25118298D01*
X85922843Y-25161105D01*
X85874180Y-25198625D01*
X85823323Y-25231689D01*
X85768080Y-25261128D01*
X85706261Y-25287775D01*
X85635673Y-25312459D01*
X85554126Y-25336014D01*
X85459427Y-25359269D01*
X85349385Y-25383057D01*
X85221808Y-25408209D01*
X85192890Y-25413684D01*
X85088326Y-25432490D01*
X85000863Y-25446148D01*
X84928001Y-25454875D01*
X84867240Y-25458884D01*
X84816081Y-25458391D01*
X84772024Y-25453610D01*
X84758200Y-25451042D01*
X84710894Y-25435591D01*
X84667381Y-25411218D01*
X84631784Y-25381312D01*
X84608224Y-25349267D01*
X84600720Y-25321469D01*
X84610268Y-25293316D01*
X84636612Y-25265731D01*
X84676293Y-25240968D01*
X84725858Y-25221283D01*
X84770487Y-25210675D01*
X84801041Y-25204234D01*
X84841293Y-25194165D01*
X84875040Y-25184795D01*
X84902552Y-25178086D01*
X84946798Y-25168918D01*
X85004424Y-25157915D01*
X85072079Y-25145695D01*
X85146410Y-25132881D01*
X85224065Y-25120092D01*
X85227512Y-25119538D01*
X85306841Y-25106400D01*
X85384436Y-25092786D01*
X85456612Y-25079398D01*
X85519688Y-25066939D01*
X85569980Y-25056114D01*
X85603432Y-25047735D01*
X85713381Y-25007348D01*
X85807931Y-24954501D01*
X85886611Y-24889777D01*
X85948951Y-24813758D01*
X85994480Y-24727030D01*
X86022726Y-24630174D01*
X86033221Y-24523775D01*
X86033280Y-24514856D01*
X86033280Y-24431166D01*
X85990076Y-24387962D01*
X85959113Y-24360976D01*
X85925329Y-24341508D01*
X85880678Y-24325097D01*
X85871924Y-24322438D01*
X85821723Y-24309018D01*
X85771007Y-24299024D01*
X85716503Y-24292258D01*
X85654943Y-24288524D01*
X85583056Y-24287626D01*
X85497572Y-24289366D01*
X85395222Y-24293548D01*
X85393200Y-24293645D01*
X85317371Y-24297214D01*
X85258918Y-24299660D01*
X85214918Y-24300885D01*
X85182454Y-24300786D01*
X85158603Y-24299265D01*
X85140448Y-24296220D01*
X85125067Y-24291552D01*
X85109541Y-24285159D01*
X85106450Y-24283794D01*
X85059688Y-24253672D01*
X85029805Y-24212823D01*
X85017583Y-24162390D01*
X85017317Y-24153140D01*
X85020078Y-24118802D01*
X85029349Y-24085154D01*
X85046521Y-24050544D01*
X85072987Y-24013320D01*
X85110135Y-23971828D01*
X85159357Y-23924416D01*
X85222044Y-23869431D01*
X85299586Y-23805221D01*
X85332291Y-23778817D01*
X85405060Y-23718397D01*
X85478079Y-23654134D01*
X85548676Y-23588652D01*
X85614179Y-23524576D01*
X85671915Y-23464531D01*
X85719213Y-23411143D01*
X85753398Y-23367036D01*
X85757176Y-23361464D01*
X85782120Y-23316417D01*
X85790121Y-23278838D01*
X85780756Y-23244361D01*
X85753602Y-23208623D01*
X85741180Y-23196295D01*
X85702642Y-23163697D01*
X85661507Y-23138184D01*
X85612396Y-23117122D01*
X85549929Y-23097875D01*
X85529055Y-23092386D01*
X85467124Y-23081488D01*
X85388773Y-23075587D01*
X85297227Y-23074479D01*
X85195708Y-23077961D01*
X85087440Y-23085828D01*
X84975647Y-23097877D01*
X84863553Y-23113904D01*
X84754380Y-23133705D01*
X84703483Y-23144598D01*
X84608126Y-23166135D01*
X84639005Y-23185686D01*
X84666864Y-23210633D01*
X84688867Y-23247820D01*
X84706333Y-23300081D01*
X84718077Y-23355496D01*
X84741608Y-23486694D01*
X84762918Y-23600868D01*
X84782679Y-23701105D01*
X84801564Y-23790494D01*
X84820244Y-23872123D01*
X84839391Y-23949080D01*
X84859677Y-24024455D01*
X84876368Y-24082914D01*
X84894368Y-24145038D01*
X84913254Y-24210948D01*
X84930872Y-24273082D01*
X84945067Y-24323880D01*
X84945971Y-24327160D01*
X84961414Y-24381877D01*
X84978564Y-24440528D01*
X84994516Y-24493248D01*
X84999777Y-24510040D01*
X85038195Y-24634833D01*
X85068427Y-24741724D01*
X85090621Y-24831343D01*
X85104926Y-24904319D01*
X85111489Y-24961283D01*
X85111793Y-24987560D01*
X85110515Y-25018567D01*
X85109612Y-25041361D01*
X85099146Y-25072375D01*
X85073877Y-25097529D01*
X85039274Y-25112382D01*
X85019512Y-25114560D01*
X84990915Y-25110923D01*
X84966873Y-25097963D01*
X84943847Y-25072602D01*
X84918301Y-25031763D01*
X84912646Y-25021591D01*
X84891793Y-24984726D01*
X84869794Y-24947524D01*
X84862229Y-24935231D01*
X84846721Y-24907693D01*
X84824977Y-24865272D01*
X84798770Y-24811764D01*
X84769873Y-24750961D01*
X84740059Y-24686657D01*
X84711101Y-24622645D01*
X84684772Y-24562718D01*
X84662845Y-24510670D01*
X84656932Y-24496010D01*
X84617708Y-24387221D01*
X84581526Y-24265408D01*
X84547871Y-24128548D01*
X84516226Y-23974617D01*
X84498300Y-23875040D01*
X84489948Y-23816603D01*
X84482873Y-23747911D01*
X84477167Y-23672418D01*
X84472919Y-23593583D01*
X84470221Y-23514860D01*
X84469163Y-23439707D01*
X84469836Y-23371580D01*
X84472332Y-23313935D01*
X84476740Y-23270230D01*
X84481812Y-23247314D01*
X84490590Y-23220836D01*
X84491783Y-23209118D01*
X84484603Y-23207775D01*
X84475190Y-23210352D01*
X84410253Y-23234358D01*
X84334032Y-23270113D01*
X84250254Y-23315674D01*
X84162648Y-23369095D01*
X84130819Y-23389924D01*
X83980959Y-23489829D01*
X83980959Y-23529468D01*
X83972792Y-23573519D01*
X83949804Y-23605521D01*
X83914267Y-23623056D01*
X83890598Y-23625658D01*
X83847172Y-23617079D01*
X83815106Y-23592036D01*
X83795441Y-23551570D01*
X83790551Y-23525596D01*
X83789425Y-23484868D01*
X83797054Y-23447397D01*
X83815250Y-23409846D01*
X83845825Y-23368881D01*
X83890591Y-23321165D01*
X83914010Y-23298358D01*
X84024605Y-23199397D01*
X84135689Y-23114466D01*
X84250375Y-23042025D01*
X84371775Y-22980537D01*
X84503002Y-22928464D01*
X84647169Y-22884267D01*
X84807389Y-22846409D01*
X84843462Y-22839102D01*
X84950954Y-22820228D01*
X85061708Y-22805074D01*
X85172443Y-22793800D01*
X85279879Y-22786567D01*
X85380738Y-22783536D01*
X85471739Y-22784868D01*
G37*
X85471739Y-22784868D02*
X85549603Y-22790725D01*
X85611051Y-22801266D01*
X85611640Y-22801413D01*
X85692035Y-22827054D01*
X85770995Y-22862395D01*
X85844940Y-22905056D01*
X85910289Y-22952654D01*
X85963461Y-23002810D01*
X86000875Y-23053141D01*
X86006695Y-23064121D01*
X86038134Y-23150247D01*
X86049874Y-23238062D01*
X86041905Y-23325488D01*
X86014213Y-23410447D01*
X86008794Y-23421960D01*
X85976837Y-23476673D01*
X85930782Y-23540577D01*
X85873068Y-23611058D01*
X85806138Y-23685505D01*
X85732430Y-23761302D01*
X85654387Y-23835837D01*
X85574449Y-23906496D01*
X85499640Y-23967138D01*
X85460412Y-23997749D01*
X85428064Y-24023618D01*
X85405450Y-24042416D01*
X85395424Y-24051810D01*
X85395221Y-24052417D01*
X85405903Y-24052698D01*
X85433137Y-24051889D01*
X85473193Y-24050137D01*
X85522342Y-24047595D01*
X85540520Y-24046573D01*
X85667348Y-24042717D01*
X85777677Y-24047113D01*
X85873828Y-24060353D01*
X85958119Y-24083030D01*
X86032874Y-24115734D01*
X86100411Y-24159058D01*
X86151398Y-24202320D01*
X86205548Y-24267058D01*
X86242771Y-24342723D01*
X86262982Y-24428870D01*
X86266093Y-24525056D01*
X86252020Y-24630838D01*
X86242370Y-24672600D01*
X86204434Y-24790408D01*
X86153036Y-24896897D01*
X86086104Y-24995476D01*
X86001565Y-25089556D01*
X85971504Y-25118298D01*
X85922843Y-25161105D01*
X85874180Y-25198625D01*
X85823323Y-25231689D01*
X85768080Y-25261128D01*
X85706261Y-25287775D01*
X85635673Y-25312459D01*
X85554126Y-25336014D01*
X85459427Y-25359269D01*
X85349385Y-25383057D01*
X85221808Y-25408209D01*
X85192890Y-25413684D01*
X85088326Y-25432490D01*
X85000863Y-25446148D01*
X84928001Y-25454875D01*
X84867240Y-25458884D01*
X84816081Y-25458391D01*
X84772024Y-25453610D01*
X84758200Y-25451042D01*
X84710894Y-25435591D01*
X84667381Y-25411218D01*
X84631784Y-25381312D01*
X84608224Y-25349267D01*
X84600720Y-25321469D01*
X84610268Y-25293316D01*
X84636612Y-25265731D01*
X84676293Y-25240968D01*
X84725858Y-25221283D01*
X84770487Y-25210675D01*
X84801041Y-25204234D01*
X84841293Y-25194165D01*
X84875040Y-25184795D01*
X84902552Y-25178086D01*
X84946798Y-25168918D01*
X85004424Y-25157915D01*
X85072079Y-25145695D01*
X85146410Y-25132881D01*
X85224065Y-25120092D01*
X85227512Y-25119538D01*
X85306841Y-25106400D01*
X85384436Y-25092786D01*
X85456612Y-25079398D01*
X85519688Y-25066939D01*
X85569980Y-25056114D01*
X85603432Y-25047735D01*
X85713381Y-25007348D01*
X85807931Y-24954501D01*
X85886611Y-24889777D01*
X85948951Y-24813758D01*
X85994480Y-24727030D01*
X86022726Y-24630174D01*
X86033221Y-24523775D01*
X86033280Y-24514856D01*
X86033280Y-24431166D01*
X85990076Y-24387962D01*
X85959113Y-24360976D01*
X85925329Y-24341508D01*
X85880678Y-24325097D01*
X85871924Y-24322438D01*
X85821723Y-24309018D01*
X85771007Y-24299024D01*
X85716503Y-24292258D01*
X85654943Y-24288524D01*
X85583056Y-24287626D01*
X85497572Y-24289366D01*
X85395222Y-24293548D01*
X85393200Y-24293645D01*
X85317371Y-24297214D01*
X85258918Y-24299660D01*
X85214918Y-24300885D01*
X85182454Y-24300786D01*
X85158603Y-24299265D01*
X85140448Y-24296220D01*
X85125067Y-24291552D01*
X85109541Y-24285159D01*
X85106450Y-24283794D01*
X85059688Y-24253672D01*
X85029805Y-24212823D01*
X85017583Y-24162390D01*
X85017317Y-24153140D01*
X85020078Y-24118802D01*
X85029349Y-24085154D01*
X85046521Y-24050544D01*
X85072987Y-24013320D01*
X85110135Y-23971828D01*
X85159357Y-23924416D01*
X85222044Y-23869431D01*
X85299586Y-23805221D01*
X85332291Y-23778817D01*
X85405060Y-23718397D01*
X85478079Y-23654134D01*
X85548676Y-23588652D01*
X85614179Y-23524576D01*
X85671915Y-23464531D01*
X85719213Y-23411143D01*
X85753398Y-23367036D01*
X85757176Y-23361464D01*
X85782120Y-23316417D01*
X85790121Y-23278838D01*
X85780756Y-23244361D01*
X85753602Y-23208623D01*
X85741180Y-23196295D01*
X85702642Y-23163697D01*
X85661507Y-23138184D01*
X85612396Y-23117122D01*
X85549929Y-23097875D01*
X85529055Y-23092386D01*
X85467124Y-23081488D01*
X85388773Y-23075587D01*
X85297227Y-23074479D01*
X85195708Y-23077961D01*
X85087440Y-23085828D01*
X84975647Y-23097877D01*
X84863553Y-23113904D01*
X84754380Y-23133705D01*
X84703483Y-23144598D01*
X84608126Y-23166135D01*
X84639005Y-23185686D01*
X84666864Y-23210633D01*
X84688867Y-23247820D01*
X84706333Y-23300081D01*
X84718077Y-23355496D01*
X84741608Y-23486694D01*
X84762918Y-23600868D01*
X84782679Y-23701105D01*
X84801564Y-23790494D01*
X84820244Y-23872123D01*
X84839391Y-23949080D01*
X84859677Y-24024455D01*
X84876368Y-24082914D01*
X84894368Y-24145038D01*
X84913254Y-24210948D01*
X84930872Y-24273082D01*
X84945067Y-24323880D01*
X84945971Y-24327160D01*
X84961414Y-24381877D01*
X84978564Y-24440528D01*
X84994516Y-24493248D01*
X84999777Y-24510040D01*
X85038195Y-24634833D01*
X85068427Y-24741724D01*
X85090621Y-24831343D01*
X85104926Y-24904319D01*
X85111489Y-24961283D01*
X85111793Y-24987560D01*
X85110515Y-25018567D01*
X85109612Y-25041361D01*
X85099146Y-25072375D01*
X85073877Y-25097529D01*
X85039274Y-25112382D01*
X85019512Y-25114560D01*
X84990915Y-25110923D01*
X84966873Y-25097963D01*
X84943847Y-25072602D01*
X84918301Y-25031763D01*
X84912646Y-25021591D01*
X84891793Y-24984726D01*
X84869794Y-24947524D01*
X84862229Y-24935231D01*
X84846721Y-24907693D01*
X84824977Y-24865272D01*
X84798770Y-24811764D01*
X84769873Y-24750961D01*
X84740059Y-24686657D01*
X84711101Y-24622645D01*
X84684772Y-24562718D01*
X84662845Y-24510670D01*
X84656932Y-24496010D01*
X84617708Y-24387221D01*
X84581526Y-24265408D01*
X84547871Y-24128548D01*
X84516226Y-23974617D01*
X84498300Y-23875040D01*
X84489948Y-23816603D01*
X84482873Y-23747911D01*
X84477167Y-23672418D01*
X84472919Y-23593583D01*
X84470221Y-23514860D01*
X84469163Y-23439707D01*
X84469836Y-23371580D01*
X84472332Y-23313935D01*
X84476740Y-23270230D01*
X84481812Y-23247314D01*
X84490590Y-23220836D01*
X84491783Y-23209118D01*
X84484603Y-23207775D01*
X84475190Y-23210352D01*
X84410253Y-23234358D01*
X84334032Y-23270113D01*
X84250254Y-23315674D01*
X84162648Y-23369095D01*
X84130819Y-23389924D01*
X83980959Y-23489829D01*
X83980959Y-23529468D01*
X83972792Y-23573519D01*
X83949804Y-23605521D01*
X83914267Y-23623056D01*
X83890598Y-23625658D01*
X83847172Y-23617079D01*
X83815106Y-23592036D01*
X83795441Y-23551570D01*
X83790551Y-23525596D01*
X83789425Y-23484868D01*
X83797054Y-23447397D01*
X83815250Y-23409846D01*
X83845825Y-23368881D01*
X83890591Y-23321165D01*
X83914010Y-23298358D01*
X84024605Y-23199397D01*
X84135689Y-23114466D01*
X84250375Y-23042025D01*
X84371775Y-22980537D01*
X84503002Y-22928464D01*
X84647169Y-22884267D01*
X84807389Y-22846409D01*
X84843462Y-22839102D01*
X84950954Y-22820228D01*
X85061708Y-22805074D01*
X85172443Y-22793800D01*
X85279879Y-22786567D01*
X85380738Y-22783536D01*
X85471739Y-22784868D01*
G36*
X92331550Y-23830519D02*
G01*
X92388615Y-23848211D01*
X92430008Y-23878080D01*
X92441785Y-23892666D01*
X92460164Y-23922680D01*
X92468990Y-23949744D01*
X92469574Y-23981524D01*
X92463888Y-24021933D01*
X92458354Y-24062155D01*
X92458887Y-24090793D01*
X92465775Y-24115746D01*
X92467471Y-24119888D01*
X92498520Y-24174965D01*
X92544658Y-24232370D01*
X92601878Y-24287487D01*
X92637645Y-24315911D01*
X92680738Y-24345143D01*
X92737285Y-24379831D01*
X92802174Y-24417170D01*
X92870297Y-24454354D01*
X92936541Y-24488577D01*
X92995796Y-24517034D01*
X93033763Y-24533378D01*
X93119473Y-24566925D01*
X93189713Y-24593182D01*
X93247552Y-24613174D01*
X93296060Y-24627927D01*
X93338308Y-24638465D01*
X93363521Y-24643479D01*
X93409362Y-24653168D01*
X93453973Y-24665051D01*
X93488337Y-24676700D01*
X93490720Y-24677697D01*
X93510074Y-24685239D01*
X93534399Y-24693101D01*
X93565964Y-24701830D01*
X93607040Y-24711971D01*
X93659897Y-24724071D01*
X93726806Y-24738675D01*
X93810037Y-24756331D01*
X93868000Y-24768458D01*
X93922983Y-24780377D01*
X93962589Y-24790509D01*
X93991457Y-24800578D01*
X94014223Y-24812310D01*
X94035526Y-24827430D01*
X94043260Y-24833649D01*
X94075865Y-24865838D01*
X94089502Y-24894482D01*
X94084735Y-24921628D01*
X94072380Y-24939058D01*
X94057584Y-24953206D01*
X94039607Y-24964807D01*
X94016122Y-24974280D01*
X93984801Y-24982044D01*
X93943315Y-24988518D01*
X93889338Y-24994123D01*
X93820542Y-24999276D01*
X93734598Y-25004398D01*
X93699000Y-25006316D01*
X93625788Y-25010327D01*
X93558812Y-25014270D01*
X93500881Y-25017957D01*
X93454804Y-25021201D01*
X93423392Y-25023816D01*
X93409455Y-25025612D01*
X93409440Y-25025617D01*
X93387713Y-25028006D01*
X93368800Y-25026800D01*
X93347386Y-25024005D01*
X93312096Y-25019665D01*
X93269244Y-25014552D01*
X93251960Y-25012528D01*
X93160542Y-25001107D01*
X93085280Y-24989490D01*
X93022036Y-24976419D01*
X92966672Y-24960633D01*
X92915051Y-24940874D01*
X92863036Y-24915881D01*
X92806491Y-24884395D01*
X92780465Y-24868974D01*
X92679675Y-24803918D01*
X92584390Y-24733556D01*
X92497862Y-24660670D01*
X92423341Y-24588042D01*
X92364078Y-24518454D01*
X92352859Y-24503046D01*
X92305117Y-24435092D01*
X92262294Y-24495814D01*
X92205618Y-24561541D01*
X92140896Y-24610598D01*
X92070132Y-24641949D01*
X91995331Y-24654555D01*
X91957758Y-24653569D01*
X91879661Y-24637912D01*
X91813695Y-24606515D01*
X91760749Y-24560017D01*
X91721713Y-24499056D01*
X91712698Y-24477645D01*
X91703028Y-24449541D01*
X91696953Y-24423338D01*
X91693949Y-24393606D01*
X91693493Y-24354914D01*
X91694581Y-24318093D01*
X91936240Y-24318093D01*
X91937786Y-24362467D01*
X91944612Y-24390395D01*
X91959997Y-24405649D01*
X91987218Y-24412003D01*
X92018877Y-24413211D01*
X92048026Y-24411740D01*
X92068961Y-24404212D01*
X92089772Y-24386663D01*
X92103864Y-24371559D01*
X92131248Y-24336115D01*
X92156857Y-24294786D01*
X92165726Y-24277277D01*
X92181788Y-24231337D01*
X92181893Y-24196171D01*
X92165532Y-24169350D01*
X92139369Y-24151829D01*
X92113375Y-24134367D01*
X92095457Y-24114385D01*
X92093850Y-24111260D01*
X92085682Y-24095594D01*
X92076338Y-24090407D01*
X92061343Y-24096375D01*
X92036222Y-24114176D01*
X92026703Y-24121420D01*
X91981155Y-24165434D01*
X91952164Y-24216675D01*
X91938144Y-24278592D01*
X91936240Y-24318093D01*
X91694581Y-24318093D01*
X91695062Y-24301829D01*
X91695264Y-24296680D01*
X91700844Y-24214801D01*
X91711369Y-24148596D01*
X91728368Y-24093708D01*
X91753365Y-24045780D01*
X91787890Y-24000457D01*
X91806004Y-23980726D01*
X91871878Y-23920920D01*
X91936441Y-23880930D01*
X92000845Y-23860400D01*
X92066244Y-23858975D01*
X92133792Y-23876302D01*
X92139025Y-23878367D01*
X92203584Y-23904444D01*
X92249322Y-23864183D01*
X92276785Y-23841502D01*
X92296784Y-23830509D01*
X92316121Y-23828421D01*
X92331550Y-23830519D01*
G37*
X92331550Y-23830519D02*
X92388615Y-23848211D01*
X92430008Y-23878080D01*
X92441785Y-23892666D01*
X92460164Y-23922680D01*
X92468990Y-23949744D01*
X92469574Y-23981524D01*
X92463888Y-24021933D01*
X92458354Y-24062155D01*
X92458887Y-24090793D01*
X92465775Y-24115746D01*
X92467471Y-24119888D01*
X92498520Y-24174965D01*
X92544658Y-24232370D01*
X92601878Y-24287487D01*
X92637645Y-24315911D01*
X92680738Y-24345143D01*
X92737285Y-24379831D01*
X92802174Y-24417170D01*
X92870297Y-24454354D01*
X92936541Y-24488577D01*
X92995796Y-24517034D01*
X93033763Y-24533378D01*
X93119473Y-24566925D01*
X93189713Y-24593182D01*
X93247552Y-24613174D01*
X93296060Y-24627927D01*
X93338308Y-24638465D01*
X93363521Y-24643479D01*
X93409362Y-24653168D01*
X93453973Y-24665051D01*
X93488337Y-24676700D01*
X93490720Y-24677697D01*
X93510074Y-24685239D01*
X93534399Y-24693101D01*
X93565964Y-24701830D01*
X93607040Y-24711971D01*
X93659897Y-24724071D01*
X93726806Y-24738675D01*
X93810037Y-24756331D01*
X93868000Y-24768458D01*
X93922983Y-24780377D01*
X93962589Y-24790509D01*
X93991457Y-24800578D01*
X94014223Y-24812310D01*
X94035526Y-24827430D01*
X94043260Y-24833649D01*
X94075865Y-24865838D01*
X94089502Y-24894482D01*
X94084735Y-24921628D01*
X94072380Y-24939058D01*
X94057584Y-24953206D01*
X94039607Y-24964807D01*
X94016122Y-24974280D01*
X93984801Y-24982044D01*
X93943315Y-24988518D01*
X93889338Y-24994123D01*
X93820542Y-24999276D01*
X93734598Y-25004398D01*
X93699000Y-25006316D01*
X93625788Y-25010327D01*
X93558812Y-25014270D01*
X93500881Y-25017957D01*
X93454804Y-25021201D01*
X93423392Y-25023816D01*
X93409455Y-25025612D01*
X93409440Y-25025617D01*
X93387713Y-25028006D01*
X93368800Y-25026800D01*
X93347386Y-25024005D01*
X93312096Y-25019665D01*
X93269244Y-25014552D01*
X93251960Y-25012528D01*
X93160542Y-25001107D01*
X93085280Y-24989490D01*
X93022036Y-24976419D01*
X92966672Y-24960633D01*
X92915051Y-24940874D01*
X92863036Y-24915881D01*
X92806491Y-24884395D01*
X92780465Y-24868974D01*
X92679675Y-24803918D01*
X92584390Y-24733556D01*
X92497862Y-24660670D01*
X92423341Y-24588042D01*
X92364078Y-24518454D01*
X92352859Y-24503046D01*
X92305117Y-24435092D01*
X92262294Y-24495814D01*
X92205618Y-24561541D01*
X92140896Y-24610598D01*
X92070132Y-24641949D01*
X91995331Y-24654555D01*
X91957758Y-24653569D01*
X91879661Y-24637912D01*
X91813695Y-24606515D01*
X91760749Y-24560017D01*
X91721713Y-24499056D01*
X91712698Y-24477645D01*
X91703028Y-24449541D01*
X91696953Y-24423338D01*
X91693949Y-24393606D01*
X91693493Y-24354914D01*
X91694581Y-24318093D01*
X91936240Y-24318093D01*
X91937786Y-24362467D01*
X91944612Y-24390395D01*
X91959997Y-24405649D01*
X91987218Y-24412003D01*
X92018877Y-24413211D01*
X92048026Y-24411740D01*
X92068961Y-24404212D01*
X92089772Y-24386663D01*
X92103864Y-24371559D01*
X92131248Y-24336115D01*
X92156857Y-24294786D01*
X92165726Y-24277277D01*
X92181788Y-24231337D01*
X92181893Y-24196171D01*
X92165532Y-24169350D01*
X92139369Y-24151829D01*
X92113375Y-24134367D01*
X92095457Y-24114385D01*
X92093850Y-24111260D01*
X92085682Y-24095594D01*
X92076338Y-24090407D01*
X92061343Y-24096375D01*
X92036222Y-24114176D01*
X92026703Y-24121420D01*
X91981155Y-24165434D01*
X91952164Y-24216675D01*
X91938144Y-24278592D01*
X91936240Y-24318093D01*
X91694581Y-24318093D01*
X91695062Y-24301829D01*
X91695264Y-24296680D01*
X91700844Y-24214801D01*
X91711369Y-24148596D01*
X91728368Y-24093708D01*
X91753365Y-24045780D01*
X91787890Y-24000457D01*
X91806004Y-23980726D01*
X91871878Y-23920920D01*
X91936441Y-23880930D01*
X92000845Y-23860400D01*
X92066244Y-23858975D01*
X92133792Y-23876302D01*
X92139025Y-23878367D01*
X92203584Y-23904444D01*
X92249322Y-23864183D01*
X92276785Y-23841502D01*
X92296784Y-23830509D01*
X92316121Y-23828421D01*
X92331550Y-23830519D01*
G36*
X87091259Y-23809184D02*
G01*
X87121987Y-23817205D01*
X87155865Y-23831669D01*
X87187440Y-23849459D01*
X87211260Y-23867455D01*
X87221872Y-23882541D01*
X87222000Y-23883954D01*
X87231122Y-23890104D01*
X87254523Y-23896396D01*
X87274388Y-23899691D01*
X87326145Y-23910028D01*
X87363186Y-23927324D01*
X87390848Y-23955243D01*
X87413392Y-23995142D01*
X87422769Y-24015916D01*
X87429701Y-24034802D01*
X87434572Y-24055306D01*
X87437770Y-24080932D01*
X87439679Y-24115185D01*
X87440686Y-24161568D01*
X87441177Y-24223588D01*
X87441294Y-24248599D01*
X87442148Y-24444358D01*
X87590724Y-24588959D01*
X87640140Y-24636870D01*
X87688660Y-24683586D01*
X87732905Y-24725875D01*
X87769494Y-24760507D01*
X87795047Y-24784251D01*
X87795610Y-24784764D01*
X87824470Y-24811776D01*
X87841283Y-24831371D01*
X87849296Y-24849513D01*
X87851756Y-24872162D01*
X87851920Y-24888125D01*
X87844301Y-24939957D01*
X87821178Y-24978810D01*
X87782149Y-25005148D01*
X87740160Y-25017347D01*
X87723960Y-25016886D01*
X87693038Y-25013362D01*
X87652651Y-25007429D01*
X87628400Y-25003393D01*
X87584222Y-24995304D01*
X87545930Y-24987506D01*
X87519149Y-24981182D01*
X87511641Y-24978868D01*
X87475330Y-24961604D01*
X87430471Y-24935606D01*
X87383027Y-24904836D01*
X87338959Y-24873253D01*
X87304230Y-24844818D01*
X87292502Y-24833313D01*
X87251427Y-24788752D01*
X87193533Y-24840496D01*
X87112530Y-24901095D01*
X87025061Y-24944917D01*
X86933866Y-24971080D01*
X86841686Y-24978697D01*
X86782078Y-24973210D01*
X86739654Y-24964212D01*
X86699344Y-24952372D01*
X86673698Y-24942012D01*
X86624624Y-24908699D01*
X86576166Y-24861112D01*
X86533415Y-24804800D01*
X86509581Y-24763105D01*
X86493940Y-24729043D01*
X86483787Y-24699010D01*
X86477626Y-24666162D01*
X86473959Y-24623652D01*
X86472445Y-24593251D01*
X86473207Y-24550680D01*
X86720231Y-24550680D01*
X86720506Y-24598611D01*
X86723442Y-24632576D01*
X86730050Y-24658861D01*
X86741339Y-24683751D01*
X86741747Y-24684517D01*
X86758914Y-24710833D01*
X86776109Y-24728349D01*
X86782387Y-24731599D01*
X86826482Y-24737380D01*
X86878029Y-24735914D01*
X86927079Y-24727948D01*
X86955364Y-24718564D01*
X87006436Y-24690685D01*
X87050740Y-24657725D01*
X87082135Y-24624335D01*
X87084635Y-24620686D01*
X87092132Y-24607404D01*
X87094697Y-24594002D01*
X87091614Y-24575627D01*
X87082166Y-24547424D01*
X87068592Y-24512095D01*
X87053774Y-24472323D01*
X87044255Y-24439706D01*
X87038881Y-24407344D01*
X87036499Y-24368339D01*
X87035953Y-24317000D01*
X87038616Y-24236050D01*
X87046966Y-24170636D01*
X87054301Y-24139200D01*
X87064083Y-24100071D01*
X87071127Y-24064337D01*
X87073689Y-24042680D01*
X87071093Y-24022890D01*
X87060245Y-24015504D01*
X87039082Y-24020749D01*
X87005539Y-24038849D01*
X86983932Y-24052497D01*
X86906174Y-24114796D01*
X86839792Y-24191833D01*
X86786428Y-24280507D01*
X86747721Y-24377722D01*
X86725311Y-24480377D01*
X86720231Y-24550680D01*
X86473207Y-24550680D01*
X86474746Y-24464720D01*
X86493322Y-24348321D01*
X86528181Y-24244012D01*
X86541648Y-24215400D01*
X86591149Y-24130963D01*
X86650321Y-24052563D01*
X86716778Y-23981960D01*
X86788136Y-23920918D01*
X86862010Y-23871198D01*
X86936017Y-23834563D01*
X87007772Y-23812775D01*
X87074890Y-23807596D01*
X87091259Y-23809184D01*
G37*
X87091259Y-23809184D02*
X87121987Y-23817205D01*
X87155865Y-23831669D01*
X87187440Y-23849459D01*
X87211260Y-23867455D01*
X87221872Y-23882541D01*
X87222000Y-23883954D01*
X87231122Y-23890104D01*
X87254523Y-23896396D01*
X87274388Y-23899691D01*
X87326145Y-23910028D01*
X87363186Y-23927324D01*
X87390848Y-23955243D01*
X87413392Y-23995142D01*
X87422769Y-24015916D01*
X87429701Y-24034802D01*
X87434572Y-24055306D01*
X87437770Y-24080932D01*
X87439679Y-24115185D01*
X87440686Y-24161568D01*
X87441177Y-24223588D01*
X87441294Y-24248599D01*
X87442148Y-24444358D01*
X87590724Y-24588959D01*
X87640140Y-24636870D01*
X87688660Y-24683586D01*
X87732905Y-24725875D01*
X87769494Y-24760507D01*
X87795047Y-24784251D01*
X87795610Y-24784764D01*
X87824470Y-24811776D01*
X87841283Y-24831371D01*
X87849296Y-24849513D01*
X87851756Y-24872162D01*
X87851920Y-24888125D01*
X87844301Y-24939957D01*
X87821178Y-24978810D01*
X87782149Y-25005148D01*
X87740160Y-25017347D01*
X87723960Y-25016886D01*
X87693038Y-25013362D01*
X87652651Y-25007429D01*
X87628400Y-25003393D01*
X87584222Y-24995304D01*
X87545930Y-24987506D01*
X87519149Y-24981182D01*
X87511641Y-24978868D01*
X87475330Y-24961604D01*
X87430471Y-24935606D01*
X87383027Y-24904836D01*
X87338959Y-24873253D01*
X87304230Y-24844818D01*
X87292502Y-24833313D01*
X87251427Y-24788752D01*
X87193533Y-24840496D01*
X87112530Y-24901095D01*
X87025061Y-24944917D01*
X86933866Y-24971080D01*
X86841686Y-24978697D01*
X86782078Y-24973210D01*
X86739654Y-24964212D01*
X86699344Y-24952372D01*
X86673698Y-24942012D01*
X86624624Y-24908699D01*
X86576166Y-24861112D01*
X86533415Y-24804800D01*
X86509581Y-24763105D01*
X86493940Y-24729043D01*
X86483787Y-24699010D01*
X86477626Y-24666162D01*
X86473959Y-24623652D01*
X86472445Y-24593251D01*
X86473207Y-24550680D01*
X86720231Y-24550680D01*
X86720506Y-24598611D01*
X86723442Y-24632576D01*
X86730050Y-24658861D01*
X86741339Y-24683751D01*
X86741747Y-24684517D01*
X86758914Y-24710833D01*
X86776109Y-24728349D01*
X86782387Y-24731599D01*
X86826482Y-24737380D01*
X86878029Y-24735914D01*
X86927079Y-24727948D01*
X86955364Y-24718564D01*
X87006436Y-24690685D01*
X87050740Y-24657725D01*
X87082135Y-24624335D01*
X87084635Y-24620686D01*
X87092132Y-24607404D01*
X87094697Y-24594002D01*
X87091614Y-24575627D01*
X87082166Y-24547424D01*
X87068592Y-24512095D01*
X87053774Y-24472323D01*
X87044255Y-24439706D01*
X87038881Y-24407344D01*
X87036499Y-24368339D01*
X87035953Y-24317000D01*
X87038616Y-24236050D01*
X87046966Y-24170636D01*
X87054301Y-24139200D01*
X87064083Y-24100071D01*
X87071127Y-24064337D01*
X87073689Y-24042680D01*
X87071093Y-24022890D01*
X87060245Y-24015504D01*
X87039082Y-24020749D01*
X87005539Y-24038849D01*
X86983932Y-24052497D01*
X86906174Y-24114796D01*
X86839792Y-24191833D01*
X86786428Y-24280507D01*
X86747721Y-24377722D01*
X86725311Y-24480377D01*
X86720231Y-24550680D01*
X86473207Y-24550680D01*
X86474746Y-24464720D01*
X86493322Y-24348321D01*
X86528181Y-24244012D01*
X86541648Y-24215400D01*
X86591149Y-24130963D01*
X86650321Y-24052563D01*
X86716778Y-23981960D01*
X86788136Y-23920918D01*
X86862010Y-23871198D01*
X86936017Y-23834563D01*
X87007772Y-23812775D01*
X87074890Y-23807596D01*
X87091259Y-23809184D01*
G36*
X88015087Y-23780786D02*
G01*
X88056961Y-23804987D01*
X88066808Y-23814045D01*
X88090034Y-23847584D01*
X88094294Y-23884370D01*
X88079876Y-23927072D01*
X88079168Y-23928453D01*
X88071019Y-23948919D01*
X88066992Y-23973868D01*
X88066647Y-24008711D01*
X88069079Y-24052408D01*
X88073133Y-24098396D01*
X88078270Y-24140877D01*
X88083579Y-24172685D01*
X88085273Y-24179840D01*
X88090874Y-24204991D01*
X88098147Y-24244077D01*
X88105982Y-24290905D01*
X88110779Y-24322080D01*
X88119662Y-24377193D01*
X88130122Y-24434883D01*
X88140450Y-24485942D01*
X88144755Y-24504960D01*
X88162917Y-24581160D01*
X88169853Y-24428760D01*
X88179566Y-24299677D01*
X88196403Y-24188274D01*
X88220806Y-24093040D01*
X88253221Y-24012464D01*
X88294091Y-23945034D01*
X88321925Y-23911265D01*
X88351406Y-23882437D01*
X88378082Y-23865726D01*
X88410203Y-23856199D01*
X88415800Y-23855122D01*
X88451713Y-23850667D01*
X88479777Y-23854236D01*
X88508437Y-23865739D01*
X88530736Y-23877093D01*
X88548712Y-23889115D01*
X88564760Y-23904922D01*
X88581276Y-23927630D01*
X88600656Y-23960355D01*
X88625295Y-24006215D01*
X88643997Y-24042097D01*
X88687009Y-24122022D01*
X88729426Y-24193833D01*
X88775071Y-24263397D01*
X88827765Y-24336581D01*
X88881923Y-24407255D01*
X88942843Y-24490805D01*
X88988892Y-24567603D01*
X89022297Y-24641878D01*
X89045107Y-24717105D01*
X89053915Y-24755526D01*
X89057740Y-24779891D01*
X89056474Y-24795868D01*
X89050009Y-24809129D01*
X89043169Y-24818705D01*
X89014814Y-24842881D01*
X88982143Y-24848127D01*
X88948970Y-24834134D01*
X88940417Y-24827012D01*
X88914314Y-24805551D01*
X88882141Y-24782717D01*
X88873000Y-24776864D01*
X88850985Y-24760566D01*
X88818582Y-24733197D01*
X88779654Y-24698170D01*
X88738065Y-24658897D01*
X88724935Y-24646099D01*
X88615165Y-24525873D01*
X88518945Y-24393640D01*
X88459104Y-24293668D01*
X88423709Y-24229696D01*
X88411357Y-24292481D01*
X88407097Y-24322236D01*
X88402538Y-24367987D01*
X88398015Y-24425419D01*
X88393866Y-24490218D01*
X88390425Y-24558068D01*
X88390138Y-24564732D01*
X88384846Y-24666918D01*
X88378105Y-24750867D01*
X88369402Y-24818643D01*
X88358222Y-24872307D01*
X88344050Y-24913923D01*
X88326373Y-24945553D01*
X88304676Y-24969259D01*
X88285850Y-24982840D01*
X88242892Y-24998845D01*
X88193717Y-25001877D01*
X88147293Y-24991890D01*
X88130509Y-24983643D01*
X88086144Y-24946840D01*
X88042392Y-24891997D01*
X88000317Y-24821385D01*
X87960985Y-24737280D01*
X87925463Y-24641955D01*
X87894815Y-24537684D01*
X87870489Y-24428760D01*
X87861663Y-24378338D01*
X87855310Y-24331115D01*
X87851057Y-24281981D01*
X87848530Y-24225823D01*
X87847357Y-24157532D01*
X87847148Y-24108720D01*
X87847277Y-24038439D01*
X87848031Y-23985045D01*
X87849690Y-23945108D01*
X87852535Y-23915197D01*
X87856845Y-23891882D01*
X87862900Y-23871732D01*
X87867462Y-23859800D01*
X87894293Y-23815302D01*
X87930205Y-23786757D01*
X87971652Y-23774981D01*
X88015087Y-23780786D01*
G37*
X88015087Y-23780786D02*
X88056961Y-23804987D01*
X88066808Y-23814045D01*
X88090034Y-23847584D01*
X88094294Y-23884370D01*
X88079876Y-23927072D01*
X88079168Y-23928453D01*
X88071019Y-23948919D01*
X88066992Y-23973868D01*
X88066647Y-24008711D01*
X88069079Y-24052408D01*
X88073133Y-24098396D01*
X88078270Y-24140877D01*
X88083579Y-24172685D01*
X88085273Y-24179840D01*
X88090874Y-24204991D01*
X88098147Y-24244077D01*
X88105982Y-24290905D01*
X88110779Y-24322080D01*
X88119662Y-24377193D01*
X88130122Y-24434883D01*
X88140450Y-24485942D01*
X88144755Y-24504960D01*
X88162917Y-24581160D01*
X88169853Y-24428760D01*
X88179566Y-24299677D01*
X88196403Y-24188274D01*
X88220806Y-24093040D01*
X88253221Y-24012464D01*
X88294091Y-23945034D01*
X88321925Y-23911265D01*
X88351406Y-23882437D01*
X88378082Y-23865726D01*
X88410203Y-23856199D01*
X88415800Y-23855122D01*
X88451713Y-23850667D01*
X88479777Y-23854236D01*
X88508437Y-23865739D01*
X88530736Y-23877093D01*
X88548712Y-23889115D01*
X88564760Y-23904922D01*
X88581276Y-23927630D01*
X88600656Y-23960355D01*
X88625295Y-24006215D01*
X88643997Y-24042097D01*
X88687009Y-24122022D01*
X88729426Y-24193833D01*
X88775071Y-24263397D01*
X88827765Y-24336581D01*
X88881923Y-24407255D01*
X88942843Y-24490805D01*
X88988892Y-24567603D01*
X89022297Y-24641878D01*
X89045107Y-24717105D01*
X89053915Y-24755526D01*
X89057740Y-24779891D01*
X89056474Y-24795868D01*
X89050009Y-24809129D01*
X89043169Y-24818705D01*
X89014814Y-24842881D01*
X88982143Y-24848127D01*
X88948970Y-24834134D01*
X88940417Y-24827012D01*
X88914314Y-24805551D01*
X88882141Y-24782717D01*
X88873000Y-24776864D01*
X88850985Y-24760566D01*
X88818582Y-24733197D01*
X88779654Y-24698170D01*
X88738065Y-24658897D01*
X88724935Y-24646099D01*
X88615165Y-24525873D01*
X88518945Y-24393640D01*
X88459104Y-24293668D01*
X88423709Y-24229696D01*
X88411357Y-24292481D01*
X88407097Y-24322236D01*
X88402538Y-24367987D01*
X88398015Y-24425419D01*
X88393866Y-24490218D01*
X88390425Y-24558068D01*
X88390138Y-24564732D01*
X88384846Y-24666918D01*
X88378105Y-24750867D01*
X88369402Y-24818643D01*
X88358222Y-24872307D01*
X88344050Y-24913923D01*
X88326373Y-24945553D01*
X88304676Y-24969259D01*
X88285850Y-24982840D01*
X88242892Y-24998845D01*
X88193717Y-25001877D01*
X88147293Y-24991890D01*
X88130509Y-24983643D01*
X88086144Y-24946840D01*
X88042392Y-24891997D01*
X88000317Y-24821385D01*
X87960985Y-24737280D01*
X87925463Y-24641955D01*
X87894815Y-24537684D01*
X87870489Y-24428760D01*
X87861663Y-24378338D01*
X87855310Y-24331115D01*
X87851057Y-24281981D01*
X87848530Y-24225823D01*
X87847357Y-24157532D01*
X87847148Y-24108720D01*
X87847277Y-24038439D01*
X87848031Y-23985045D01*
X87849690Y-23945108D01*
X87852535Y-23915197D01*
X87856845Y-23891882D01*
X87862900Y-23871732D01*
X87867462Y-23859800D01*
X87894293Y-23815302D01*
X87930205Y-23786757D01*
X87971652Y-23774981D01*
X88015087Y-23780786D01*
G36*
X89579120Y-23841285D02*
G01*
X89650905Y-23842935D01*
X89705280Y-23845043D01*
X89745154Y-23847964D01*
X89773437Y-23852056D01*
X89793039Y-23857674D01*
X89806868Y-23865177D01*
X89812738Y-23869936D01*
X89843481Y-23906261D01*
X89856764Y-23942669D01*
X89853405Y-23971650D01*
X89844971Y-23996030D01*
X89844732Y-24005227D01*
X89852062Y-24002891D01*
X89857440Y-24009228D01*
X89863038Y-24031073D01*
X89867562Y-24063020D01*
X89881956Y-24145571D01*
X89907519Y-24233738D01*
X89941609Y-24320514D01*
X89981584Y-24398888D01*
X90011371Y-24444615D01*
X90032095Y-24470497D01*
X90052621Y-24488459D01*
X90078068Y-24501042D01*
X90113553Y-24510790D01*
X90163320Y-24520095D01*
X90194954Y-24532086D01*
X90229204Y-24555205D01*
X90261259Y-24584798D01*
X90286305Y-24616210D01*
X90299530Y-24644787D01*
X90300480Y-24652750D01*
X90291129Y-24694685D01*
X90266012Y-24735148D01*
X90229534Y-24770205D01*
X90186098Y-24795920D01*
X90140110Y-24808358D01*
X90125724Y-24808895D01*
X90095412Y-24805769D01*
X90057643Y-24798869D01*
X90041400Y-24795054D01*
X89997111Y-24782677D01*
X89960139Y-24769123D01*
X89923914Y-24751337D01*
X89881865Y-24726262D01*
X89851548Y-24706735D01*
X89781584Y-24651822D01*
X89725070Y-24586011D01*
X89694468Y-24537133D01*
X89686961Y-24541802D01*
X89669469Y-24557376D01*
X89651433Y-24574886D01*
X89617383Y-24604155D01*
X89576843Y-24632529D01*
X89556606Y-24644305D01*
X89529378Y-24657584D01*
X89504797Y-24665932D01*
X89476725Y-24670467D01*
X89439027Y-24672308D01*
X89401320Y-24672592D01*
X89335968Y-24670037D01*
X89285390Y-24661089D01*
X89244541Y-24643840D01*
X89208375Y-24616384D01*
X89183187Y-24590117D01*
X89152370Y-24548978D01*
X89131988Y-24505234D01*
X89119855Y-24452782D01*
X89114486Y-24398280D01*
X89115007Y-24381527D01*
X89320158Y-24381527D01*
X89323721Y-24423170D01*
X89334060Y-24453674D01*
X89348551Y-24467941D01*
X89379563Y-24473574D01*
X89419979Y-24472166D01*
X89460479Y-24464583D01*
X89485544Y-24455241D01*
X89515931Y-24437419D01*
X89539281Y-24416649D01*
X89559852Y-24387888D01*
X89581899Y-24346095D01*
X89587410Y-24334566D01*
X89603719Y-24297376D01*
X89611259Y-24270793D01*
X89611490Y-24247866D01*
X89608724Y-24232966D01*
X89604468Y-24204404D01*
X89601272Y-24163584D01*
X89599735Y-24118562D01*
X89599682Y-24111260D01*
X89598589Y-24065455D01*
X89593964Y-24038452D01*
X89583305Y-24028759D01*
X89564107Y-24034884D01*
X89533869Y-24055335D01*
X89521478Y-24064642D01*
X89458827Y-24114119D01*
X89411407Y-24156919D01*
X89376768Y-24196378D01*
X89352458Y-24235831D01*
X89336028Y-24278616D01*
X89325025Y-24328067D01*
X89324177Y-24333211D01*
X89320158Y-24381527D01*
X89115007Y-24381527D01*
X89117521Y-24300774D01*
X89139170Y-24208209D01*
X89179924Y-24119352D01*
X89240269Y-24032972D01*
X89275156Y-23993286D01*
X89343139Y-23929817D01*
X89414389Y-23882135D01*
X89417917Y-23880205D01*
X89455920Y-23860272D01*
X89484492Y-23848355D01*
X89511566Y-23842540D01*
X89545074Y-23840912D01*
X89579120Y-23841285D01*
G37*
X89579120Y-23841285D02*
X89650905Y-23842935D01*
X89705280Y-23845043D01*
X89745154Y-23847964D01*
X89773437Y-23852056D01*
X89793039Y-23857674D01*
X89806868Y-23865177D01*
X89812738Y-23869936D01*
X89843481Y-23906261D01*
X89856764Y-23942669D01*
X89853405Y-23971650D01*
X89844971Y-23996030D01*
X89844732Y-24005227D01*
X89852062Y-24002891D01*
X89857440Y-24009228D01*
X89863038Y-24031073D01*
X89867562Y-24063020D01*
X89881956Y-24145571D01*
X89907519Y-24233738D01*
X89941609Y-24320514D01*
X89981584Y-24398888D01*
X90011371Y-24444615D01*
X90032095Y-24470497D01*
X90052621Y-24488459D01*
X90078068Y-24501042D01*
X90113553Y-24510790D01*
X90163320Y-24520095D01*
X90194954Y-24532086D01*
X90229204Y-24555205D01*
X90261259Y-24584798D01*
X90286305Y-24616210D01*
X90299530Y-24644787D01*
X90300480Y-24652750D01*
X90291129Y-24694685D01*
X90266012Y-24735148D01*
X90229534Y-24770205D01*
X90186098Y-24795920D01*
X90140110Y-24808358D01*
X90125724Y-24808895D01*
X90095412Y-24805769D01*
X90057643Y-24798869D01*
X90041400Y-24795054D01*
X89997111Y-24782677D01*
X89960139Y-24769123D01*
X89923914Y-24751337D01*
X89881865Y-24726262D01*
X89851548Y-24706735D01*
X89781584Y-24651822D01*
X89725070Y-24586011D01*
X89694468Y-24537133D01*
X89686961Y-24541802D01*
X89669469Y-24557376D01*
X89651433Y-24574886D01*
X89617383Y-24604155D01*
X89576843Y-24632529D01*
X89556606Y-24644305D01*
X89529378Y-24657584D01*
X89504797Y-24665932D01*
X89476725Y-24670467D01*
X89439027Y-24672308D01*
X89401320Y-24672592D01*
X89335968Y-24670037D01*
X89285390Y-24661089D01*
X89244541Y-24643840D01*
X89208375Y-24616384D01*
X89183187Y-24590117D01*
X89152370Y-24548978D01*
X89131988Y-24505234D01*
X89119855Y-24452782D01*
X89114486Y-24398280D01*
X89115007Y-24381527D01*
X89320158Y-24381527D01*
X89323721Y-24423170D01*
X89334060Y-24453674D01*
X89348551Y-24467941D01*
X89379563Y-24473574D01*
X89419979Y-24472166D01*
X89460479Y-24464583D01*
X89485544Y-24455241D01*
X89515931Y-24437419D01*
X89539281Y-24416649D01*
X89559852Y-24387888D01*
X89581899Y-24346095D01*
X89587410Y-24334566D01*
X89603719Y-24297376D01*
X89611259Y-24270793D01*
X89611490Y-24247866D01*
X89608724Y-24232966D01*
X89604468Y-24204404D01*
X89601272Y-24163584D01*
X89599735Y-24118562D01*
X89599682Y-24111260D01*
X89598589Y-24065455D01*
X89593964Y-24038452D01*
X89583305Y-24028759D01*
X89564107Y-24034884D01*
X89533869Y-24055335D01*
X89521478Y-24064642D01*
X89458827Y-24114119D01*
X89411407Y-24156919D01*
X89376768Y-24196378D01*
X89352458Y-24235831D01*
X89336028Y-24278616D01*
X89325025Y-24328067D01*
X89324177Y-24333211D01*
X89320158Y-24381527D01*
X89115007Y-24381527D01*
X89117521Y-24300774D01*
X89139170Y-24208209D01*
X89179924Y-24119352D01*
X89240269Y-24032972D01*
X89275156Y-23993286D01*
X89343139Y-23929817D01*
X89414389Y-23882135D01*
X89417917Y-23880205D01*
X89455920Y-23860272D01*
X89484492Y-23848355D01*
X89511566Y-23842540D01*
X89545074Y-23840912D01*
X89579120Y-23841285D01*
G36*
X90551783Y-23644473D02*
G01*
X90574302Y-23656986D01*
X90589136Y-23672619D01*
X90600826Y-23687818D01*
X90608424Y-23703199D01*
X90612806Y-23723454D01*
X90614846Y-23753276D01*
X90615422Y-23797356D01*
X90615440Y-23813556D01*
X90625128Y-23941571D01*
X90653987Y-24074233D01*
X90701711Y-24210404D01*
X90751156Y-24317000D01*
X90782401Y-24377960D01*
X90790277Y-24286520D01*
X90796722Y-24221970D01*
X90804887Y-24155660D01*
X90814110Y-24091765D01*
X90823729Y-24034459D01*
X90833080Y-23987919D01*
X90841502Y-23956320D01*
X90843528Y-23950897D01*
X90869033Y-23913351D01*
X90906437Y-23890778D01*
X90953259Y-23883792D01*
X91007020Y-23893004D01*
X91034988Y-23903548D01*
X91053343Y-23913004D01*
X91070626Y-23925632D01*
X91088374Y-23943572D01*
X91108121Y-23968961D01*
X91131401Y-24003937D01*
X91159750Y-24050639D01*
X91194704Y-24111205D01*
X91233474Y-24180047D01*
X91286015Y-24268586D01*
X91336850Y-24341641D01*
X91389709Y-24403307D01*
X91448322Y-24457681D01*
X91516416Y-24508857D01*
X91557633Y-24536090D01*
X91599626Y-24566634D01*
X91623186Y-24594017D01*
X91629469Y-24620492D01*
X91619629Y-24648308D01*
X91617191Y-24652192D01*
X91595549Y-24672869D01*
X91572891Y-24683024D01*
X91541447Y-24690055D01*
X91514361Y-24696768D01*
X91489538Y-24699250D01*
X91451571Y-24698437D01*
X91407333Y-24694536D01*
X91397440Y-24693284D01*
X91306836Y-24671827D01*
X91217245Y-24633216D01*
X91134021Y-24580144D01*
X91080251Y-24533704D01*
X91051292Y-24505750D01*
X91033389Y-24490751D01*
X91023527Y-24487001D01*
X91018690Y-24492797D01*
X91017333Y-24498144D01*
X91004881Y-24556885D01*
X90994300Y-24600129D01*
X90984219Y-24632438D01*
X90973271Y-24658376D01*
X90964020Y-24675776D01*
X90927871Y-24721619D01*
X90883275Y-24749447D01*
X90832209Y-24758686D01*
X90776653Y-24748764D01*
X90750379Y-24737728D01*
X90716158Y-24715169D01*
X90676116Y-24680265D01*
X90635001Y-24638027D01*
X90597558Y-24593465D01*
X90568536Y-24551590D01*
X90560774Y-24537568D01*
X90522868Y-24453839D01*
X90487137Y-24359001D01*
X90455126Y-24258478D01*
X90428379Y-24157696D01*
X90408440Y-24062080D01*
X90396854Y-23977057D01*
X90395341Y-23956320D01*
X90393235Y-23864791D01*
X90398423Y-23790948D01*
X90411143Y-23733417D01*
X90431634Y-23690827D01*
X90444292Y-23675297D01*
X90470041Y-23652812D01*
X90495180Y-23643054D01*
X90520009Y-23641360D01*
X90551783Y-23644473D01*
G37*
X90551783Y-23644473D02*
X90574302Y-23656986D01*
X90589136Y-23672619D01*
X90600826Y-23687818D01*
X90608424Y-23703199D01*
X90612806Y-23723454D01*
X90614846Y-23753276D01*
X90615422Y-23797356D01*
X90615440Y-23813556D01*
X90625128Y-23941571D01*
X90653987Y-24074233D01*
X90701711Y-24210404D01*
X90751156Y-24317000D01*
X90782401Y-24377960D01*
X90790277Y-24286520D01*
X90796722Y-24221970D01*
X90804887Y-24155660D01*
X90814110Y-24091765D01*
X90823729Y-24034459D01*
X90833080Y-23987919D01*
X90841502Y-23956320D01*
X90843528Y-23950897D01*
X90869033Y-23913351D01*
X90906437Y-23890778D01*
X90953259Y-23883792D01*
X91007020Y-23893004D01*
X91034988Y-23903548D01*
X91053343Y-23913004D01*
X91070626Y-23925632D01*
X91088374Y-23943572D01*
X91108121Y-23968961D01*
X91131401Y-24003937D01*
X91159750Y-24050639D01*
X91194704Y-24111205D01*
X91233474Y-24180047D01*
X91286015Y-24268586D01*
X91336850Y-24341641D01*
X91389709Y-24403307D01*
X91448322Y-24457681D01*
X91516416Y-24508857D01*
X91557633Y-24536090D01*
X91599626Y-24566634D01*
X91623186Y-24594017D01*
X91629469Y-24620492D01*
X91619629Y-24648308D01*
X91617191Y-24652192D01*
X91595549Y-24672869D01*
X91572891Y-24683024D01*
X91541447Y-24690055D01*
X91514361Y-24696768D01*
X91489538Y-24699250D01*
X91451571Y-24698437D01*
X91407333Y-24694536D01*
X91397440Y-24693284D01*
X91306836Y-24671827D01*
X91217245Y-24633216D01*
X91134021Y-24580144D01*
X91080251Y-24533704D01*
X91051292Y-24505750D01*
X91033389Y-24490751D01*
X91023527Y-24487001D01*
X91018690Y-24492797D01*
X91017333Y-24498144D01*
X91004881Y-24556885D01*
X90994300Y-24600129D01*
X90984219Y-24632438D01*
X90973271Y-24658376D01*
X90964020Y-24675776D01*
X90927871Y-24721619D01*
X90883275Y-24749447D01*
X90832209Y-24758686D01*
X90776653Y-24748764D01*
X90750379Y-24737728D01*
X90716158Y-24715169D01*
X90676116Y-24680265D01*
X90635001Y-24638027D01*
X90597558Y-24593465D01*
X90568536Y-24551590D01*
X90560774Y-24537568D01*
X90522868Y-24453839D01*
X90487137Y-24359001D01*
X90455126Y-24258478D01*
X90428379Y-24157696D01*
X90408440Y-24062080D01*
X90396854Y-23977057D01*
X90395341Y-23956320D01*
X90393235Y-23864791D01*
X90398423Y-23790948D01*
X90411143Y-23733417D01*
X90431634Y-23690827D01*
X90444292Y-23675297D01*
X90470041Y-23652812D01*
X90495180Y-23643054D01*
X90520009Y-23641360D01*
X90551783Y-23644473D01*
D11*
X49925000Y-23420000D02*
X51325000Y-23420000D01*
X49925000Y-18320000D02*
X45775000Y-18320000D01*
X49925000Y-23470000D02*
X45775000Y-23470000D01*
X49925000Y-18320000D02*
X49925000Y-18465000D01*
X45775000Y-18320000D02*
X45775000Y-18465000D01*
X45775000Y-23470000D02*
X45775000Y-23325000D01*
X49925000Y-23470000D02*
X49925000Y-23420000D01*
D10*
X75285000Y-42412779D02*
X75285000Y-42087221D01*
X74265000Y-42412779D02*
X74265000Y-42087221D01*
X53085000Y-42412779D02*
X53085000Y-42087221D01*
X52065000Y-42412779D02*
X52065000Y-42087221D01*
X30835000Y-42412779D02*
X30835000Y-42087221D01*
X29815000Y-42412779D02*
X29815000Y-42087221D01*
X44525279Y-16840000D02*
X44199721Y-16840000D01*
X44525279Y-17860000D02*
X44199721Y-17860000D01*
X33075000Y-47550000D02*
X33475000Y-47550000D01*
X33075000Y-46910000D02*
X33075000Y-47550000D01*
X39617000Y-43242000D02*
X39222000Y-43638000D01*
X42263000Y-40596000D02*
X41883000Y-40976000D01*
X39868000Y-43524000D02*
X39488000Y-43904000D01*
X42529000Y-40862000D02*
X42134000Y-41258000D01*
X34327000Y-43531000D02*
X34221000Y-43638000D01*
X37263000Y-40596000D02*
X37156000Y-40703000D01*
X34593000Y-43797000D02*
X34487000Y-43904000D01*
X37529000Y-40862000D02*
X37422000Y-40969000D01*
X43435000Y-38190000D02*
X43435000Y-47310000D01*
X33315000Y-38190000D02*
X33315000Y-47310000D01*
X33315000Y-47310000D02*
X43435000Y-47310000D01*
X33315000Y-38190000D02*
X43435000Y-38190000D01*
X33315000Y-45750000D02*
X43435000Y-45750000D01*
X33315000Y-46850000D02*
X43435000Y-46850000D01*
X43055000Y-42250000D02*
G75*
G03*
X43055000Y-42250000I-2180000J0D01*
G01*
X38055000Y-42250000D02*
G75*
G03*
X38055000Y-42250000I-2180000J0D01*
G01*
X71865000Y-40565000D02*
X71865000Y-43250000D01*
X73785000Y-40565000D02*
X71865000Y-40565000D01*
X73785000Y-43250000D02*
X73785000Y-40565000D01*
X49640000Y-40565000D02*
X49640000Y-43250000D01*
X51560000Y-40565000D02*
X49640000Y-40565000D01*
X51560000Y-43250000D02*
X51560000Y-40565000D01*
X27415000Y-40565000D02*
X27415000Y-43250000D01*
X29335000Y-40565000D02*
X27415000Y-40565000D01*
X29335000Y-43250000D02*
X29335000Y-40565000D01*
X40790000Y-21502064D02*
X40790000Y-20297936D01*
X42610000Y-21502064D02*
X42610000Y-20297936D01*
X53324721Y-23310000D02*
X53650279Y-23310000D01*
X53324721Y-22290000D02*
X53650279Y-22290000D01*
X46590000Y-41697936D02*
X46590000Y-42902064D01*
X48410000Y-41697936D02*
X48410000Y-42902064D01*
X72102064Y-33410000D02*
X70897936Y-33410000D01*
X72102064Y-31590000D02*
X70897936Y-31590000D01*
X68560000Y-35152064D02*
X68560000Y-33947936D01*
X66740000Y-35152064D02*
X66740000Y-33947936D01*
X70110000Y-29374721D02*
X70110000Y-29700279D01*
X69090000Y-29374721D02*
X69090000Y-29700279D01*
X64290000Y-23475279D02*
X64290000Y-23149721D01*
X65310000Y-23475279D02*
X65310000Y-23149721D01*
X60865000Y-26162779D02*
X60865000Y-25837221D01*
X61885000Y-26162779D02*
X61885000Y-25837221D01*
X59083578Y-27510000D02*
X58566422Y-27510000D01*
X59083578Y-26090000D02*
X58566422Y-26090000D01*
X72160000Y-19587221D02*
X72160000Y-19912779D01*
X71140000Y-19587221D02*
X71140000Y-19912779D01*
X67360000Y-19912779D02*
X67360000Y-19587221D01*
X66340000Y-19912779D02*
X66340000Y-19587221D01*
X64675279Y-19590000D02*
X64349721Y-19590000D01*
X64675279Y-20610000D02*
X64349721Y-20610000D01*
X76891422Y-28810000D02*
X77408578Y-28810000D01*
X76891422Y-27390000D02*
X77408578Y-27390000D01*
X60400000Y-28150000D02*
X64300000Y-28150000D01*
X60400000Y-30150000D02*
X64300000Y-30150000D01*
X60400000Y-28150000D02*
X60400000Y-30150000D01*
X41200000Y-26100000D02*
X41200000Y-24100000D01*
X41200000Y-24100000D02*
X37300000Y-24100000D01*
X41200000Y-26100000D02*
X37300000Y-26100000D01*
X76200000Y-22250000D02*
X74200000Y-22250000D01*
X74200000Y-22250000D02*
X74200000Y-26150000D01*
X76200000Y-22250000D02*
X76200000Y-26150000D01*
X27180000Y-29300000D02*
G75*
G03*
X27180000Y-29300000I-2180000J0D01*
G01*
X27180000Y-34300000D02*
G75*
G03*
X27180000Y-34300000I-2180000J0D01*
G01*
X20400000Y-26740000D02*
X20400000Y-36860000D01*
X21500000Y-26740000D02*
X21500000Y-36860000D01*
X29060000Y-26740000D02*
X29060000Y-36860000D01*
X19940000Y-26740000D02*
X19940000Y-36860000D01*
X29060000Y-26740000D02*
X19940000Y-26740000D01*
X29060000Y-36860000D02*
X19940000Y-36860000D01*
X26388000Y-30954000D02*
X26281000Y-30847000D01*
X23453000Y-28018000D02*
X23346000Y-27912000D01*
X26654000Y-30688000D02*
X26547000Y-30581000D01*
X23719000Y-27752000D02*
X23612000Y-27646000D01*
X26388000Y-35954000D02*
X25992000Y-35559000D01*
X23726000Y-33293000D02*
X23346000Y-32913000D01*
X26654000Y-35688000D02*
X26274000Y-35308000D01*
X24008000Y-33042000D02*
X23612000Y-32647000D01*
X20340000Y-26500000D02*
X19700000Y-26500000D01*
X19700000Y-26500000D02*
X19700000Y-26900000D01*
X55300000Y-47550000D02*
X55700000Y-47550000D01*
X55300000Y-46910000D02*
X55300000Y-47550000D01*
X61842000Y-43242000D02*
X61447000Y-43638000D01*
X64488000Y-40596000D02*
X64108000Y-40976000D01*
X62093000Y-43524000D02*
X61713000Y-43904000D01*
X64754000Y-40862000D02*
X64359000Y-41258000D01*
X56552000Y-43531000D02*
X56446000Y-43638000D01*
X59488000Y-40596000D02*
X59381000Y-40703000D01*
X56818000Y-43797000D02*
X56712000Y-43904000D01*
X59754000Y-40862000D02*
X59647000Y-40969000D01*
X65660000Y-38190000D02*
X65660000Y-47310000D01*
X55540000Y-38190000D02*
X55540000Y-47310000D01*
X55540000Y-47310000D02*
X65660000Y-47310000D01*
X55540000Y-38190000D02*
X65660000Y-38190000D01*
X55540000Y-45750000D02*
X65660000Y-45750000D01*
X55540000Y-46850000D02*
X65660000Y-46850000D01*
X65280000Y-42250000D02*
G75*
G03*
X65280000Y-42250000I-2180000J0D01*
G01*
X60280000Y-42250000D02*
G75*
G03*
X60280000Y-42250000I-2180000J0D01*
G01*
X82505000Y-42250000D02*
G75*
G03*
X82505000Y-42250000I-2180000J0D01*
G01*
X87505000Y-42250000D02*
G75*
G03*
X87505000Y-42250000I-2180000J0D01*
G01*
X77765000Y-46850000D02*
X87885000Y-46850000D01*
X77765000Y-45750000D02*
X87885000Y-45750000D01*
X77765000Y-38190000D02*
X87885000Y-38190000D01*
X77765000Y-47310000D02*
X87885000Y-47310000D01*
X77765000Y-38190000D02*
X77765000Y-47310000D01*
X87885000Y-38190000D02*
X87885000Y-47310000D01*
X81979000Y-40862000D02*
X81872000Y-40969000D01*
X79043000Y-43797000D02*
X78937000Y-43904000D01*
X81713000Y-40596000D02*
X81606000Y-40703000D01*
X78777000Y-43531000D02*
X78671000Y-43638000D01*
X86979000Y-40862000D02*
X86584000Y-41258000D01*
X84318000Y-43524000D02*
X83938000Y-43904000D01*
X86713000Y-40596000D02*
X86333000Y-40976000D01*
X84067000Y-43242000D02*
X83672000Y-43638000D01*
X77525000Y-46910000D02*
X77525000Y-47550000D01*
X77525000Y-47550000D02*
X77925000Y-47550000D01*
X60800000Y-36700000D02*
X60800000Y-31100000D01*
X66200000Y-36700000D02*
X66200000Y-31100000D01*
X60800000Y-36700000D02*
X61950000Y-36700000D01*
X66200000Y-36700000D02*
X65050000Y-36700000D01*
X60800000Y-31100000D02*
X61950000Y-31100000D01*
X66200000Y-31100000D02*
X65050000Y-31100000D01*
X82150000Y-20800000D02*
X82150000Y-26400000D01*
X76750000Y-20800000D02*
X76750000Y-26400000D01*
X82150000Y-20800000D02*
X81000000Y-20800000D01*
X76750000Y-20800000D02*
X77900000Y-20800000D01*
X82150000Y-26400000D02*
X81000000Y-26400000D01*
X76750000Y-26400000D02*
X77900000Y-26400000D01*
X39830000Y-20540000D02*
X39830000Y-22000000D01*
X36670000Y-20540000D02*
X36670000Y-22700000D01*
X36670000Y-20540000D02*
X37600000Y-20540000D01*
X39830000Y-20540000D02*
X38900000Y-20540000D01*
X74370000Y-34260000D02*
X75300000Y-34260000D01*
X77530000Y-34260000D02*
X76600000Y-34260000D01*
X77530000Y-34260000D02*
X77530000Y-32100000D01*
X74370000Y-34260000D02*
X74370000Y-32800000D01*
X47600279Y-17860000D02*
X47274721Y-17860000D01*
X47600279Y-16840000D02*
X47274721Y-16840000D01*
X53210000Y-19624721D02*
X53210000Y-19950279D01*
X52190000Y-19624721D02*
X52190000Y-19950279D01*
X51749721Y-17860000D02*
X52075279Y-17860000D01*
X51749721Y-16840000D02*
X52075279Y-16840000D01*
X71824721Y-29260000D02*
X72150279Y-29260000D01*
X71824721Y-28240000D02*
X72150279Y-28240000D01*
X63410000Y-25837221D02*
X63410000Y-26162779D01*
X62390000Y-25837221D02*
X62390000Y-26162779D01*
X61949721Y-24210000D02*
X62275279Y-24210000D01*
X61949721Y-23190000D02*
X62275279Y-23190000D01*
X67940000Y-19912779D02*
X67940000Y-19587221D01*
X68960000Y-19912779D02*
X68960000Y-19587221D01*
X70560000Y-19912779D02*
X70560000Y-19587221D01*
X69540000Y-19912779D02*
X69540000Y-19587221D01*
X58649721Y-24440000D02*
X58975279Y-24440000D01*
X58649721Y-25460000D02*
X58975279Y-25460000D01*
X80610000Y-29262221D02*
X80610000Y-29587779D01*
X79590000Y-29262221D02*
X79590000Y-29587779D01*
X66740000Y-23315000D02*
X66740000Y-22840000D01*
X66740000Y-22840000D02*
X67215000Y-22840000D01*
X70960000Y-26585000D02*
X70960000Y-27060000D01*
X70960000Y-27060000D02*
X70485000Y-27060000D01*
X70960000Y-23315000D02*
X70960000Y-22840000D01*
X70960000Y-22840000D02*
X70485000Y-22840000D01*
X66740000Y-26585000D02*
X66740000Y-27060000D01*
M02*
