G04 #@! TF.GenerationSoftware,KiCad,Pcbnew,(5.1.6)-1*
G04 #@! TF.CreationDate,2020-09-10T01:06:56+02:00*
G04 #@! TF.ProjectId,BananaSchplit,42616e61-6e61-4536-9368-706c69742e6b,rev?*
G04 #@! TF.SameCoordinates,Original*
G04 #@! TF.FileFunction,Paste,Top*
G04 #@! TF.FilePolarity,Positive*
%FSLAX46Y46*%
G04 Gerber Fmt 4.6, Leading zero omitted, Abs format (unit mm)*
G04 Created by KiCad (PCBNEW (5.1.6)-1) date 2020-09-10 01:06:56*
%MOMM*%
%LPD*%
G01*
G04 APERTURE LIST*
%ADD10R,2.900000X5.400000*%
%ADD11R,1.550000X0.600000*%
%ADD12R,2.600000X3.100000*%
%ADD13R,0.900000X1.200000*%
%ADD14R,1.200000X0.900000*%
%ADD15R,2.500000X1.900000*%
%ADD16R,0.800000X0.900000*%
G04 APERTURE END LIST*
G36*
G01*
X32299999Y-23125000D02*
X35200001Y-23125000D01*
G75*
G02*
X35450000Y-23374999I0J-249999D01*
G01*
X35450000Y-24000001D01*
G75*
G02*
X35200001Y-24250000I-249999J0D01*
G01*
X32299999Y-24250000D01*
G75*
G02*
X32050000Y-24000001I0J249999D01*
G01*
X32050000Y-23374999D01*
G75*
G02*
X32299999Y-23125000I249999J0D01*
G01*
G37*
G36*
G01*
X32299999Y-18850000D02*
X35200001Y-18850000D01*
G75*
G02*
X35450000Y-19099999I0J-249999D01*
G01*
X35450000Y-19725001D01*
G75*
G02*
X35200001Y-19975000I-249999J0D01*
G01*
X32299999Y-19975000D01*
G75*
G02*
X32050000Y-19725001I0J249999D01*
G01*
X32050000Y-19099999D01*
G75*
G02*
X32299999Y-18850000I249999J0D01*
G01*
G37*
D10*
X53300000Y-30950000D03*
X43400000Y-30950000D03*
G36*
G01*
X37850000Y-30800000D02*
X36750000Y-30800000D01*
G75*
G02*
X36500000Y-30550000I0J250000D01*
G01*
X36500000Y-27550000D01*
G75*
G02*
X36750000Y-27300000I250000J0D01*
G01*
X37850000Y-27300000D01*
G75*
G02*
X38100000Y-27550000I0J-250000D01*
G01*
X38100000Y-30550000D01*
G75*
G02*
X37850000Y-30800000I-250000J0D01*
G01*
G37*
G36*
G01*
X37850000Y-36200000D02*
X36750000Y-36200000D01*
G75*
G02*
X36500000Y-35950000I0J250000D01*
G01*
X36500000Y-32950000D01*
G75*
G02*
X36750000Y-32700000I250000J0D01*
G01*
X37850000Y-32700000D01*
G75*
G02*
X38100000Y-32950000I0J-250000D01*
G01*
X38100000Y-35950000D01*
G75*
G02*
X37850000Y-36200000I-250000J0D01*
G01*
G37*
D11*
X45150000Y-22800000D03*
X45150000Y-21530000D03*
X45150000Y-20260000D03*
X45150000Y-18990000D03*
X50550000Y-18990000D03*
X50550000Y-20260000D03*
X50550000Y-21530000D03*
X50550000Y-22800000D03*
D12*
X47850000Y-20895000D03*
G36*
G01*
X75031250Y-41900000D02*
X74518750Y-41900000D01*
G75*
G02*
X74300000Y-41681250I0J218750D01*
G01*
X74300000Y-41243750D01*
G75*
G02*
X74518750Y-41025000I218750J0D01*
G01*
X75031250Y-41025000D01*
G75*
G02*
X75250000Y-41243750I0J-218750D01*
G01*
X75250000Y-41681250D01*
G75*
G02*
X75031250Y-41900000I-218750J0D01*
G01*
G37*
G36*
G01*
X75031250Y-43475000D02*
X74518750Y-43475000D01*
G75*
G02*
X74300000Y-43256250I0J218750D01*
G01*
X74300000Y-42818750D01*
G75*
G02*
X74518750Y-42600000I218750J0D01*
G01*
X75031250Y-42600000D01*
G75*
G02*
X75250000Y-42818750I0J-218750D01*
G01*
X75250000Y-43256250D01*
G75*
G02*
X75031250Y-43475000I-218750J0D01*
G01*
G37*
G36*
G01*
X52831250Y-41900000D02*
X52318750Y-41900000D01*
G75*
G02*
X52100000Y-41681250I0J218750D01*
G01*
X52100000Y-41243750D01*
G75*
G02*
X52318750Y-41025000I218750J0D01*
G01*
X52831250Y-41025000D01*
G75*
G02*
X53050000Y-41243750I0J-218750D01*
G01*
X53050000Y-41681250D01*
G75*
G02*
X52831250Y-41900000I-218750J0D01*
G01*
G37*
G36*
G01*
X52831250Y-43475000D02*
X52318750Y-43475000D01*
G75*
G02*
X52100000Y-43256250I0J218750D01*
G01*
X52100000Y-42818750D01*
G75*
G02*
X52318750Y-42600000I218750J0D01*
G01*
X52831250Y-42600000D01*
G75*
G02*
X53050000Y-42818750I0J-218750D01*
G01*
X53050000Y-43256250D01*
G75*
G02*
X52831250Y-43475000I-218750J0D01*
G01*
G37*
G36*
G01*
X30581250Y-41900000D02*
X30068750Y-41900000D01*
G75*
G02*
X29850000Y-41681250I0J218750D01*
G01*
X29850000Y-41243750D01*
G75*
G02*
X30068750Y-41025000I218750J0D01*
G01*
X30581250Y-41025000D01*
G75*
G02*
X30800000Y-41243750I0J-218750D01*
G01*
X30800000Y-41681250D01*
G75*
G02*
X30581250Y-41900000I-218750J0D01*
G01*
G37*
G36*
G01*
X30581250Y-43475000D02*
X30068750Y-43475000D01*
G75*
G02*
X29850000Y-43256250I0J218750D01*
G01*
X29850000Y-42818750D01*
G75*
G02*
X30068750Y-42600000I218750J0D01*
G01*
X30581250Y-42600000D01*
G75*
G02*
X30800000Y-42818750I0J-218750D01*
G01*
X30800000Y-43256250D01*
G75*
G02*
X30581250Y-43475000I-218750J0D01*
G01*
G37*
G36*
G01*
X44012500Y-17093750D02*
X44012500Y-17606250D01*
G75*
G02*
X43793750Y-17825000I-218750J0D01*
G01*
X43356250Y-17825000D01*
G75*
G02*
X43137500Y-17606250I0J218750D01*
G01*
X43137500Y-17093750D01*
G75*
G02*
X43356250Y-16875000I218750J0D01*
G01*
X43793750Y-16875000D01*
G75*
G02*
X44012500Y-17093750I0J-218750D01*
G01*
G37*
G36*
G01*
X45587500Y-17093750D02*
X45587500Y-17606250D01*
G75*
G02*
X45368750Y-17825000I-218750J0D01*
G01*
X44931250Y-17825000D01*
G75*
G02*
X44712500Y-17606250I0J218750D01*
G01*
X44712500Y-17093750D01*
G75*
G02*
X44931250Y-16875000I218750J0D01*
G01*
X45368750Y-16875000D01*
G75*
G02*
X45587500Y-17093750I0J-218750D01*
G01*
G37*
G36*
G01*
X72368750Y-42700000D02*
X73281250Y-42700000D01*
G75*
G02*
X73525000Y-42943750I0J-243750D01*
G01*
X73525000Y-43431250D01*
G75*
G02*
X73281250Y-43675000I-243750J0D01*
G01*
X72368750Y-43675000D01*
G75*
G02*
X72125000Y-43431250I0J243750D01*
G01*
X72125000Y-42943750D01*
G75*
G02*
X72368750Y-42700000I243750J0D01*
G01*
G37*
G36*
G01*
X72368750Y-40825000D02*
X73281250Y-40825000D01*
G75*
G02*
X73525000Y-41068750I0J-243750D01*
G01*
X73525000Y-41556250D01*
G75*
G02*
X73281250Y-41800000I-243750J0D01*
G01*
X72368750Y-41800000D01*
G75*
G02*
X72125000Y-41556250I0J243750D01*
G01*
X72125000Y-41068750D01*
G75*
G02*
X72368750Y-40825000I243750J0D01*
G01*
G37*
G36*
G01*
X50143750Y-42700000D02*
X51056250Y-42700000D01*
G75*
G02*
X51300000Y-42943750I0J-243750D01*
G01*
X51300000Y-43431250D01*
G75*
G02*
X51056250Y-43675000I-243750J0D01*
G01*
X50143750Y-43675000D01*
G75*
G02*
X49900000Y-43431250I0J243750D01*
G01*
X49900000Y-42943750D01*
G75*
G02*
X50143750Y-42700000I243750J0D01*
G01*
G37*
G36*
G01*
X50143750Y-40825000D02*
X51056250Y-40825000D01*
G75*
G02*
X51300000Y-41068750I0J-243750D01*
G01*
X51300000Y-41556250D01*
G75*
G02*
X51056250Y-41800000I-243750J0D01*
G01*
X50143750Y-41800000D01*
G75*
G02*
X49900000Y-41556250I0J243750D01*
G01*
X49900000Y-41068750D01*
G75*
G02*
X50143750Y-40825000I243750J0D01*
G01*
G37*
G36*
G01*
X27918750Y-42700000D02*
X28831250Y-42700000D01*
G75*
G02*
X29075000Y-42943750I0J-243750D01*
G01*
X29075000Y-43431250D01*
G75*
G02*
X28831250Y-43675000I-243750J0D01*
G01*
X27918750Y-43675000D01*
G75*
G02*
X27675000Y-43431250I0J243750D01*
G01*
X27675000Y-42943750D01*
G75*
G02*
X27918750Y-42700000I243750J0D01*
G01*
G37*
G36*
G01*
X27918750Y-40825000D02*
X28831250Y-40825000D01*
G75*
G02*
X29075000Y-41068750I0J-243750D01*
G01*
X29075000Y-41556250D01*
G75*
G02*
X28831250Y-41800000I-243750J0D01*
G01*
X27918750Y-41800000D01*
G75*
G02*
X27675000Y-41556250I0J243750D01*
G01*
X27675000Y-41068750D01*
G75*
G02*
X27918750Y-40825000I243750J0D01*
G01*
G37*
G36*
G01*
X42325000Y-22925000D02*
X41075000Y-22925000D01*
G75*
G02*
X40825000Y-22675000I0J250000D01*
G01*
X40825000Y-21925000D01*
G75*
G02*
X41075000Y-21675000I250000J0D01*
G01*
X42325000Y-21675000D01*
G75*
G02*
X42575000Y-21925000I0J-250000D01*
G01*
X42575000Y-22675000D01*
G75*
G02*
X42325000Y-22925000I-250000J0D01*
G01*
G37*
G36*
G01*
X42325000Y-20125000D02*
X41075000Y-20125000D01*
G75*
G02*
X40825000Y-19875000I0J250000D01*
G01*
X40825000Y-19125000D01*
G75*
G02*
X41075000Y-18875000I250000J0D01*
G01*
X42325000Y-18875000D01*
G75*
G02*
X42575000Y-19125000I0J-250000D01*
G01*
X42575000Y-19875000D01*
G75*
G02*
X42325000Y-20125000I-250000J0D01*
G01*
G37*
G36*
G01*
X53837500Y-23056250D02*
X53837500Y-22543750D01*
G75*
G02*
X54056250Y-22325000I218750J0D01*
G01*
X54493750Y-22325000D01*
G75*
G02*
X54712500Y-22543750I0J-218750D01*
G01*
X54712500Y-23056250D01*
G75*
G02*
X54493750Y-23275000I-218750J0D01*
G01*
X54056250Y-23275000D01*
G75*
G02*
X53837500Y-23056250I0J218750D01*
G01*
G37*
G36*
G01*
X52262500Y-23056250D02*
X52262500Y-22543750D01*
G75*
G02*
X52481250Y-22325000I218750J0D01*
G01*
X52918750Y-22325000D01*
G75*
G02*
X53137500Y-22543750I0J-218750D01*
G01*
X53137500Y-23056250D01*
G75*
G02*
X52918750Y-23275000I-218750J0D01*
G01*
X52481250Y-23275000D01*
G75*
G02*
X52262500Y-23056250I0J218750D01*
G01*
G37*
G36*
G01*
X46875000Y-43075000D02*
X48125000Y-43075000D01*
G75*
G02*
X48375000Y-43325000I0J-250000D01*
G01*
X48375000Y-44075000D01*
G75*
G02*
X48125000Y-44325000I-250000J0D01*
G01*
X46875000Y-44325000D01*
G75*
G02*
X46625000Y-44075000I0J250000D01*
G01*
X46625000Y-43325000D01*
G75*
G02*
X46875000Y-43075000I250000J0D01*
G01*
G37*
G36*
G01*
X46875000Y-40275000D02*
X48125000Y-40275000D01*
G75*
G02*
X48375000Y-40525000I0J-250000D01*
G01*
X48375000Y-41275000D01*
G75*
G02*
X48125000Y-41525000I-250000J0D01*
G01*
X46875000Y-41525000D01*
G75*
G02*
X46625000Y-41275000I0J250000D01*
G01*
X46625000Y-40525000D01*
G75*
G02*
X46875000Y-40275000I250000J0D01*
G01*
G37*
G36*
G01*
X73525000Y-31875000D02*
X73525000Y-33125000D01*
G75*
G02*
X73275000Y-33375000I-250000J0D01*
G01*
X72525000Y-33375000D01*
G75*
G02*
X72275000Y-33125000I0J250000D01*
G01*
X72275000Y-31875000D01*
G75*
G02*
X72525000Y-31625000I250000J0D01*
G01*
X73275000Y-31625000D01*
G75*
G02*
X73525000Y-31875000I0J-250000D01*
G01*
G37*
G36*
G01*
X70725000Y-31875000D02*
X70725000Y-33125000D01*
G75*
G02*
X70475000Y-33375000I-250000J0D01*
G01*
X69725000Y-33375000D01*
G75*
G02*
X69475000Y-33125000I0J250000D01*
G01*
X69475000Y-31875000D01*
G75*
G02*
X69725000Y-31625000I250000J0D01*
G01*
X70475000Y-31625000D01*
G75*
G02*
X70725000Y-31875000I0J-250000D01*
G01*
G37*
G36*
G01*
X68275000Y-33775000D02*
X67025000Y-33775000D01*
G75*
G02*
X66775000Y-33525000I0J250000D01*
G01*
X66775000Y-32775000D01*
G75*
G02*
X67025000Y-32525000I250000J0D01*
G01*
X68275000Y-32525000D01*
G75*
G02*
X68525000Y-32775000I0J-250000D01*
G01*
X68525000Y-33525000D01*
G75*
G02*
X68275000Y-33775000I-250000J0D01*
G01*
G37*
G36*
G01*
X68275000Y-36575000D02*
X67025000Y-36575000D01*
G75*
G02*
X66775000Y-36325000I0J250000D01*
G01*
X66775000Y-35575000D01*
G75*
G02*
X67025000Y-35325000I250000J0D01*
G01*
X68275000Y-35325000D01*
G75*
G02*
X68525000Y-35575000I0J-250000D01*
G01*
X68525000Y-36325000D01*
G75*
G02*
X68275000Y-36575000I-250000J0D01*
G01*
G37*
G36*
G01*
X69343750Y-28312500D02*
X69856250Y-28312500D01*
G75*
G02*
X70075000Y-28531250I0J-218750D01*
G01*
X70075000Y-28968750D01*
G75*
G02*
X69856250Y-29187500I-218750J0D01*
G01*
X69343750Y-29187500D01*
G75*
G02*
X69125000Y-28968750I0J218750D01*
G01*
X69125000Y-28531250D01*
G75*
G02*
X69343750Y-28312500I218750J0D01*
G01*
G37*
G36*
G01*
X69343750Y-29887500D02*
X69856250Y-29887500D01*
G75*
G02*
X70075000Y-30106250I0J-218750D01*
G01*
X70075000Y-30543750D01*
G75*
G02*
X69856250Y-30762500I-218750J0D01*
G01*
X69343750Y-30762500D01*
G75*
G02*
X69125000Y-30543750I0J218750D01*
G01*
X69125000Y-30106250D01*
G75*
G02*
X69343750Y-29887500I218750J0D01*
G01*
G37*
G36*
G01*
X65056250Y-24537500D02*
X64543750Y-24537500D01*
G75*
G02*
X64325000Y-24318750I0J218750D01*
G01*
X64325000Y-23881250D01*
G75*
G02*
X64543750Y-23662500I218750J0D01*
G01*
X65056250Y-23662500D01*
G75*
G02*
X65275000Y-23881250I0J-218750D01*
G01*
X65275000Y-24318750D01*
G75*
G02*
X65056250Y-24537500I-218750J0D01*
G01*
G37*
G36*
G01*
X65056250Y-22962500D02*
X64543750Y-22962500D01*
G75*
G02*
X64325000Y-22743750I0J218750D01*
G01*
X64325000Y-22306250D01*
G75*
G02*
X64543750Y-22087500I218750J0D01*
G01*
X65056250Y-22087500D01*
G75*
G02*
X65275000Y-22306250I0J-218750D01*
G01*
X65275000Y-22743750D01*
G75*
G02*
X65056250Y-22962500I-218750J0D01*
G01*
G37*
G36*
G01*
X61631250Y-27225000D02*
X61118750Y-27225000D01*
G75*
G02*
X60900000Y-27006250I0J218750D01*
G01*
X60900000Y-26568750D01*
G75*
G02*
X61118750Y-26350000I218750J0D01*
G01*
X61631250Y-26350000D01*
G75*
G02*
X61850000Y-26568750I0J-218750D01*
G01*
X61850000Y-27006250D01*
G75*
G02*
X61631250Y-27225000I-218750J0D01*
G01*
G37*
G36*
G01*
X61631250Y-25650000D02*
X61118750Y-25650000D01*
G75*
G02*
X60900000Y-25431250I0J218750D01*
G01*
X60900000Y-24993750D01*
G75*
G02*
X61118750Y-24775000I218750J0D01*
G01*
X61631250Y-24775000D01*
G75*
G02*
X61850000Y-24993750I0J-218750D01*
G01*
X61850000Y-25431250D01*
G75*
G02*
X61631250Y-25650000I-218750J0D01*
G01*
G37*
G36*
G01*
X60250000Y-26343750D02*
X60250000Y-27256250D01*
G75*
G02*
X60006250Y-27500000I-243750J0D01*
G01*
X59518750Y-27500000D01*
G75*
G02*
X59275000Y-27256250I0J243750D01*
G01*
X59275000Y-26343750D01*
G75*
G02*
X59518750Y-26100000I243750J0D01*
G01*
X60006250Y-26100000D01*
G75*
G02*
X60250000Y-26343750I0J-243750D01*
G01*
G37*
G36*
G01*
X58375000Y-26343750D02*
X58375000Y-27256250D01*
G75*
G02*
X58131250Y-27500000I-243750J0D01*
G01*
X57643750Y-27500000D01*
G75*
G02*
X57400000Y-27256250I0J243750D01*
G01*
X57400000Y-26343750D01*
G75*
G02*
X57643750Y-26100000I243750J0D01*
G01*
X58131250Y-26100000D01*
G75*
G02*
X58375000Y-26343750I0J-243750D01*
G01*
G37*
G36*
G01*
X71393750Y-18525000D02*
X71906250Y-18525000D01*
G75*
G02*
X72125000Y-18743750I0J-218750D01*
G01*
X72125000Y-19181250D01*
G75*
G02*
X71906250Y-19400000I-218750J0D01*
G01*
X71393750Y-19400000D01*
G75*
G02*
X71175000Y-19181250I0J218750D01*
G01*
X71175000Y-18743750D01*
G75*
G02*
X71393750Y-18525000I218750J0D01*
G01*
G37*
G36*
G01*
X71393750Y-20100000D02*
X71906250Y-20100000D01*
G75*
G02*
X72125000Y-20318750I0J-218750D01*
G01*
X72125000Y-20756250D01*
G75*
G02*
X71906250Y-20975000I-218750J0D01*
G01*
X71393750Y-20975000D01*
G75*
G02*
X71175000Y-20756250I0J218750D01*
G01*
X71175000Y-20318750D01*
G75*
G02*
X71393750Y-20100000I218750J0D01*
G01*
G37*
G36*
G01*
X67106250Y-19400000D02*
X66593750Y-19400000D01*
G75*
G02*
X66375000Y-19181250I0J218750D01*
G01*
X66375000Y-18743750D01*
G75*
G02*
X66593750Y-18525000I218750J0D01*
G01*
X67106250Y-18525000D01*
G75*
G02*
X67325000Y-18743750I0J-218750D01*
G01*
X67325000Y-19181250D01*
G75*
G02*
X67106250Y-19400000I-218750J0D01*
G01*
G37*
G36*
G01*
X67106250Y-20975000D02*
X66593750Y-20975000D01*
G75*
G02*
X66375000Y-20756250I0J218750D01*
G01*
X66375000Y-20318750D01*
G75*
G02*
X66593750Y-20100000I218750J0D01*
G01*
X67106250Y-20100000D01*
G75*
G02*
X67325000Y-20318750I0J-218750D01*
G01*
X67325000Y-20756250D01*
G75*
G02*
X67106250Y-20975000I-218750J0D01*
G01*
G37*
G36*
G01*
X64162500Y-19843750D02*
X64162500Y-20356250D01*
G75*
G02*
X63943750Y-20575000I-218750J0D01*
G01*
X63506250Y-20575000D01*
G75*
G02*
X63287500Y-20356250I0J218750D01*
G01*
X63287500Y-19843750D01*
G75*
G02*
X63506250Y-19625000I218750J0D01*
G01*
X63943750Y-19625000D01*
G75*
G02*
X64162500Y-19843750I0J-218750D01*
G01*
G37*
G36*
G01*
X65737500Y-19843750D02*
X65737500Y-20356250D01*
G75*
G02*
X65518750Y-20575000I-218750J0D01*
G01*
X65081250Y-20575000D01*
G75*
G02*
X64862500Y-20356250I0J218750D01*
G01*
X64862500Y-19843750D01*
G75*
G02*
X65081250Y-19625000I218750J0D01*
G01*
X65518750Y-19625000D01*
G75*
G02*
X65737500Y-19843750I0J-218750D01*
G01*
G37*
G36*
G01*
X77600000Y-28556250D02*
X77600000Y-27643750D01*
G75*
G02*
X77843750Y-27400000I243750J0D01*
G01*
X78331250Y-27400000D01*
G75*
G02*
X78575000Y-27643750I0J-243750D01*
G01*
X78575000Y-28556250D01*
G75*
G02*
X78331250Y-28800000I-243750J0D01*
G01*
X77843750Y-28800000D01*
G75*
G02*
X77600000Y-28556250I0J243750D01*
G01*
G37*
G36*
G01*
X75725000Y-28556250D02*
X75725000Y-27643750D01*
G75*
G02*
X75968750Y-27400000I243750J0D01*
G01*
X76456250Y-27400000D01*
G75*
G02*
X76700000Y-27643750I0J-243750D01*
G01*
X76700000Y-28556250D01*
G75*
G02*
X76456250Y-28800000I-243750J0D01*
G01*
X75968750Y-28800000D01*
G75*
G02*
X75725000Y-28556250I0J243750D01*
G01*
G37*
D13*
X64300000Y-29150000D03*
X61000000Y-29150000D03*
X40600000Y-25100000D03*
X37300000Y-25100000D03*
D14*
X75200000Y-22850000D03*
X75200000Y-26150000D03*
D15*
X63500000Y-35950000D03*
X63500000Y-31850000D03*
X79450000Y-21550000D03*
X79450000Y-25650000D03*
D16*
X38250000Y-20300000D03*
X39200000Y-22300000D03*
X37300000Y-22300000D03*
X76900000Y-32500000D03*
X75000000Y-32500000D03*
X75950000Y-34500000D03*
G36*
G01*
X48662500Y-17093750D02*
X48662500Y-17606250D01*
G75*
G02*
X48443750Y-17825000I-218750J0D01*
G01*
X48006250Y-17825000D01*
G75*
G02*
X47787500Y-17606250I0J218750D01*
G01*
X47787500Y-17093750D01*
G75*
G02*
X48006250Y-16875000I218750J0D01*
G01*
X48443750Y-16875000D01*
G75*
G02*
X48662500Y-17093750I0J-218750D01*
G01*
G37*
G36*
G01*
X47087500Y-17093750D02*
X47087500Y-17606250D01*
G75*
G02*
X46868750Y-17825000I-218750J0D01*
G01*
X46431250Y-17825000D01*
G75*
G02*
X46212500Y-17606250I0J218750D01*
G01*
X46212500Y-17093750D01*
G75*
G02*
X46431250Y-16875000I218750J0D01*
G01*
X46868750Y-16875000D01*
G75*
G02*
X47087500Y-17093750I0J-218750D01*
G01*
G37*
G36*
G01*
X52443750Y-18562500D02*
X52956250Y-18562500D01*
G75*
G02*
X53175000Y-18781250I0J-218750D01*
G01*
X53175000Y-19218750D01*
G75*
G02*
X52956250Y-19437500I-218750J0D01*
G01*
X52443750Y-19437500D01*
G75*
G02*
X52225000Y-19218750I0J218750D01*
G01*
X52225000Y-18781250D01*
G75*
G02*
X52443750Y-18562500I218750J0D01*
G01*
G37*
G36*
G01*
X52443750Y-20137500D02*
X52956250Y-20137500D01*
G75*
G02*
X53175000Y-20356250I0J-218750D01*
G01*
X53175000Y-20793750D01*
G75*
G02*
X52956250Y-21012500I-218750J0D01*
G01*
X52443750Y-21012500D01*
G75*
G02*
X52225000Y-20793750I0J218750D01*
G01*
X52225000Y-20356250D01*
G75*
G02*
X52443750Y-20137500I218750J0D01*
G01*
G37*
G36*
G01*
X52262500Y-17606250D02*
X52262500Y-17093750D01*
G75*
G02*
X52481250Y-16875000I218750J0D01*
G01*
X52918750Y-16875000D01*
G75*
G02*
X53137500Y-17093750I0J-218750D01*
G01*
X53137500Y-17606250D01*
G75*
G02*
X52918750Y-17825000I-218750J0D01*
G01*
X52481250Y-17825000D01*
G75*
G02*
X52262500Y-17606250I0J218750D01*
G01*
G37*
G36*
G01*
X50687500Y-17606250D02*
X50687500Y-17093750D01*
G75*
G02*
X50906250Y-16875000I218750J0D01*
G01*
X51343750Y-16875000D01*
G75*
G02*
X51562500Y-17093750I0J-218750D01*
G01*
X51562500Y-17606250D01*
G75*
G02*
X51343750Y-17825000I-218750J0D01*
G01*
X50906250Y-17825000D01*
G75*
G02*
X50687500Y-17606250I0J218750D01*
G01*
G37*
G36*
G01*
X72337500Y-29006250D02*
X72337500Y-28493750D01*
G75*
G02*
X72556250Y-28275000I218750J0D01*
G01*
X72993750Y-28275000D01*
G75*
G02*
X73212500Y-28493750I0J-218750D01*
G01*
X73212500Y-29006250D01*
G75*
G02*
X72993750Y-29225000I-218750J0D01*
G01*
X72556250Y-29225000D01*
G75*
G02*
X72337500Y-29006250I0J218750D01*
G01*
G37*
G36*
G01*
X70762500Y-29006250D02*
X70762500Y-28493750D01*
G75*
G02*
X70981250Y-28275000I218750J0D01*
G01*
X71418750Y-28275000D01*
G75*
G02*
X71637500Y-28493750I0J-218750D01*
G01*
X71637500Y-29006250D01*
G75*
G02*
X71418750Y-29225000I-218750J0D01*
G01*
X70981250Y-29225000D01*
G75*
G02*
X70762500Y-29006250I0J218750D01*
G01*
G37*
G36*
G01*
X62643750Y-24775000D02*
X63156250Y-24775000D01*
G75*
G02*
X63375000Y-24993750I0J-218750D01*
G01*
X63375000Y-25431250D01*
G75*
G02*
X63156250Y-25650000I-218750J0D01*
G01*
X62643750Y-25650000D01*
G75*
G02*
X62425000Y-25431250I0J218750D01*
G01*
X62425000Y-24993750D01*
G75*
G02*
X62643750Y-24775000I218750J0D01*
G01*
G37*
G36*
G01*
X62643750Y-26350000D02*
X63156250Y-26350000D01*
G75*
G02*
X63375000Y-26568750I0J-218750D01*
G01*
X63375000Y-27006250D01*
G75*
G02*
X63156250Y-27225000I-218750J0D01*
G01*
X62643750Y-27225000D01*
G75*
G02*
X62425000Y-27006250I0J218750D01*
G01*
X62425000Y-26568750D01*
G75*
G02*
X62643750Y-26350000I218750J0D01*
G01*
G37*
G36*
G01*
X62462500Y-23956250D02*
X62462500Y-23443750D01*
G75*
G02*
X62681250Y-23225000I218750J0D01*
G01*
X63118750Y-23225000D01*
G75*
G02*
X63337500Y-23443750I0J-218750D01*
G01*
X63337500Y-23956250D01*
G75*
G02*
X63118750Y-24175000I-218750J0D01*
G01*
X62681250Y-24175000D01*
G75*
G02*
X62462500Y-23956250I0J218750D01*
G01*
G37*
G36*
G01*
X60887500Y-23956250D02*
X60887500Y-23443750D01*
G75*
G02*
X61106250Y-23225000I218750J0D01*
G01*
X61543750Y-23225000D01*
G75*
G02*
X61762500Y-23443750I0J-218750D01*
G01*
X61762500Y-23956250D01*
G75*
G02*
X61543750Y-24175000I-218750J0D01*
G01*
X61106250Y-24175000D01*
G75*
G02*
X60887500Y-23956250I0J218750D01*
G01*
G37*
G36*
G01*
X68706250Y-20975000D02*
X68193750Y-20975000D01*
G75*
G02*
X67975000Y-20756250I0J218750D01*
G01*
X67975000Y-20318750D01*
G75*
G02*
X68193750Y-20100000I218750J0D01*
G01*
X68706250Y-20100000D01*
G75*
G02*
X68925000Y-20318750I0J-218750D01*
G01*
X68925000Y-20756250D01*
G75*
G02*
X68706250Y-20975000I-218750J0D01*
G01*
G37*
G36*
G01*
X68706250Y-19400000D02*
X68193750Y-19400000D01*
G75*
G02*
X67975000Y-19181250I0J218750D01*
G01*
X67975000Y-18743750D01*
G75*
G02*
X68193750Y-18525000I218750J0D01*
G01*
X68706250Y-18525000D01*
G75*
G02*
X68925000Y-18743750I0J-218750D01*
G01*
X68925000Y-19181250D01*
G75*
G02*
X68706250Y-19400000I-218750J0D01*
G01*
G37*
G36*
G01*
X70306250Y-19400000D02*
X69793750Y-19400000D01*
G75*
G02*
X69575000Y-19181250I0J218750D01*
G01*
X69575000Y-18743750D01*
G75*
G02*
X69793750Y-18525000I218750J0D01*
G01*
X70306250Y-18525000D01*
G75*
G02*
X70525000Y-18743750I0J-218750D01*
G01*
X70525000Y-19181250D01*
G75*
G02*
X70306250Y-19400000I-218750J0D01*
G01*
G37*
G36*
G01*
X70306250Y-20975000D02*
X69793750Y-20975000D01*
G75*
G02*
X69575000Y-20756250I0J218750D01*
G01*
X69575000Y-20318750D01*
G75*
G02*
X69793750Y-20100000I218750J0D01*
G01*
X70306250Y-20100000D01*
G75*
G02*
X70525000Y-20318750I0J-218750D01*
G01*
X70525000Y-20756250D01*
G75*
G02*
X70306250Y-20975000I-218750J0D01*
G01*
G37*
G36*
G01*
X57587500Y-25206250D02*
X57587500Y-24693750D01*
G75*
G02*
X57806250Y-24475000I218750J0D01*
G01*
X58243750Y-24475000D01*
G75*
G02*
X58462500Y-24693750I0J-218750D01*
G01*
X58462500Y-25206250D01*
G75*
G02*
X58243750Y-25425000I-218750J0D01*
G01*
X57806250Y-25425000D01*
G75*
G02*
X57587500Y-25206250I0J218750D01*
G01*
G37*
G36*
G01*
X59162500Y-25206250D02*
X59162500Y-24693750D01*
G75*
G02*
X59381250Y-24475000I218750J0D01*
G01*
X59818750Y-24475000D01*
G75*
G02*
X60037500Y-24693750I0J-218750D01*
G01*
X60037500Y-25206250D01*
G75*
G02*
X59818750Y-25425000I-218750J0D01*
G01*
X59381250Y-25425000D01*
G75*
G02*
X59162500Y-25206250I0J218750D01*
G01*
G37*
G36*
G01*
X79843750Y-28200000D02*
X80356250Y-28200000D01*
G75*
G02*
X80575000Y-28418750I0J-218750D01*
G01*
X80575000Y-28856250D01*
G75*
G02*
X80356250Y-29075000I-218750J0D01*
G01*
X79843750Y-29075000D01*
G75*
G02*
X79625000Y-28856250I0J218750D01*
G01*
X79625000Y-28418750D01*
G75*
G02*
X79843750Y-28200000I218750J0D01*
G01*
G37*
G36*
G01*
X79843750Y-29775000D02*
X80356250Y-29775000D01*
G75*
G02*
X80575000Y-29993750I0J-218750D01*
G01*
X80575000Y-30431250D01*
G75*
G02*
X80356250Y-30650000I-218750J0D01*
G01*
X79843750Y-30650000D01*
G75*
G02*
X79625000Y-30431250I0J218750D01*
G01*
X79625000Y-29993750D01*
G75*
G02*
X79843750Y-29775000I218750J0D01*
G01*
G37*
G36*
G01*
X68475001Y-26125000D02*
X67924999Y-26125000D01*
G75*
G02*
X67675000Y-25875001I0J249999D01*
G01*
X67675000Y-25324999D01*
G75*
G02*
X67924999Y-25075000I249999J0D01*
G01*
X68475001Y-25075000D01*
G75*
G02*
X68725000Y-25324999I0J-249999D01*
G01*
X68725000Y-25875001D01*
G75*
G02*
X68475001Y-26125000I-249999J0D01*
G01*
G37*
G36*
G01*
X69775001Y-26125000D02*
X69224999Y-26125000D01*
G75*
G02*
X68975000Y-25875001I0J249999D01*
G01*
X68975000Y-25324999D01*
G75*
G02*
X69224999Y-25075000I249999J0D01*
G01*
X69775001Y-25075000D01*
G75*
G02*
X70025000Y-25324999I0J-249999D01*
G01*
X70025000Y-25875001D01*
G75*
G02*
X69775001Y-26125000I-249999J0D01*
G01*
G37*
G36*
G01*
X68475001Y-24825000D02*
X67924999Y-24825000D01*
G75*
G02*
X67675000Y-24575001I0J249999D01*
G01*
X67675000Y-24024999D01*
G75*
G02*
X67924999Y-23775000I249999J0D01*
G01*
X68475001Y-23775000D01*
G75*
G02*
X68725000Y-24024999I0J-249999D01*
G01*
X68725000Y-24575001D01*
G75*
G02*
X68475001Y-24825000I-249999J0D01*
G01*
G37*
G36*
G01*
X69775001Y-24825000D02*
X69224999Y-24825000D01*
G75*
G02*
X68975000Y-24575001I0J249999D01*
G01*
X68975000Y-24024999D01*
G75*
G02*
X69224999Y-23775000I249999J0D01*
G01*
X69775001Y-23775000D01*
G75*
G02*
X70025000Y-24024999I0J-249999D01*
G01*
X70025000Y-24575001D01*
G75*
G02*
X69775001Y-24825000I-249999J0D01*
G01*
G37*
G36*
G01*
X67662500Y-27300000D02*
X67537500Y-27300000D01*
G75*
G02*
X67475000Y-27237500I0J62500D01*
G01*
X67475000Y-26537500D01*
G75*
G02*
X67537500Y-26475000I62500J0D01*
G01*
X67662500Y-26475000D01*
G75*
G02*
X67725000Y-26537500I0J-62500D01*
G01*
X67725000Y-27237500D01*
G75*
G02*
X67662500Y-27300000I-62500J0D01*
G01*
G37*
G36*
G01*
X68162500Y-27300000D02*
X68037500Y-27300000D01*
G75*
G02*
X67975000Y-27237500I0J62500D01*
G01*
X67975000Y-26537500D01*
G75*
G02*
X68037500Y-26475000I62500J0D01*
G01*
X68162500Y-26475000D01*
G75*
G02*
X68225000Y-26537500I0J-62500D01*
G01*
X68225000Y-27237500D01*
G75*
G02*
X68162500Y-27300000I-62500J0D01*
G01*
G37*
G36*
G01*
X68662500Y-27300000D02*
X68537500Y-27300000D01*
G75*
G02*
X68475000Y-27237500I0J62500D01*
G01*
X68475000Y-26537500D01*
G75*
G02*
X68537500Y-26475000I62500J0D01*
G01*
X68662500Y-26475000D01*
G75*
G02*
X68725000Y-26537500I0J-62500D01*
G01*
X68725000Y-27237500D01*
G75*
G02*
X68662500Y-27300000I-62500J0D01*
G01*
G37*
G36*
G01*
X69162500Y-27300000D02*
X69037500Y-27300000D01*
G75*
G02*
X68975000Y-27237500I0J62500D01*
G01*
X68975000Y-26537500D01*
G75*
G02*
X69037500Y-26475000I62500J0D01*
G01*
X69162500Y-26475000D01*
G75*
G02*
X69225000Y-26537500I0J-62500D01*
G01*
X69225000Y-27237500D01*
G75*
G02*
X69162500Y-27300000I-62500J0D01*
G01*
G37*
G36*
G01*
X69662500Y-27300000D02*
X69537500Y-27300000D01*
G75*
G02*
X69475000Y-27237500I0J62500D01*
G01*
X69475000Y-26537500D01*
G75*
G02*
X69537500Y-26475000I62500J0D01*
G01*
X69662500Y-26475000D01*
G75*
G02*
X69725000Y-26537500I0J-62500D01*
G01*
X69725000Y-27237500D01*
G75*
G02*
X69662500Y-27300000I-62500J0D01*
G01*
G37*
G36*
G01*
X70162500Y-27300000D02*
X70037500Y-27300000D01*
G75*
G02*
X69975000Y-27237500I0J62500D01*
G01*
X69975000Y-26537500D01*
G75*
G02*
X70037500Y-26475000I62500J0D01*
G01*
X70162500Y-26475000D01*
G75*
G02*
X70225000Y-26537500I0J-62500D01*
G01*
X70225000Y-27237500D01*
G75*
G02*
X70162500Y-27300000I-62500J0D01*
G01*
G37*
G36*
G01*
X71137500Y-26325000D02*
X70437500Y-26325000D01*
G75*
G02*
X70375000Y-26262500I0J62500D01*
G01*
X70375000Y-26137500D01*
G75*
G02*
X70437500Y-26075000I62500J0D01*
G01*
X71137500Y-26075000D01*
G75*
G02*
X71200000Y-26137500I0J-62500D01*
G01*
X71200000Y-26262500D01*
G75*
G02*
X71137500Y-26325000I-62500J0D01*
G01*
G37*
G36*
G01*
X71137500Y-25825000D02*
X70437500Y-25825000D01*
G75*
G02*
X70375000Y-25762500I0J62500D01*
G01*
X70375000Y-25637500D01*
G75*
G02*
X70437500Y-25575000I62500J0D01*
G01*
X71137500Y-25575000D01*
G75*
G02*
X71200000Y-25637500I0J-62500D01*
G01*
X71200000Y-25762500D01*
G75*
G02*
X71137500Y-25825000I-62500J0D01*
G01*
G37*
G36*
G01*
X71137500Y-25325000D02*
X70437500Y-25325000D01*
G75*
G02*
X70375000Y-25262500I0J62500D01*
G01*
X70375000Y-25137500D01*
G75*
G02*
X70437500Y-25075000I62500J0D01*
G01*
X71137500Y-25075000D01*
G75*
G02*
X71200000Y-25137500I0J-62500D01*
G01*
X71200000Y-25262500D01*
G75*
G02*
X71137500Y-25325000I-62500J0D01*
G01*
G37*
G36*
G01*
X71137500Y-24825000D02*
X70437500Y-24825000D01*
G75*
G02*
X70375000Y-24762500I0J62500D01*
G01*
X70375000Y-24637500D01*
G75*
G02*
X70437500Y-24575000I62500J0D01*
G01*
X71137500Y-24575000D01*
G75*
G02*
X71200000Y-24637500I0J-62500D01*
G01*
X71200000Y-24762500D01*
G75*
G02*
X71137500Y-24825000I-62500J0D01*
G01*
G37*
G36*
G01*
X71137500Y-24325000D02*
X70437500Y-24325000D01*
G75*
G02*
X70375000Y-24262500I0J62500D01*
G01*
X70375000Y-24137500D01*
G75*
G02*
X70437500Y-24075000I62500J0D01*
G01*
X71137500Y-24075000D01*
G75*
G02*
X71200000Y-24137500I0J-62500D01*
G01*
X71200000Y-24262500D01*
G75*
G02*
X71137500Y-24325000I-62500J0D01*
G01*
G37*
G36*
G01*
X71137500Y-23825000D02*
X70437500Y-23825000D01*
G75*
G02*
X70375000Y-23762500I0J62500D01*
G01*
X70375000Y-23637500D01*
G75*
G02*
X70437500Y-23575000I62500J0D01*
G01*
X71137500Y-23575000D01*
G75*
G02*
X71200000Y-23637500I0J-62500D01*
G01*
X71200000Y-23762500D01*
G75*
G02*
X71137500Y-23825000I-62500J0D01*
G01*
G37*
G36*
G01*
X70162500Y-23425000D02*
X70037500Y-23425000D01*
G75*
G02*
X69975000Y-23362500I0J62500D01*
G01*
X69975000Y-22662500D01*
G75*
G02*
X70037500Y-22600000I62500J0D01*
G01*
X70162500Y-22600000D01*
G75*
G02*
X70225000Y-22662500I0J-62500D01*
G01*
X70225000Y-23362500D01*
G75*
G02*
X70162500Y-23425000I-62500J0D01*
G01*
G37*
G36*
G01*
X69662500Y-23425000D02*
X69537500Y-23425000D01*
G75*
G02*
X69475000Y-23362500I0J62500D01*
G01*
X69475000Y-22662500D01*
G75*
G02*
X69537500Y-22600000I62500J0D01*
G01*
X69662500Y-22600000D01*
G75*
G02*
X69725000Y-22662500I0J-62500D01*
G01*
X69725000Y-23362500D01*
G75*
G02*
X69662500Y-23425000I-62500J0D01*
G01*
G37*
G36*
G01*
X69162500Y-23425000D02*
X69037500Y-23425000D01*
G75*
G02*
X68975000Y-23362500I0J62500D01*
G01*
X68975000Y-22662500D01*
G75*
G02*
X69037500Y-22600000I62500J0D01*
G01*
X69162500Y-22600000D01*
G75*
G02*
X69225000Y-22662500I0J-62500D01*
G01*
X69225000Y-23362500D01*
G75*
G02*
X69162500Y-23425000I-62500J0D01*
G01*
G37*
G36*
G01*
X68662500Y-23425000D02*
X68537500Y-23425000D01*
G75*
G02*
X68475000Y-23362500I0J62500D01*
G01*
X68475000Y-22662500D01*
G75*
G02*
X68537500Y-22600000I62500J0D01*
G01*
X68662500Y-22600000D01*
G75*
G02*
X68725000Y-22662500I0J-62500D01*
G01*
X68725000Y-23362500D01*
G75*
G02*
X68662500Y-23425000I-62500J0D01*
G01*
G37*
G36*
G01*
X68162500Y-23425000D02*
X68037500Y-23425000D01*
G75*
G02*
X67975000Y-23362500I0J62500D01*
G01*
X67975000Y-22662500D01*
G75*
G02*
X68037500Y-22600000I62500J0D01*
G01*
X68162500Y-22600000D01*
G75*
G02*
X68225000Y-22662500I0J-62500D01*
G01*
X68225000Y-23362500D01*
G75*
G02*
X68162500Y-23425000I-62500J0D01*
G01*
G37*
G36*
G01*
X67662500Y-23425000D02*
X67537500Y-23425000D01*
G75*
G02*
X67475000Y-23362500I0J62500D01*
G01*
X67475000Y-22662500D01*
G75*
G02*
X67537500Y-22600000I62500J0D01*
G01*
X67662500Y-22600000D01*
G75*
G02*
X67725000Y-22662500I0J-62500D01*
G01*
X67725000Y-23362500D01*
G75*
G02*
X67662500Y-23425000I-62500J0D01*
G01*
G37*
G36*
G01*
X67262500Y-23825000D02*
X66562500Y-23825000D01*
G75*
G02*
X66500000Y-23762500I0J62500D01*
G01*
X66500000Y-23637500D01*
G75*
G02*
X66562500Y-23575000I62500J0D01*
G01*
X67262500Y-23575000D01*
G75*
G02*
X67325000Y-23637500I0J-62500D01*
G01*
X67325000Y-23762500D01*
G75*
G02*
X67262500Y-23825000I-62500J0D01*
G01*
G37*
G36*
G01*
X67262500Y-24325000D02*
X66562500Y-24325000D01*
G75*
G02*
X66500000Y-24262500I0J62500D01*
G01*
X66500000Y-24137500D01*
G75*
G02*
X66562500Y-24075000I62500J0D01*
G01*
X67262500Y-24075000D01*
G75*
G02*
X67325000Y-24137500I0J-62500D01*
G01*
X67325000Y-24262500D01*
G75*
G02*
X67262500Y-24325000I-62500J0D01*
G01*
G37*
G36*
G01*
X67262500Y-24825000D02*
X66562500Y-24825000D01*
G75*
G02*
X66500000Y-24762500I0J62500D01*
G01*
X66500000Y-24637500D01*
G75*
G02*
X66562500Y-24575000I62500J0D01*
G01*
X67262500Y-24575000D01*
G75*
G02*
X67325000Y-24637500I0J-62500D01*
G01*
X67325000Y-24762500D01*
G75*
G02*
X67262500Y-24825000I-62500J0D01*
G01*
G37*
G36*
G01*
X67262500Y-25325000D02*
X66562500Y-25325000D01*
G75*
G02*
X66500000Y-25262500I0J62500D01*
G01*
X66500000Y-25137500D01*
G75*
G02*
X66562500Y-25075000I62500J0D01*
G01*
X67262500Y-25075000D01*
G75*
G02*
X67325000Y-25137500I0J-62500D01*
G01*
X67325000Y-25262500D01*
G75*
G02*
X67262500Y-25325000I-62500J0D01*
G01*
G37*
G36*
G01*
X67262500Y-25825000D02*
X66562500Y-25825000D01*
G75*
G02*
X66500000Y-25762500I0J62500D01*
G01*
X66500000Y-25637500D01*
G75*
G02*
X66562500Y-25575000I62500J0D01*
G01*
X67262500Y-25575000D01*
G75*
G02*
X67325000Y-25637500I0J-62500D01*
G01*
X67325000Y-25762500D01*
G75*
G02*
X67262500Y-25825000I-62500J0D01*
G01*
G37*
G36*
G01*
X67262500Y-26325000D02*
X66562500Y-26325000D01*
G75*
G02*
X66500000Y-26262500I0J62500D01*
G01*
X66500000Y-26137500D01*
G75*
G02*
X66562500Y-26075000I62500J0D01*
G01*
X67262500Y-26075000D01*
G75*
G02*
X67325000Y-26137500I0J-62500D01*
G01*
X67325000Y-26262500D01*
G75*
G02*
X67262500Y-26325000I-62500J0D01*
G01*
G37*
M02*
