G04 #@! TF.GenerationSoftware,KiCad,Pcbnew,(5.1.6)-1*
G04 #@! TF.CreationDate,2020-09-10T01:06:56+02:00*
G04 #@! TF.ProjectId,BananaSchplit,42616e61-6e61-4536-9368-706c69742e6b,rev?*
G04 #@! TF.SameCoordinates,Original*
G04 #@! TF.FileFunction,Copper,L2,Bot*
G04 #@! TF.FilePolarity,Positive*
%FSLAX46Y46*%
G04 Gerber Fmt 4.6, Leading zero omitted, Abs format (unit mm)*
G04 Created by KiCad (PCBNEW (5.1.6)-1) date 2020-09-10 01:06:56*
%MOMM*%
%LPD*%
G01*
G04 APERTURE LIST*
G04 #@! TA.AperFunction,Conductor*
%ADD10R,2.950000X4.500000*%
G04 #@! TD*
G04 #@! TA.AperFunction,ComponentPad*
%ADD11C,2.600000*%
G04 #@! TD*
G04 #@! TA.AperFunction,ComponentPad*
%ADD12R,2.600000X2.600000*%
G04 #@! TD*
G04 #@! TA.AperFunction,ViaPad*
%ADD13C,0.600000*%
G04 #@! TD*
G04 #@! TA.AperFunction,ViaPad*
%ADD14C,0.800000*%
G04 #@! TD*
G04 #@! TA.AperFunction,ViaPad*
%ADD15C,1.000000*%
G04 #@! TD*
G04 #@! TA.AperFunction,Conductor*
%ADD16C,0.500000*%
G04 #@! TD*
G04 #@! TA.AperFunction,Conductor*
%ADD17C,0.750000*%
G04 #@! TD*
G04 #@! TA.AperFunction,Conductor*
%ADD18C,0.254000*%
G04 #@! TD*
G04 APERTURE END LIST*
D10*
X47850000Y-20895000D03*
D11*
X40875000Y-42250000D03*
D12*
X35875000Y-42250000D03*
X25000000Y-29300000D03*
D11*
X25000000Y-34300000D03*
X63100000Y-42250000D03*
D12*
X58100000Y-42250000D03*
X80325000Y-42250000D03*
D11*
X85325000Y-42250000D03*
D13*
X68850000Y-24950000D03*
X68000000Y-24950000D03*
X68000000Y-24100000D03*
X68850000Y-24100000D03*
X69700000Y-24100000D03*
X69700000Y-24950000D03*
X69700000Y-25800000D03*
X68850000Y-25800000D03*
X68000000Y-25800000D03*
D14*
X56950000Y-26250000D03*
X57125000Y-24950000D03*
X60425000Y-23700000D03*
X63875000Y-22525000D03*
X62825000Y-20100000D03*
X66825000Y-18075000D03*
X79050000Y-28100000D03*
X81025000Y-28625000D03*
X81175000Y-25900000D03*
X81175000Y-25000000D03*
X77750000Y-25000000D03*
X77750000Y-25900000D03*
X68950000Y-33650000D03*
X69050000Y-32500000D03*
X52575000Y-43925000D03*
X72825000Y-44125000D03*
X30325000Y-44075000D03*
X27500000Y-17000000D03*
X30000000Y-17000000D03*
X32500000Y-17000000D03*
X35000000Y-17000000D03*
X37500000Y-17000000D03*
X60000000Y-17000000D03*
X62500000Y-17000000D03*
X65000000Y-17000000D03*
X67500000Y-17000000D03*
X70000000Y-17000000D03*
X72500000Y-17000000D03*
X75000000Y-17000000D03*
X77500000Y-17000000D03*
X80000000Y-17000000D03*
X82500000Y-17000000D03*
X85000000Y-17000000D03*
X87500000Y-17000000D03*
X90000000Y-17000000D03*
X25000000Y-17000000D03*
X20500000Y-27500000D03*
X20500000Y-42500000D03*
X20500000Y-40000000D03*
X20500000Y-37500000D03*
X20500000Y-35000000D03*
X20500000Y-32500000D03*
X20500000Y-30000000D03*
X20500000Y-25000000D03*
X20500000Y-22500000D03*
X25000000Y-46500000D03*
X32500000Y-46500000D03*
X35000000Y-46500000D03*
X52500000Y-46500000D03*
X72500000Y-46500000D03*
X82500000Y-46500000D03*
X40000000Y-46500000D03*
X42500000Y-46500000D03*
X65000000Y-46500000D03*
X60000000Y-46500000D03*
X47500000Y-46500000D03*
X50000000Y-46500000D03*
X55000000Y-46500000D03*
X67500000Y-46500000D03*
X27500000Y-46500000D03*
X75000000Y-46500000D03*
X37500000Y-46500000D03*
X45000000Y-46500000D03*
X70000000Y-46500000D03*
X57500000Y-46500000D03*
X87500000Y-46500000D03*
X62500000Y-46500000D03*
X80000000Y-46500000D03*
X85000000Y-46500000D03*
X90000000Y-46500000D03*
X77500000Y-46500000D03*
X30000000Y-46500000D03*
X95000000Y-22500000D03*
X95000000Y-32500000D03*
X95000000Y-25000000D03*
X95000000Y-30000000D03*
X95000000Y-35000000D03*
X95000000Y-27500000D03*
X95000000Y-40000000D03*
X95000000Y-37500000D03*
X95000000Y-42500000D03*
X67150000Y-29450000D03*
X68250000Y-29450000D03*
X67150000Y-30500000D03*
X68250000Y-30500000D03*
X67150000Y-31550000D03*
X68250000Y-31550000D03*
X30000000Y-20000000D03*
X30000000Y-22500000D03*
X30000000Y-25000000D03*
X27500000Y-25000000D03*
X25000000Y-25000000D03*
X27500000Y-22500000D03*
X27500000Y-20000000D03*
X25000000Y-22500000D03*
X25000000Y-37500000D03*
X25000000Y-40000000D03*
X32500000Y-32500000D03*
X57500000Y-20000000D03*
X60000000Y-20000000D03*
X60000000Y-22500000D03*
X57500000Y-22500000D03*
X85000000Y-20000000D03*
X87500000Y-20000000D03*
X82500000Y-27500000D03*
X92500000Y-35000000D03*
X87500000Y-35000000D03*
X85000000Y-35000000D03*
X85000000Y-37500000D03*
X90000000Y-35000000D03*
X90000000Y-37500000D03*
X87500000Y-37500000D03*
X92500000Y-37500000D03*
X92500000Y-40000000D03*
X90000000Y-40000000D03*
X70000000Y-42500000D03*
X32500000Y-37500000D03*
X90000000Y-20000000D03*
X85000000Y-27500000D03*
X92500000Y-27500000D03*
X85000000Y-30000000D03*
X87500000Y-22500000D03*
X90000000Y-22500000D03*
X92500000Y-22500000D03*
X92500000Y-32500000D03*
X40000000Y-17000000D03*
X57500000Y-17000000D03*
X55000000Y-17000000D03*
X44050000Y-20250000D03*
X41700000Y-20550000D03*
X41700000Y-18450000D03*
X43000000Y-19500000D03*
X46800000Y-19050000D03*
X48900000Y-19050000D03*
X46800000Y-20250000D03*
X48900000Y-20250000D03*
X48900000Y-21550000D03*
X46800000Y-21550000D03*
X46800000Y-22800000D03*
X48900000Y-22800000D03*
X49100000Y-17350000D03*
X50250000Y-17350000D03*
X38550000Y-29050000D03*
X36050000Y-29050000D03*
X37300000Y-26850000D03*
X37300000Y-31250000D03*
X36400000Y-25100000D03*
X38200000Y-25100000D03*
X37300000Y-23200000D03*
X56950000Y-27450000D03*
X71150000Y-32500000D03*
X46650000Y-44800000D03*
X48350000Y-44800000D03*
X67500000Y-40000000D03*
X70000000Y-44450000D03*
X70000000Y-40000000D03*
X61050000Y-40000000D03*
X65150000Y-40000000D03*
X76500000Y-40000000D03*
X77900000Y-36850000D03*
X77900000Y-35000000D03*
X22700000Y-25000000D03*
X22700000Y-22500000D03*
X22700000Y-37500000D03*
X22700000Y-40000000D03*
X25000000Y-42500000D03*
X77900000Y-31650000D03*
X36100000Y-22300000D03*
X33750000Y-21500000D03*
D13*
X69600000Y-28200000D03*
X71900000Y-25300000D03*
X71900000Y-24500000D03*
D14*
X72600000Y-20537500D03*
X75200000Y-25200000D03*
X72425000Y-30950000D03*
X72425000Y-29925000D03*
X73450000Y-29925000D03*
X73450000Y-30950000D03*
D15*
X52250000Y-35000000D03*
X53750000Y-35000000D03*
X52250000Y-36500000D03*
X53750000Y-36500000D03*
D16*
X69600000Y-27600000D02*
X71900000Y-25300000D01*
X69600000Y-28200000D02*
X69600000Y-27600000D01*
D17*
X75200000Y-23137500D02*
X72600000Y-20537500D01*
X75200000Y-25200000D02*
X75200000Y-23137500D01*
D18*
G36*
X93352572Y-16509307D02*
G01*
X93884093Y-16669783D01*
X94374333Y-16930448D01*
X94804596Y-17281361D01*
X95158507Y-17709167D01*
X95422583Y-18197566D01*
X95586768Y-18727961D01*
X95648001Y-19310552D01*
X95648000Y-44268115D01*
X95590693Y-44852572D01*
X95430217Y-45384096D01*
X95169554Y-45874330D01*
X94818641Y-46304594D01*
X94390832Y-46658508D01*
X93902432Y-46922585D01*
X93372039Y-47086768D01*
X92789457Y-47148000D01*
X22831885Y-47148000D01*
X22247428Y-47090693D01*
X21715904Y-46930217D01*
X21225670Y-46669554D01*
X20795406Y-46318641D01*
X20441492Y-45890832D01*
X20177415Y-45402432D01*
X20013232Y-44872039D01*
X19952000Y-44289457D01*
X19952000Y-44080660D01*
X20573000Y-44080660D01*
X20573000Y-44519340D01*
X20658582Y-44949592D01*
X20826458Y-45354880D01*
X21070176Y-45719630D01*
X21380370Y-46029824D01*
X21745120Y-46273542D01*
X22150408Y-46441418D01*
X22580660Y-46527000D01*
X23019340Y-46527000D01*
X23449592Y-46441418D01*
X23854880Y-46273542D01*
X24219630Y-46029824D01*
X24529824Y-45719630D01*
X24773542Y-45354880D01*
X24941418Y-44949592D01*
X25027000Y-44519340D01*
X25027000Y-44080660D01*
X24941418Y-43650408D01*
X24773542Y-43245120D01*
X24529824Y-42880370D01*
X24219630Y-42570176D01*
X23854880Y-42326458D01*
X23449592Y-42158582D01*
X23019340Y-42073000D01*
X22580660Y-42073000D01*
X22150408Y-42158582D01*
X21745120Y-42326458D01*
X21380370Y-42570176D01*
X21070176Y-42880370D01*
X20826458Y-43245120D01*
X20658582Y-43650408D01*
X20573000Y-44080660D01*
X19952000Y-44080660D01*
X19952000Y-40950000D01*
X33944967Y-40950000D01*
X33944967Y-43550000D01*
X33957073Y-43672913D01*
X33992925Y-43791103D01*
X34051147Y-43900028D01*
X34129499Y-43995501D01*
X34224972Y-44073853D01*
X34333897Y-44132075D01*
X34452087Y-44167927D01*
X34575000Y-44180033D01*
X37175000Y-44180033D01*
X37297913Y-44167927D01*
X37416103Y-44132075D01*
X37525028Y-44073853D01*
X37620501Y-43995501D01*
X37698853Y-43900028D01*
X37746860Y-43810212D01*
X40019066Y-43810212D01*
X40178033Y-44056540D01*
X40543863Y-44157800D01*
X40922419Y-44185744D01*
X41299153Y-44139298D01*
X41571967Y-44056540D01*
X41730934Y-43810212D01*
X40875000Y-42954278D01*
X40019066Y-43810212D01*
X37746860Y-43810212D01*
X37757075Y-43791103D01*
X37792927Y-43672913D01*
X37805033Y-43550000D01*
X37805033Y-42297419D01*
X38939256Y-42297419D01*
X38985702Y-42674153D01*
X39068460Y-42946967D01*
X39314788Y-43105934D01*
X40170722Y-42250000D01*
X41579278Y-42250000D01*
X42435212Y-43105934D01*
X42681540Y-42946967D01*
X42782800Y-42581137D01*
X42810744Y-42202581D01*
X42764298Y-41825847D01*
X42681540Y-41553033D01*
X42435212Y-41394066D01*
X41579278Y-42250000D01*
X40170722Y-42250000D01*
X39314788Y-41394066D01*
X39068460Y-41553033D01*
X38967200Y-41918863D01*
X38939256Y-42297419D01*
X37805033Y-42297419D01*
X37805033Y-40950000D01*
X37792927Y-40827087D01*
X37757075Y-40708897D01*
X37746861Y-40689788D01*
X40019066Y-40689788D01*
X40875000Y-41545722D01*
X41470722Y-40950000D01*
X56169967Y-40950000D01*
X56169967Y-43550000D01*
X56182073Y-43672913D01*
X56217925Y-43791103D01*
X56276147Y-43900028D01*
X56354499Y-43995501D01*
X56449972Y-44073853D01*
X56558897Y-44132075D01*
X56677087Y-44167927D01*
X56800000Y-44180033D01*
X59400000Y-44180033D01*
X59522913Y-44167927D01*
X59641103Y-44132075D01*
X59750028Y-44073853D01*
X59845501Y-43995501D01*
X59923853Y-43900028D01*
X59971860Y-43810212D01*
X62244066Y-43810212D01*
X62403033Y-44056540D01*
X62768863Y-44157800D01*
X63147419Y-44185744D01*
X63524153Y-44139298D01*
X63796967Y-44056540D01*
X63955934Y-43810212D01*
X63100000Y-42954278D01*
X62244066Y-43810212D01*
X59971860Y-43810212D01*
X59982075Y-43791103D01*
X60017927Y-43672913D01*
X60030033Y-43550000D01*
X60030033Y-42297419D01*
X61164256Y-42297419D01*
X61210702Y-42674153D01*
X61293460Y-42946967D01*
X61539788Y-43105934D01*
X62395722Y-42250000D01*
X63804278Y-42250000D01*
X64660212Y-43105934D01*
X64906540Y-42946967D01*
X65007800Y-42581137D01*
X65035744Y-42202581D01*
X64989298Y-41825847D01*
X64906540Y-41553033D01*
X64660212Y-41394066D01*
X63804278Y-42250000D01*
X62395722Y-42250000D01*
X61539788Y-41394066D01*
X61293460Y-41553033D01*
X61192200Y-41918863D01*
X61164256Y-42297419D01*
X60030033Y-42297419D01*
X60030033Y-40950000D01*
X60017927Y-40827087D01*
X59982075Y-40708897D01*
X59971861Y-40689788D01*
X62244066Y-40689788D01*
X63100000Y-41545722D01*
X63695722Y-40950000D01*
X78394967Y-40950000D01*
X78394967Y-43550000D01*
X78407073Y-43672913D01*
X78442925Y-43791103D01*
X78501147Y-43900028D01*
X78579499Y-43995501D01*
X78674972Y-44073853D01*
X78783897Y-44132075D01*
X78902087Y-44167927D01*
X79025000Y-44180033D01*
X81625000Y-44180033D01*
X81747913Y-44167927D01*
X81866103Y-44132075D01*
X81975028Y-44073853D01*
X82070501Y-43995501D01*
X82148853Y-43900028D01*
X82196860Y-43810212D01*
X84469066Y-43810212D01*
X84628033Y-44056540D01*
X84993863Y-44157800D01*
X85372419Y-44185744D01*
X85749153Y-44139298D01*
X86021967Y-44056540D01*
X86180934Y-43810212D01*
X85325000Y-42954278D01*
X84469066Y-43810212D01*
X82196860Y-43810212D01*
X82207075Y-43791103D01*
X82242927Y-43672913D01*
X82255033Y-43550000D01*
X82255033Y-42297419D01*
X83389256Y-42297419D01*
X83435702Y-42674153D01*
X83518460Y-42946967D01*
X83764788Y-43105934D01*
X84620722Y-42250000D01*
X86029278Y-42250000D01*
X86885212Y-43105934D01*
X87131540Y-42946967D01*
X87232800Y-42581137D01*
X87260744Y-42202581D01*
X87242737Y-42056515D01*
X90047000Y-42056515D01*
X90047000Y-42293485D01*
X90093230Y-42525902D01*
X90183915Y-42744834D01*
X90315569Y-42941868D01*
X90483132Y-43109431D01*
X90680166Y-43241085D01*
X90806461Y-43293398D01*
X90658582Y-43650408D01*
X90573000Y-44080660D01*
X90573000Y-44519340D01*
X90658582Y-44949592D01*
X90826458Y-45354880D01*
X91070176Y-45719630D01*
X91380370Y-46029824D01*
X91745120Y-46273542D01*
X92150408Y-46441418D01*
X92580660Y-46527000D01*
X93019340Y-46527000D01*
X93449592Y-46441418D01*
X93854880Y-46273542D01*
X94219630Y-46029824D01*
X94529824Y-45719630D01*
X94773542Y-45354880D01*
X94941418Y-44949592D01*
X95027000Y-44519340D01*
X95027000Y-44080660D01*
X94941418Y-43650408D01*
X94773542Y-43245120D01*
X94529824Y-42880370D01*
X94219630Y-42570176D01*
X93854880Y-42326458D01*
X93449592Y-42158582D01*
X93019340Y-42073000D01*
X92580660Y-42073000D01*
X92453000Y-42098393D01*
X92453000Y-42056515D01*
X92406770Y-41824098D01*
X92316085Y-41605166D01*
X92184431Y-41408132D01*
X92016868Y-41240569D01*
X91819834Y-41108915D01*
X91600902Y-41018230D01*
X91368485Y-40972000D01*
X91131515Y-40972000D01*
X90899098Y-41018230D01*
X90680166Y-41108915D01*
X90483132Y-41240569D01*
X90315569Y-41408132D01*
X90183915Y-41605166D01*
X90093230Y-41824098D01*
X90047000Y-42056515D01*
X87242737Y-42056515D01*
X87214298Y-41825847D01*
X87131540Y-41553033D01*
X86885212Y-41394066D01*
X86029278Y-42250000D01*
X84620722Y-42250000D01*
X83764788Y-41394066D01*
X83518460Y-41553033D01*
X83417200Y-41918863D01*
X83389256Y-42297419D01*
X82255033Y-42297419D01*
X82255033Y-40950000D01*
X82242927Y-40827087D01*
X82207075Y-40708897D01*
X82196861Y-40689788D01*
X84469066Y-40689788D01*
X85325000Y-41545722D01*
X86180934Y-40689788D01*
X86021967Y-40443460D01*
X85656137Y-40342200D01*
X85277581Y-40314256D01*
X84900847Y-40360702D01*
X84628033Y-40443460D01*
X84469066Y-40689788D01*
X82196861Y-40689788D01*
X82148853Y-40599972D01*
X82070501Y-40504499D01*
X81975028Y-40426147D01*
X81866103Y-40367925D01*
X81747913Y-40332073D01*
X81625000Y-40319967D01*
X79025000Y-40319967D01*
X78902087Y-40332073D01*
X78783897Y-40367925D01*
X78674972Y-40426147D01*
X78579499Y-40504499D01*
X78501147Y-40599972D01*
X78442925Y-40708897D01*
X78407073Y-40827087D01*
X78394967Y-40950000D01*
X63695722Y-40950000D01*
X63955934Y-40689788D01*
X63796967Y-40443460D01*
X63431137Y-40342200D01*
X63052581Y-40314256D01*
X62675847Y-40360702D01*
X62403033Y-40443460D01*
X62244066Y-40689788D01*
X59971861Y-40689788D01*
X59923853Y-40599972D01*
X59845501Y-40504499D01*
X59750028Y-40426147D01*
X59641103Y-40367925D01*
X59522913Y-40332073D01*
X59400000Y-40319967D01*
X56800000Y-40319967D01*
X56677087Y-40332073D01*
X56558897Y-40367925D01*
X56449972Y-40426147D01*
X56354499Y-40504499D01*
X56276147Y-40599972D01*
X56217925Y-40708897D01*
X56182073Y-40827087D01*
X56169967Y-40950000D01*
X41470722Y-40950000D01*
X41730934Y-40689788D01*
X41571967Y-40443460D01*
X41206137Y-40342200D01*
X40827581Y-40314256D01*
X40450847Y-40360702D01*
X40178033Y-40443460D01*
X40019066Y-40689788D01*
X37746861Y-40689788D01*
X37698853Y-40599972D01*
X37620501Y-40504499D01*
X37525028Y-40426147D01*
X37416103Y-40367925D01*
X37297913Y-40332073D01*
X37175000Y-40319967D01*
X34575000Y-40319967D01*
X34452087Y-40332073D01*
X34333897Y-40367925D01*
X34224972Y-40426147D01*
X34129499Y-40504499D01*
X34051147Y-40599972D01*
X33992925Y-40708897D01*
X33957073Y-40827087D01*
X33944967Y-40950000D01*
X19952000Y-40950000D01*
X19952000Y-35860212D01*
X24144066Y-35860212D01*
X24303033Y-36106540D01*
X24668863Y-36207800D01*
X25047419Y-36235744D01*
X25424153Y-36189298D01*
X25696967Y-36106540D01*
X25855934Y-35860212D01*
X25245722Y-35250000D01*
X50873000Y-35250000D01*
X50873000Y-36300000D01*
X50876019Y-36361458D01*
X50895234Y-36556548D01*
X50919213Y-36677096D01*
X50976118Y-36864689D01*
X51023155Y-36978249D01*
X51115565Y-37151136D01*
X51183852Y-37253334D01*
X51308215Y-37404871D01*
X51395129Y-37491785D01*
X51546666Y-37616148D01*
X51648864Y-37684435D01*
X51821751Y-37776845D01*
X51935311Y-37823882D01*
X52122904Y-37880787D01*
X52243452Y-37904766D01*
X52438542Y-37923981D01*
X52500000Y-37927000D01*
X72850000Y-37927000D01*
X72911458Y-37923981D01*
X73106548Y-37904766D01*
X73227096Y-37880787D01*
X73414689Y-37823882D01*
X73528249Y-37776845D01*
X73701136Y-37684435D01*
X73803334Y-37616148D01*
X73954871Y-37491785D01*
X74041785Y-37404871D01*
X74166148Y-37253334D01*
X74234435Y-37151136D01*
X74326845Y-36978249D01*
X74373882Y-36864689D01*
X74430787Y-36677096D01*
X74454766Y-36556548D01*
X74473981Y-36361458D01*
X74477000Y-36300000D01*
X74477000Y-30425000D01*
X74473981Y-30363542D01*
X74456207Y-30183083D01*
X74450996Y-30156884D01*
X74477000Y-30026151D01*
X74477000Y-29823849D01*
X74437533Y-29625435D01*
X74360115Y-29438533D01*
X74247723Y-29270326D01*
X74104674Y-29127277D01*
X73936467Y-29014885D01*
X73749565Y-28937467D01*
X73551151Y-28898000D01*
X73348849Y-28898000D01*
X73268457Y-28913991D01*
X73166917Y-28893793D01*
X72986458Y-28876019D01*
X72863542Y-28876019D01*
X72683083Y-28893793D01*
X72594043Y-28911504D01*
X72526151Y-28898000D01*
X72323849Y-28898000D01*
X72125435Y-28937467D01*
X71938533Y-29014885D01*
X71770326Y-29127277D01*
X71627277Y-29270326D01*
X71514885Y-29438533D01*
X71437467Y-29625435D01*
X71398000Y-29823849D01*
X71398000Y-30026151D01*
X71411504Y-30094043D01*
X71393793Y-30183083D01*
X71376019Y-30363542D01*
X71373000Y-30425000D01*
X71373000Y-34219194D01*
X71362857Y-34322180D01*
X71341806Y-34391577D01*
X71307614Y-34455544D01*
X71261606Y-34511606D01*
X71205544Y-34557614D01*
X71141577Y-34591806D01*
X71072180Y-34612857D01*
X70969194Y-34623000D01*
X55115690Y-34623000D01*
X55104599Y-34538751D01*
X55062235Y-34380648D01*
X55012285Y-34260058D01*
X54930443Y-34118304D01*
X54850983Y-34014751D01*
X54735249Y-33899017D01*
X54631696Y-33819557D01*
X54489942Y-33737715D01*
X54369352Y-33687765D01*
X54211249Y-33645401D01*
X54081839Y-33628364D01*
X54000000Y-33623000D01*
X52500000Y-33623000D01*
X52438542Y-33626019D01*
X52243452Y-33645234D01*
X52122904Y-33669213D01*
X51935311Y-33726118D01*
X51821751Y-33773155D01*
X51648864Y-33865565D01*
X51546666Y-33933852D01*
X51395129Y-34058215D01*
X51308215Y-34145129D01*
X51183852Y-34296666D01*
X51115565Y-34398864D01*
X51023155Y-34571751D01*
X50976118Y-34685311D01*
X50919213Y-34872904D01*
X50895234Y-34993452D01*
X50876019Y-35188542D01*
X50873000Y-35250000D01*
X25245722Y-35250000D01*
X25000000Y-35004278D01*
X24144066Y-35860212D01*
X19952000Y-35860212D01*
X19952000Y-34347419D01*
X23064256Y-34347419D01*
X23110702Y-34724153D01*
X23193460Y-34996967D01*
X23439788Y-35155934D01*
X24295722Y-34300000D01*
X25704278Y-34300000D01*
X26560212Y-35155934D01*
X26806540Y-34996967D01*
X26907800Y-34631137D01*
X26935744Y-34252581D01*
X26889298Y-33875847D01*
X26806540Y-33603033D01*
X26560212Y-33444066D01*
X25704278Y-34300000D01*
X24295722Y-34300000D01*
X23439788Y-33444066D01*
X23193460Y-33603033D01*
X23092200Y-33968863D01*
X23064256Y-34347419D01*
X19952000Y-34347419D01*
X19952000Y-32739788D01*
X24144066Y-32739788D01*
X25000000Y-33595722D01*
X25855934Y-32739788D01*
X25696967Y-32493460D01*
X25331137Y-32392200D01*
X24952581Y-32364256D01*
X24575847Y-32410702D01*
X24303033Y-32493460D01*
X24144066Y-32739788D01*
X19952000Y-32739788D01*
X19952000Y-28000000D01*
X23069967Y-28000000D01*
X23069967Y-30600000D01*
X23082073Y-30722913D01*
X23117925Y-30841103D01*
X23176147Y-30950028D01*
X23254499Y-31045501D01*
X23349972Y-31123853D01*
X23458897Y-31182075D01*
X23577087Y-31217927D01*
X23700000Y-31230033D01*
X26300000Y-31230033D01*
X26422913Y-31217927D01*
X26541103Y-31182075D01*
X26650028Y-31123853D01*
X26745501Y-31045501D01*
X26823853Y-30950028D01*
X26882075Y-30841103D01*
X26917927Y-30722913D01*
X26930033Y-30600000D01*
X26930033Y-28108699D01*
X68673000Y-28108699D01*
X68673000Y-28291301D01*
X68708624Y-28470396D01*
X68778504Y-28639099D01*
X68879952Y-28790928D01*
X69009072Y-28920048D01*
X69160901Y-29021496D01*
X69329604Y-29091376D01*
X69508699Y-29127000D01*
X69691301Y-29127000D01*
X69870396Y-29091376D01*
X70039099Y-29021496D01*
X70190928Y-28920048D01*
X70320048Y-28790928D01*
X70421496Y-28639099D01*
X70491376Y-28470396D01*
X70527000Y-28291301D01*
X70527000Y-28108699D01*
X70494576Y-27945689D01*
X72304393Y-26135872D01*
X72339099Y-26121496D01*
X72490928Y-26020048D01*
X72620048Y-25890928D01*
X72721496Y-25739099D01*
X72791376Y-25570396D01*
X72827000Y-25391301D01*
X72827000Y-25208699D01*
X72791376Y-25029604D01*
X72737692Y-24900000D01*
X72791376Y-24770396D01*
X72827000Y-24591301D01*
X72827000Y-24408699D01*
X72791376Y-24229604D01*
X72721496Y-24060901D01*
X72620048Y-23909072D01*
X72490928Y-23779952D01*
X72339099Y-23678504D01*
X72170396Y-23608624D01*
X71991301Y-23573000D01*
X71808699Y-23573000D01*
X71629604Y-23608624D01*
X71460901Y-23678504D01*
X71309072Y-23779952D01*
X71179952Y-23909072D01*
X71078504Y-24060901D01*
X71008624Y-24229604D01*
X70973000Y-24408699D01*
X70973000Y-24591301D01*
X71008624Y-24770396D01*
X71061555Y-24898180D01*
X69010327Y-26949408D01*
X68976868Y-26976867D01*
X68949409Y-27010326D01*
X68949406Y-27010329D01*
X68867274Y-27110408D01*
X68785838Y-27262763D01*
X68785838Y-27262764D01*
X68735690Y-27428078D01*
X68718757Y-27600000D01*
X68723000Y-27643079D01*
X68723000Y-27894898D01*
X68708624Y-27929604D01*
X68673000Y-28108699D01*
X26930033Y-28108699D01*
X26930033Y-28000000D01*
X26917927Y-27877087D01*
X26882075Y-27758897D01*
X26823853Y-27649972D01*
X26745501Y-27554499D01*
X26650028Y-27476147D01*
X26541103Y-27417925D01*
X26422913Y-27382073D01*
X26300000Y-27369967D01*
X23700000Y-27369967D01*
X23577087Y-27382073D01*
X23458897Y-27417925D01*
X23349972Y-27476147D01*
X23254499Y-27554499D01*
X23176147Y-27649972D01*
X23117925Y-27758897D01*
X23082073Y-27877087D01*
X23069967Y-28000000D01*
X19952000Y-28000000D01*
X19952000Y-19331885D01*
X19976633Y-19080660D01*
X20573000Y-19080660D01*
X20573000Y-19519340D01*
X20658582Y-19949592D01*
X20826458Y-20354880D01*
X21070176Y-20719630D01*
X21380370Y-21029824D01*
X21745120Y-21273542D01*
X22150408Y-21441418D01*
X22580660Y-21527000D01*
X23019340Y-21527000D01*
X23449592Y-21441418D01*
X23854880Y-21273542D01*
X23893653Y-21247634D01*
X23933915Y-21344834D01*
X24065569Y-21541868D01*
X24233132Y-21709431D01*
X24430166Y-21841085D01*
X24649098Y-21931770D01*
X24881515Y-21978000D01*
X25118485Y-21978000D01*
X25350902Y-21931770D01*
X25569834Y-21841085D01*
X25766868Y-21709431D01*
X25934431Y-21541868D01*
X26066085Y-21344834D01*
X26156770Y-21125902D01*
X26203000Y-20893485D01*
X26203000Y-20656515D01*
X26159207Y-20436349D01*
X71573000Y-20436349D01*
X71573000Y-20638651D01*
X71612467Y-20837065D01*
X71689885Y-21023967D01*
X71802277Y-21192174D01*
X71945326Y-21335223D01*
X72051876Y-21406418D01*
X74198001Y-23552543D01*
X74198000Y-24973165D01*
X74173000Y-25098849D01*
X74173000Y-25301151D01*
X74212467Y-25499565D01*
X74289885Y-25686467D01*
X74402277Y-25854674D01*
X74545326Y-25997723D01*
X74713533Y-26110115D01*
X74900435Y-26187533D01*
X75098849Y-26227000D01*
X75301151Y-26227000D01*
X75499565Y-26187533D01*
X75686467Y-26110115D01*
X75854674Y-25997723D01*
X75997723Y-25854674D01*
X76110115Y-25686467D01*
X76187533Y-25499565D01*
X76227000Y-25301151D01*
X76227000Y-25098849D01*
X76202000Y-24973166D01*
X76202000Y-23186715D01*
X76206847Y-23137499D01*
X76202000Y-23088283D01*
X76202000Y-23088277D01*
X76187502Y-22941074D01*
X76130206Y-22752196D01*
X76037164Y-22578125D01*
X75911949Y-22425551D01*
X75873715Y-22394173D01*
X73468918Y-19989376D01*
X73397723Y-19882826D01*
X73254674Y-19739777D01*
X73086467Y-19627385D01*
X72899565Y-19549967D01*
X72701151Y-19510500D01*
X72498849Y-19510500D01*
X72300435Y-19549967D01*
X72113533Y-19627385D01*
X71945326Y-19739777D01*
X71802277Y-19882826D01*
X71689885Y-20051033D01*
X71612467Y-20237935D01*
X71573000Y-20436349D01*
X26159207Y-20436349D01*
X26156770Y-20424098D01*
X26066085Y-20205166D01*
X25934431Y-20008132D01*
X25766868Y-19840569D01*
X25569834Y-19708915D01*
X25350902Y-19618230D01*
X25118485Y-19572000D01*
X25016525Y-19572000D01*
X25027000Y-19519340D01*
X25027000Y-19080660D01*
X90573000Y-19080660D01*
X90573000Y-19519340D01*
X90658582Y-19949592D01*
X90826458Y-20354880D01*
X91070176Y-20719630D01*
X91380370Y-21029824D01*
X91745120Y-21273542D01*
X92150408Y-21441418D01*
X92580660Y-21527000D01*
X93019340Y-21527000D01*
X93449592Y-21441418D01*
X93854880Y-21273542D01*
X94219630Y-21029824D01*
X94529824Y-20719630D01*
X94773542Y-20354880D01*
X94941418Y-19949592D01*
X95027000Y-19519340D01*
X95027000Y-19080660D01*
X94941418Y-18650408D01*
X94773542Y-18245120D01*
X94529824Y-17880370D01*
X94219630Y-17570176D01*
X93854880Y-17326458D01*
X93449592Y-17158582D01*
X93019340Y-17073000D01*
X92580660Y-17073000D01*
X92150408Y-17158582D01*
X91745120Y-17326458D01*
X91380370Y-17570176D01*
X91070176Y-17880370D01*
X90826458Y-18245120D01*
X90658582Y-18650408D01*
X90573000Y-19080660D01*
X25027000Y-19080660D01*
X24941418Y-18650408D01*
X24773542Y-18245120D01*
X24529824Y-17880370D01*
X24219630Y-17570176D01*
X23854880Y-17326458D01*
X23449592Y-17158582D01*
X23019340Y-17073000D01*
X22580660Y-17073000D01*
X22150408Y-17158582D01*
X21745120Y-17326458D01*
X21380370Y-17570176D01*
X21070176Y-17880370D01*
X20826458Y-18245120D01*
X20658582Y-18650408D01*
X20573000Y-19080660D01*
X19976633Y-19080660D01*
X20009307Y-18747428D01*
X20169783Y-18215907D01*
X20430448Y-17725667D01*
X20781361Y-17295404D01*
X21209167Y-16941493D01*
X21697566Y-16677417D01*
X22227961Y-16513232D01*
X22810543Y-16452000D01*
X92768115Y-16452000D01*
X93352572Y-16509307D01*
G37*
X93352572Y-16509307D02*
X93884093Y-16669783D01*
X94374333Y-16930448D01*
X94804596Y-17281361D01*
X95158507Y-17709167D01*
X95422583Y-18197566D01*
X95586768Y-18727961D01*
X95648001Y-19310552D01*
X95648000Y-44268115D01*
X95590693Y-44852572D01*
X95430217Y-45384096D01*
X95169554Y-45874330D01*
X94818641Y-46304594D01*
X94390832Y-46658508D01*
X93902432Y-46922585D01*
X93372039Y-47086768D01*
X92789457Y-47148000D01*
X22831885Y-47148000D01*
X22247428Y-47090693D01*
X21715904Y-46930217D01*
X21225670Y-46669554D01*
X20795406Y-46318641D01*
X20441492Y-45890832D01*
X20177415Y-45402432D01*
X20013232Y-44872039D01*
X19952000Y-44289457D01*
X19952000Y-44080660D01*
X20573000Y-44080660D01*
X20573000Y-44519340D01*
X20658582Y-44949592D01*
X20826458Y-45354880D01*
X21070176Y-45719630D01*
X21380370Y-46029824D01*
X21745120Y-46273542D01*
X22150408Y-46441418D01*
X22580660Y-46527000D01*
X23019340Y-46527000D01*
X23449592Y-46441418D01*
X23854880Y-46273542D01*
X24219630Y-46029824D01*
X24529824Y-45719630D01*
X24773542Y-45354880D01*
X24941418Y-44949592D01*
X25027000Y-44519340D01*
X25027000Y-44080660D01*
X24941418Y-43650408D01*
X24773542Y-43245120D01*
X24529824Y-42880370D01*
X24219630Y-42570176D01*
X23854880Y-42326458D01*
X23449592Y-42158582D01*
X23019340Y-42073000D01*
X22580660Y-42073000D01*
X22150408Y-42158582D01*
X21745120Y-42326458D01*
X21380370Y-42570176D01*
X21070176Y-42880370D01*
X20826458Y-43245120D01*
X20658582Y-43650408D01*
X20573000Y-44080660D01*
X19952000Y-44080660D01*
X19952000Y-40950000D01*
X33944967Y-40950000D01*
X33944967Y-43550000D01*
X33957073Y-43672913D01*
X33992925Y-43791103D01*
X34051147Y-43900028D01*
X34129499Y-43995501D01*
X34224972Y-44073853D01*
X34333897Y-44132075D01*
X34452087Y-44167927D01*
X34575000Y-44180033D01*
X37175000Y-44180033D01*
X37297913Y-44167927D01*
X37416103Y-44132075D01*
X37525028Y-44073853D01*
X37620501Y-43995501D01*
X37698853Y-43900028D01*
X37746860Y-43810212D01*
X40019066Y-43810212D01*
X40178033Y-44056540D01*
X40543863Y-44157800D01*
X40922419Y-44185744D01*
X41299153Y-44139298D01*
X41571967Y-44056540D01*
X41730934Y-43810212D01*
X40875000Y-42954278D01*
X40019066Y-43810212D01*
X37746860Y-43810212D01*
X37757075Y-43791103D01*
X37792927Y-43672913D01*
X37805033Y-43550000D01*
X37805033Y-42297419D01*
X38939256Y-42297419D01*
X38985702Y-42674153D01*
X39068460Y-42946967D01*
X39314788Y-43105934D01*
X40170722Y-42250000D01*
X41579278Y-42250000D01*
X42435212Y-43105934D01*
X42681540Y-42946967D01*
X42782800Y-42581137D01*
X42810744Y-42202581D01*
X42764298Y-41825847D01*
X42681540Y-41553033D01*
X42435212Y-41394066D01*
X41579278Y-42250000D01*
X40170722Y-42250000D01*
X39314788Y-41394066D01*
X39068460Y-41553033D01*
X38967200Y-41918863D01*
X38939256Y-42297419D01*
X37805033Y-42297419D01*
X37805033Y-40950000D01*
X37792927Y-40827087D01*
X37757075Y-40708897D01*
X37746861Y-40689788D01*
X40019066Y-40689788D01*
X40875000Y-41545722D01*
X41470722Y-40950000D01*
X56169967Y-40950000D01*
X56169967Y-43550000D01*
X56182073Y-43672913D01*
X56217925Y-43791103D01*
X56276147Y-43900028D01*
X56354499Y-43995501D01*
X56449972Y-44073853D01*
X56558897Y-44132075D01*
X56677087Y-44167927D01*
X56800000Y-44180033D01*
X59400000Y-44180033D01*
X59522913Y-44167927D01*
X59641103Y-44132075D01*
X59750028Y-44073853D01*
X59845501Y-43995501D01*
X59923853Y-43900028D01*
X59971860Y-43810212D01*
X62244066Y-43810212D01*
X62403033Y-44056540D01*
X62768863Y-44157800D01*
X63147419Y-44185744D01*
X63524153Y-44139298D01*
X63796967Y-44056540D01*
X63955934Y-43810212D01*
X63100000Y-42954278D01*
X62244066Y-43810212D01*
X59971860Y-43810212D01*
X59982075Y-43791103D01*
X60017927Y-43672913D01*
X60030033Y-43550000D01*
X60030033Y-42297419D01*
X61164256Y-42297419D01*
X61210702Y-42674153D01*
X61293460Y-42946967D01*
X61539788Y-43105934D01*
X62395722Y-42250000D01*
X63804278Y-42250000D01*
X64660212Y-43105934D01*
X64906540Y-42946967D01*
X65007800Y-42581137D01*
X65035744Y-42202581D01*
X64989298Y-41825847D01*
X64906540Y-41553033D01*
X64660212Y-41394066D01*
X63804278Y-42250000D01*
X62395722Y-42250000D01*
X61539788Y-41394066D01*
X61293460Y-41553033D01*
X61192200Y-41918863D01*
X61164256Y-42297419D01*
X60030033Y-42297419D01*
X60030033Y-40950000D01*
X60017927Y-40827087D01*
X59982075Y-40708897D01*
X59971861Y-40689788D01*
X62244066Y-40689788D01*
X63100000Y-41545722D01*
X63695722Y-40950000D01*
X78394967Y-40950000D01*
X78394967Y-43550000D01*
X78407073Y-43672913D01*
X78442925Y-43791103D01*
X78501147Y-43900028D01*
X78579499Y-43995501D01*
X78674972Y-44073853D01*
X78783897Y-44132075D01*
X78902087Y-44167927D01*
X79025000Y-44180033D01*
X81625000Y-44180033D01*
X81747913Y-44167927D01*
X81866103Y-44132075D01*
X81975028Y-44073853D01*
X82070501Y-43995501D01*
X82148853Y-43900028D01*
X82196860Y-43810212D01*
X84469066Y-43810212D01*
X84628033Y-44056540D01*
X84993863Y-44157800D01*
X85372419Y-44185744D01*
X85749153Y-44139298D01*
X86021967Y-44056540D01*
X86180934Y-43810212D01*
X85325000Y-42954278D01*
X84469066Y-43810212D01*
X82196860Y-43810212D01*
X82207075Y-43791103D01*
X82242927Y-43672913D01*
X82255033Y-43550000D01*
X82255033Y-42297419D01*
X83389256Y-42297419D01*
X83435702Y-42674153D01*
X83518460Y-42946967D01*
X83764788Y-43105934D01*
X84620722Y-42250000D01*
X86029278Y-42250000D01*
X86885212Y-43105934D01*
X87131540Y-42946967D01*
X87232800Y-42581137D01*
X87260744Y-42202581D01*
X87242737Y-42056515D01*
X90047000Y-42056515D01*
X90047000Y-42293485D01*
X90093230Y-42525902D01*
X90183915Y-42744834D01*
X90315569Y-42941868D01*
X90483132Y-43109431D01*
X90680166Y-43241085D01*
X90806461Y-43293398D01*
X90658582Y-43650408D01*
X90573000Y-44080660D01*
X90573000Y-44519340D01*
X90658582Y-44949592D01*
X90826458Y-45354880D01*
X91070176Y-45719630D01*
X91380370Y-46029824D01*
X91745120Y-46273542D01*
X92150408Y-46441418D01*
X92580660Y-46527000D01*
X93019340Y-46527000D01*
X93449592Y-46441418D01*
X93854880Y-46273542D01*
X94219630Y-46029824D01*
X94529824Y-45719630D01*
X94773542Y-45354880D01*
X94941418Y-44949592D01*
X95027000Y-44519340D01*
X95027000Y-44080660D01*
X94941418Y-43650408D01*
X94773542Y-43245120D01*
X94529824Y-42880370D01*
X94219630Y-42570176D01*
X93854880Y-42326458D01*
X93449592Y-42158582D01*
X93019340Y-42073000D01*
X92580660Y-42073000D01*
X92453000Y-42098393D01*
X92453000Y-42056515D01*
X92406770Y-41824098D01*
X92316085Y-41605166D01*
X92184431Y-41408132D01*
X92016868Y-41240569D01*
X91819834Y-41108915D01*
X91600902Y-41018230D01*
X91368485Y-40972000D01*
X91131515Y-40972000D01*
X90899098Y-41018230D01*
X90680166Y-41108915D01*
X90483132Y-41240569D01*
X90315569Y-41408132D01*
X90183915Y-41605166D01*
X90093230Y-41824098D01*
X90047000Y-42056515D01*
X87242737Y-42056515D01*
X87214298Y-41825847D01*
X87131540Y-41553033D01*
X86885212Y-41394066D01*
X86029278Y-42250000D01*
X84620722Y-42250000D01*
X83764788Y-41394066D01*
X83518460Y-41553033D01*
X83417200Y-41918863D01*
X83389256Y-42297419D01*
X82255033Y-42297419D01*
X82255033Y-40950000D01*
X82242927Y-40827087D01*
X82207075Y-40708897D01*
X82196861Y-40689788D01*
X84469066Y-40689788D01*
X85325000Y-41545722D01*
X86180934Y-40689788D01*
X86021967Y-40443460D01*
X85656137Y-40342200D01*
X85277581Y-40314256D01*
X84900847Y-40360702D01*
X84628033Y-40443460D01*
X84469066Y-40689788D01*
X82196861Y-40689788D01*
X82148853Y-40599972D01*
X82070501Y-40504499D01*
X81975028Y-40426147D01*
X81866103Y-40367925D01*
X81747913Y-40332073D01*
X81625000Y-40319967D01*
X79025000Y-40319967D01*
X78902087Y-40332073D01*
X78783897Y-40367925D01*
X78674972Y-40426147D01*
X78579499Y-40504499D01*
X78501147Y-40599972D01*
X78442925Y-40708897D01*
X78407073Y-40827087D01*
X78394967Y-40950000D01*
X63695722Y-40950000D01*
X63955934Y-40689788D01*
X63796967Y-40443460D01*
X63431137Y-40342200D01*
X63052581Y-40314256D01*
X62675847Y-40360702D01*
X62403033Y-40443460D01*
X62244066Y-40689788D01*
X59971861Y-40689788D01*
X59923853Y-40599972D01*
X59845501Y-40504499D01*
X59750028Y-40426147D01*
X59641103Y-40367925D01*
X59522913Y-40332073D01*
X59400000Y-40319967D01*
X56800000Y-40319967D01*
X56677087Y-40332073D01*
X56558897Y-40367925D01*
X56449972Y-40426147D01*
X56354499Y-40504499D01*
X56276147Y-40599972D01*
X56217925Y-40708897D01*
X56182073Y-40827087D01*
X56169967Y-40950000D01*
X41470722Y-40950000D01*
X41730934Y-40689788D01*
X41571967Y-40443460D01*
X41206137Y-40342200D01*
X40827581Y-40314256D01*
X40450847Y-40360702D01*
X40178033Y-40443460D01*
X40019066Y-40689788D01*
X37746861Y-40689788D01*
X37698853Y-40599972D01*
X37620501Y-40504499D01*
X37525028Y-40426147D01*
X37416103Y-40367925D01*
X37297913Y-40332073D01*
X37175000Y-40319967D01*
X34575000Y-40319967D01*
X34452087Y-40332073D01*
X34333897Y-40367925D01*
X34224972Y-40426147D01*
X34129499Y-40504499D01*
X34051147Y-40599972D01*
X33992925Y-40708897D01*
X33957073Y-40827087D01*
X33944967Y-40950000D01*
X19952000Y-40950000D01*
X19952000Y-35860212D01*
X24144066Y-35860212D01*
X24303033Y-36106540D01*
X24668863Y-36207800D01*
X25047419Y-36235744D01*
X25424153Y-36189298D01*
X25696967Y-36106540D01*
X25855934Y-35860212D01*
X25245722Y-35250000D01*
X50873000Y-35250000D01*
X50873000Y-36300000D01*
X50876019Y-36361458D01*
X50895234Y-36556548D01*
X50919213Y-36677096D01*
X50976118Y-36864689D01*
X51023155Y-36978249D01*
X51115565Y-37151136D01*
X51183852Y-37253334D01*
X51308215Y-37404871D01*
X51395129Y-37491785D01*
X51546666Y-37616148D01*
X51648864Y-37684435D01*
X51821751Y-37776845D01*
X51935311Y-37823882D01*
X52122904Y-37880787D01*
X52243452Y-37904766D01*
X52438542Y-37923981D01*
X52500000Y-37927000D01*
X72850000Y-37927000D01*
X72911458Y-37923981D01*
X73106548Y-37904766D01*
X73227096Y-37880787D01*
X73414689Y-37823882D01*
X73528249Y-37776845D01*
X73701136Y-37684435D01*
X73803334Y-37616148D01*
X73954871Y-37491785D01*
X74041785Y-37404871D01*
X74166148Y-37253334D01*
X74234435Y-37151136D01*
X74326845Y-36978249D01*
X74373882Y-36864689D01*
X74430787Y-36677096D01*
X74454766Y-36556548D01*
X74473981Y-36361458D01*
X74477000Y-36300000D01*
X74477000Y-30425000D01*
X74473981Y-30363542D01*
X74456207Y-30183083D01*
X74450996Y-30156884D01*
X74477000Y-30026151D01*
X74477000Y-29823849D01*
X74437533Y-29625435D01*
X74360115Y-29438533D01*
X74247723Y-29270326D01*
X74104674Y-29127277D01*
X73936467Y-29014885D01*
X73749565Y-28937467D01*
X73551151Y-28898000D01*
X73348849Y-28898000D01*
X73268457Y-28913991D01*
X73166917Y-28893793D01*
X72986458Y-28876019D01*
X72863542Y-28876019D01*
X72683083Y-28893793D01*
X72594043Y-28911504D01*
X72526151Y-28898000D01*
X72323849Y-28898000D01*
X72125435Y-28937467D01*
X71938533Y-29014885D01*
X71770326Y-29127277D01*
X71627277Y-29270326D01*
X71514885Y-29438533D01*
X71437467Y-29625435D01*
X71398000Y-29823849D01*
X71398000Y-30026151D01*
X71411504Y-30094043D01*
X71393793Y-30183083D01*
X71376019Y-30363542D01*
X71373000Y-30425000D01*
X71373000Y-34219194D01*
X71362857Y-34322180D01*
X71341806Y-34391577D01*
X71307614Y-34455544D01*
X71261606Y-34511606D01*
X71205544Y-34557614D01*
X71141577Y-34591806D01*
X71072180Y-34612857D01*
X70969194Y-34623000D01*
X55115690Y-34623000D01*
X55104599Y-34538751D01*
X55062235Y-34380648D01*
X55012285Y-34260058D01*
X54930443Y-34118304D01*
X54850983Y-34014751D01*
X54735249Y-33899017D01*
X54631696Y-33819557D01*
X54489942Y-33737715D01*
X54369352Y-33687765D01*
X54211249Y-33645401D01*
X54081839Y-33628364D01*
X54000000Y-33623000D01*
X52500000Y-33623000D01*
X52438542Y-33626019D01*
X52243452Y-33645234D01*
X52122904Y-33669213D01*
X51935311Y-33726118D01*
X51821751Y-33773155D01*
X51648864Y-33865565D01*
X51546666Y-33933852D01*
X51395129Y-34058215D01*
X51308215Y-34145129D01*
X51183852Y-34296666D01*
X51115565Y-34398864D01*
X51023155Y-34571751D01*
X50976118Y-34685311D01*
X50919213Y-34872904D01*
X50895234Y-34993452D01*
X50876019Y-35188542D01*
X50873000Y-35250000D01*
X25245722Y-35250000D01*
X25000000Y-35004278D01*
X24144066Y-35860212D01*
X19952000Y-35860212D01*
X19952000Y-34347419D01*
X23064256Y-34347419D01*
X23110702Y-34724153D01*
X23193460Y-34996967D01*
X23439788Y-35155934D01*
X24295722Y-34300000D01*
X25704278Y-34300000D01*
X26560212Y-35155934D01*
X26806540Y-34996967D01*
X26907800Y-34631137D01*
X26935744Y-34252581D01*
X26889298Y-33875847D01*
X26806540Y-33603033D01*
X26560212Y-33444066D01*
X25704278Y-34300000D01*
X24295722Y-34300000D01*
X23439788Y-33444066D01*
X23193460Y-33603033D01*
X23092200Y-33968863D01*
X23064256Y-34347419D01*
X19952000Y-34347419D01*
X19952000Y-32739788D01*
X24144066Y-32739788D01*
X25000000Y-33595722D01*
X25855934Y-32739788D01*
X25696967Y-32493460D01*
X25331137Y-32392200D01*
X24952581Y-32364256D01*
X24575847Y-32410702D01*
X24303033Y-32493460D01*
X24144066Y-32739788D01*
X19952000Y-32739788D01*
X19952000Y-28000000D01*
X23069967Y-28000000D01*
X23069967Y-30600000D01*
X23082073Y-30722913D01*
X23117925Y-30841103D01*
X23176147Y-30950028D01*
X23254499Y-31045501D01*
X23349972Y-31123853D01*
X23458897Y-31182075D01*
X23577087Y-31217927D01*
X23700000Y-31230033D01*
X26300000Y-31230033D01*
X26422913Y-31217927D01*
X26541103Y-31182075D01*
X26650028Y-31123853D01*
X26745501Y-31045501D01*
X26823853Y-30950028D01*
X26882075Y-30841103D01*
X26917927Y-30722913D01*
X26930033Y-30600000D01*
X26930033Y-28108699D01*
X68673000Y-28108699D01*
X68673000Y-28291301D01*
X68708624Y-28470396D01*
X68778504Y-28639099D01*
X68879952Y-28790928D01*
X69009072Y-28920048D01*
X69160901Y-29021496D01*
X69329604Y-29091376D01*
X69508699Y-29127000D01*
X69691301Y-29127000D01*
X69870396Y-29091376D01*
X70039099Y-29021496D01*
X70190928Y-28920048D01*
X70320048Y-28790928D01*
X70421496Y-28639099D01*
X70491376Y-28470396D01*
X70527000Y-28291301D01*
X70527000Y-28108699D01*
X70494576Y-27945689D01*
X72304393Y-26135872D01*
X72339099Y-26121496D01*
X72490928Y-26020048D01*
X72620048Y-25890928D01*
X72721496Y-25739099D01*
X72791376Y-25570396D01*
X72827000Y-25391301D01*
X72827000Y-25208699D01*
X72791376Y-25029604D01*
X72737692Y-24900000D01*
X72791376Y-24770396D01*
X72827000Y-24591301D01*
X72827000Y-24408699D01*
X72791376Y-24229604D01*
X72721496Y-24060901D01*
X72620048Y-23909072D01*
X72490928Y-23779952D01*
X72339099Y-23678504D01*
X72170396Y-23608624D01*
X71991301Y-23573000D01*
X71808699Y-23573000D01*
X71629604Y-23608624D01*
X71460901Y-23678504D01*
X71309072Y-23779952D01*
X71179952Y-23909072D01*
X71078504Y-24060901D01*
X71008624Y-24229604D01*
X70973000Y-24408699D01*
X70973000Y-24591301D01*
X71008624Y-24770396D01*
X71061555Y-24898180D01*
X69010327Y-26949408D01*
X68976868Y-26976867D01*
X68949409Y-27010326D01*
X68949406Y-27010329D01*
X68867274Y-27110408D01*
X68785838Y-27262763D01*
X68785838Y-27262764D01*
X68735690Y-27428078D01*
X68718757Y-27600000D01*
X68723000Y-27643079D01*
X68723000Y-27894898D01*
X68708624Y-27929604D01*
X68673000Y-28108699D01*
X26930033Y-28108699D01*
X26930033Y-28000000D01*
X26917927Y-27877087D01*
X26882075Y-27758897D01*
X26823853Y-27649972D01*
X26745501Y-27554499D01*
X26650028Y-27476147D01*
X26541103Y-27417925D01*
X26422913Y-27382073D01*
X26300000Y-27369967D01*
X23700000Y-27369967D01*
X23577087Y-27382073D01*
X23458897Y-27417925D01*
X23349972Y-27476147D01*
X23254499Y-27554499D01*
X23176147Y-27649972D01*
X23117925Y-27758897D01*
X23082073Y-27877087D01*
X23069967Y-28000000D01*
X19952000Y-28000000D01*
X19952000Y-19331885D01*
X19976633Y-19080660D01*
X20573000Y-19080660D01*
X20573000Y-19519340D01*
X20658582Y-19949592D01*
X20826458Y-20354880D01*
X21070176Y-20719630D01*
X21380370Y-21029824D01*
X21745120Y-21273542D01*
X22150408Y-21441418D01*
X22580660Y-21527000D01*
X23019340Y-21527000D01*
X23449592Y-21441418D01*
X23854880Y-21273542D01*
X23893653Y-21247634D01*
X23933915Y-21344834D01*
X24065569Y-21541868D01*
X24233132Y-21709431D01*
X24430166Y-21841085D01*
X24649098Y-21931770D01*
X24881515Y-21978000D01*
X25118485Y-21978000D01*
X25350902Y-21931770D01*
X25569834Y-21841085D01*
X25766868Y-21709431D01*
X25934431Y-21541868D01*
X26066085Y-21344834D01*
X26156770Y-21125902D01*
X26203000Y-20893485D01*
X26203000Y-20656515D01*
X26159207Y-20436349D01*
X71573000Y-20436349D01*
X71573000Y-20638651D01*
X71612467Y-20837065D01*
X71689885Y-21023967D01*
X71802277Y-21192174D01*
X71945326Y-21335223D01*
X72051876Y-21406418D01*
X74198001Y-23552543D01*
X74198000Y-24973165D01*
X74173000Y-25098849D01*
X74173000Y-25301151D01*
X74212467Y-25499565D01*
X74289885Y-25686467D01*
X74402277Y-25854674D01*
X74545326Y-25997723D01*
X74713533Y-26110115D01*
X74900435Y-26187533D01*
X75098849Y-26227000D01*
X75301151Y-26227000D01*
X75499565Y-26187533D01*
X75686467Y-26110115D01*
X75854674Y-25997723D01*
X75997723Y-25854674D01*
X76110115Y-25686467D01*
X76187533Y-25499565D01*
X76227000Y-25301151D01*
X76227000Y-25098849D01*
X76202000Y-24973166D01*
X76202000Y-23186715D01*
X76206847Y-23137499D01*
X76202000Y-23088283D01*
X76202000Y-23088277D01*
X76187502Y-22941074D01*
X76130206Y-22752196D01*
X76037164Y-22578125D01*
X75911949Y-22425551D01*
X75873715Y-22394173D01*
X73468918Y-19989376D01*
X73397723Y-19882826D01*
X73254674Y-19739777D01*
X73086467Y-19627385D01*
X72899565Y-19549967D01*
X72701151Y-19510500D01*
X72498849Y-19510500D01*
X72300435Y-19549967D01*
X72113533Y-19627385D01*
X71945326Y-19739777D01*
X71802277Y-19882826D01*
X71689885Y-20051033D01*
X71612467Y-20237935D01*
X71573000Y-20436349D01*
X26159207Y-20436349D01*
X26156770Y-20424098D01*
X26066085Y-20205166D01*
X25934431Y-20008132D01*
X25766868Y-19840569D01*
X25569834Y-19708915D01*
X25350902Y-19618230D01*
X25118485Y-19572000D01*
X25016525Y-19572000D01*
X25027000Y-19519340D01*
X25027000Y-19080660D01*
X90573000Y-19080660D01*
X90573000Y-19519340D01*
X90658582Y-19949592D01*
X90826458Y-20354880D01*
X91070176Y-20719630D01*
X91380370Y-21029824D01*
X91745120Y-21273542D01*
X92150408Y-21441418D01*
X92580660Y-21527000D01*
X93019340Y-21527000D01*
X93449592Y-21441418D01*
X93854880Y-21273542D01*
X94219630Y-21029824D01*
X94529824Y-20719630D01*
X94773542Y-20354880D01*
X94941418Y-19949592D01*
X95027000Y-19519340D01*
X95027000Y-19080660D01*
X94941418Y-18650408D01*
X94773542Y-18245120D01*
X94529824Y-17880370D01*
X94219630Y-17570176D01*
X93854880Y-17326458D01*
X93449592Y-17158582D01*
X93019340Y-17073000D01*
X92580660Y-17073000D01*
X92150408Y-17158582D01*
X91745120Y-17326458D01*
X91380370Y-17570176D01*
X91070176Y-17880370D01*
X90826458Y-18245120D01*
X90658582Y-18650408D01*
X90573000Y-19080660D01*
X25027000Y-19080660D01*
X24941418Y-18650408D01*
X24773542Y-18245120D01*
X24529824Y-17880370D01*
X24219630Y-17570176D01*
X23854880Y-17326458D01*
X23449592Y-17158582D01*
X23019340Y-17073000D01*
X22580660Y-17073000D01*
X22150408Y-17158582D01*
X21745120Y-17326458D01*
X21380370Y-17570176D01*
X21070176Y-17880370D01*
X20826458Y-18245120D01*
X20658582Y-18650408D01*
X20573000Y-19080660D01*
X19976633Y-19080660D01*
X20009307Y-18747428D01*
X20169783Y-18215907D01*
X20430448Y-17725667D01*
X20781361Y-17295404D01*
X21209167Y-16941493D01*
X21697566Y-16677417D01*
X22227961Y-16513232D01*
X22810543Y-16452000D01*
X92768115Y-16452000D01*
X93352572Y-16509307D01*
G36*
X73080558Y-29642935D02*
G01*
X73230147Y-29688312D01*
X73368005Y-29762000D01*
X73488837Y-29861163D01*
X73588000Y-29981995D01*
X73661688Y-30119853D01*
X73707065Y-30269442D01*
X73723000Y-30431234D01*
X73723000Y-36293766D01*
X73705624Y-36470189D01*
X73655978Y-36633850D01*
X73575362Y-36784672D01*
X73466870Y-36916870D01*
X73334672Y-37025362D01*
X73183850Y-37105978D01*
X73020189Y-37155624D01*
X72843766Y-37173000D01*
X52506234Y-37173000D01*
X52329811Y-37155624D01*
X52166150Y-37105978D01*
X52015328Y-37025362D01*
X51883130Y-36916870D01*
X51774638Y-36784672D01*
X51694022Y-36633850D01*
X51644376Y-36470189D01*
X51627000Y-36293766D01*
X51627000Y-35256234D01*
X51644376Y-35079811D01*
X51694022Y-34916150D01*
X51774638Y-34765328D01*
X51883130Y-34633130D01*
X52015328Y-34524638D01*
X52166150Y-34444022D01*
X52329811Y-34394376D01*
X52506234Y-34377000D01*
X53991672Y-34377000D01*
X54096257Y-34390769D01*
X54185955Y-34427923D01*
X54262976Y-34487024D01*
X54322077Y-34564045D01*
X54359231Y-34653743D01*
X54391123Y-34895987D01*
X54399704Y-34928011D01*
X54449654Y-35048601D01*
X54466232Y-35077313D01*
X54545692Y-35180866D01*
X54569134Y-35204308D01*
X54672687Y-35283768D01*
X54701399Y-35300346D01*
X54821989Y-35350296D01*
X54854013Y-35358877D01*
X54983423Y-35375914D01*
X55000000Y-35377000D01*
X71000000Y-35377000D01*
X71012448Y-35376388D01*
X71207538Y-35357173D01*
X71231956Y-35352317D01*
X71419549Y-35295412D01*
X71442550Y-35285884D01*
X71615437Y-35193474D01*
X71636138Y-35179642D01*
X71787675Y-35055279D01*
X71805279Y-35037675D01*
X71929642Y-34886138D01*
X71943474Y-34865437D01*
X72035884Y-34692550D01*
X72045412Y-34669549D01*
X72102317Y-34481956D01*
X72107173Y-34457538D01*
X72126388Y-34262448D01*
X72127000Y-34250000D01*
X72127000Y-32824994D01*
X72137533Y-32799565D01*
X72177000Y-32601151D01*
X72177000Y-32398849D01*
X72137533Y-32200435D01*
X72127000Y-32175006D01*
X72127000Y-30431234D01*
X72142935Y-30269442D01*
X72188312Y-30119853D01*
X72262000Y-29981995D01*
X72361163Y-29861163D01*
X72481995Y-29762000D01*
X72619853Y-29688312D01*
X72769442Y-29642935D01*
X72925000Y-29627614D01*
X73080558Y-29642935D01*
G37*
X73080558Y-29642935D02*
X73230147Y-29688312D01*
X73368005Y-29762000D01*
X73488837Y-29861163D01*
X73588000Y-29981995D01*
X73661688Y-30119853D01*
X73707065Y-30269442D01*
X73723000Y-30431234D01*
X73723000Y-36293766D01*
X73705624Y-36470189D01*
X73655978Y-36633850D01*
X73575362Y-36784672D01*
X73466870Y-36916870D01*
X73334672Y-37025362D01*
X73183850Y-37105978D01*
X73020189Y-37155624D01*
X72843766Y-37173000D01*
X52506234Y-37173000D01*
X52329811Y-37155624D01*
X52166150Y-37105978D01*
X52015328Y-37025362D01*
X51883130Y-36916870D01*
X51774638Y-36784672D01*
X51694022Y-36633850D01*
X51644376Y-36470189D01*
X51627000Y-36293766D01*
X51627000Y-35256234D01*
X51644376Y-35079811D01*
X51694022Y-34916150D01*
X51774638Y-34765328D01*
X51883130Y-34633130D01*
X52015328Y-34524638D01*
X52166150Y-34444022D01*
X52329811Y-34394376D01*
X52506234Y-34377000D01*
X53991672Y-34377000D01*
X54096257Y-34390769D01*
X54185955Y-34427923D01*
X54262976Y-34487024D01*
X54322077Y-34564045D01*
X54359231Y-34653743D01*
X54391123Y-34895987D01*
X54399704Y-34928011D01*
X54449654Y-35048601D01*
X54466232Y-35077313D01*
X54545692Y-35180866D01*
X54569134Y-35204308D01*
X54672687Y-35283768D01*
X54701399Y-35300346D01*
X54821989Y-35350296D01*
X54854013Y-35358877D01*
X54983423Y-35375914D01*
X55000000Y-35377000D01*
X71000000Y-35377000D01*
X71012448Y-35376388D01*
X71207538Y-35357173D01*
X71231956Y-35352317D01*
X71419549Y-35295412D01*
X71442550Y-35285884D01*
X71615437Y-35193474D01*
X71636138Y-35179642D01*
X71787675Y-35055279D01*
X71805279Y-35037675D01*
X71929642Y-34886138D01*
X71943474Y-34865437D01*
X72035884Y-34692550D01*
X72045412Y-34669549D01*
X72102317Y-34481956D01*
X72107173Y-34457538D01*
X72126388Y-34262448D01*
X72127000Y-34250000D01*
X72127000Y-32824994D01*
X72137533Y-32799565D01*
X72177000Y-32601151D01*
X72177000Y-32398849D01*
X72137533Y-32200435D01*
X72127000Y-32175006D01*
X72127000Y-30431234D01*
X72142935Y-30269442D01*
X72188312Y-30119853D01*
X72262000Y-29981995D01*
X72361163Y-29861163D01*
X72481995Y-29762000D01*
X72619853Y-29688312D01*
X72769442Y-29642935D01*
X72925000Y-29627614D01*
X73080558Y-29642935D01*
M02*
