M48
; DRILL file {KiCad (5.1.6)-1} date 09/10/20 01:06:54
; FORMAT={3:3/ absolute / metric / suppress leading zeros}
; #@! TF.CreationDate,2020-09-10T01:06:54+02:00
; #@! TF.GenerationSoftware,Kicad,Pcbnew,(5.1.6)-1
FMAT,2
METRIC,TZ
T1C0.300
T2C0.400
T3C0.600
T4C1.300
T5C1.152
T6C3.200
%
G90
G05
T1
X68000Y-24100
X68000Y-24950
X68000Y-25800
X68850Y-24100
X68850Y-24950
X68850Y-25800
X69600Y-28200
X69700Y-24100
X69700Y-24950
X69700Y-25800
X71900Y-24500
X71900Y-25300
T2
X20500Y-22500
X20500Y-25000
X20500Y-27500
X20500Y-30000
X20500Y-32500
X20500Y-35000
X20500Y-37500
X20500Y-40000
X20500Y-42500
X22700Y-22500
X22700Y-25000
X22700Y-37500
X22700Y-40000
X25000Y-17000
X25000Y-22500
X25000Y-25000
X25000Y-37500
X25000Y-40000
X25000Y-42500
X25000Y-46500
X27500Y-17000
X27500Y-20000
X27500Y-22500
X27500Y-25000
X27500Y-46500
X30000Y-17000
X30000Y-20000
X30000Y-22500
X30000Y-25000
X30000Y-46500
X30325Y-44075
X32500Y-17000
X32500Y-32500
X32500Y-37500
X32500Y-46500
X33750Y-21500
X35000Y-17000
X35000Y-46500
X36050Y-29050
X36100Y-22300
X36400Y-25100
X37300Y-23200
X37300Y-26850
X37300Y-31250
X37500Y-17000
X37500Y-46500
X38200Y-25100
X38550Y-29050
X40000Y-17000
X40000Y-46500
X41700Y-18450
X41700Y-20550
X42500Y-46500
X43000Y-19500
X44050Y-20250
X45000Y-46500
X46650Y-44800
X46800Y-19050
X46800Y-20250
X46800Y-21550
X46800Y-22800
X47500Y-46500
X48350Y-44800
X48900Y-19050
X48900Y-20250
X48900Y-21550
X48900Y-22800
X49100Y-17350
X50000Y-46500
X50250Y-17350
X52500Y-46500
X52575Y-43925
X55000Y-17000
X55000Y-46500
X56950Y-26250
X56950Y-27450
X57125Y-24950
X57500Y-17000
X57500Y-20000
X57500Y-22500
X57500Y-46500
X60000Y-17000
X60000Y-20000
X60000Y-22500
X60000Y-46500
X60425Y-23700
X61050Y-40000
X62500Y-17000
X62500Y-46500
X62825Y-20100
X63875Y-22525
X65000Y-17000
X65000Y-46500
X65150Y-40000
X66825Y-18075
X67150Y-29450
X67150Y-30500
X67150Y-31550
X67500Y-17000
X67500Y-40000
X67500Y-46500
X68250Y-29450
X68250Y-30500
X68250Y-31550
X68950Y-33650
X69050Y-32500
X70000Y-17000
X70000Y-40000
X70000Y-42500
X70000Y-44450
X70000Y-46500
X71150Y-32500
X72425Y-29925
X72425Y-30950
X72500Y-17000
X72500Y-46500
X72600Y-20537
X72825Y-44125
X73450Y-29925
X73450Y-30950
X75000Y-17000
X75000Y-46500
X75200Y-25200
X76500Y-40000
X77500Y-17000
X77500Y-46500
X77750Y-25000
X77750Y-25900
X77900Y-31650
X77900Y-35000
X77900Y-36850
X79050Y-28100
X80000Y-17000
X80000Y-46500
X81025Y-28625
X81175Y-25000
X81175Y-25900
X82500Y-17000
X82500Y-27500
X82500Y-46500
X85000Y-17000
X85000Y-20000
X85000Y-27500
X85000Y-30000
X85000Y-35000
X85000Y-37500
X85000Y-46500
X87500Y-17000
X87500Y-20000
X87500Y-22500
X87500Y-35000
X87500Y-37500
X87500Y-46500
X90000Y-17000
X90000Y-20000
X90000Y-22500
X90000Y-35000
X90000Y-37500
X90000Y-40000
X90000Y-46500
X92500Y-22500
X92500Y-27500
X92500Y-32500
X92500Y-35000
X92500Y-37500
X92500Y-40000
X95000Y-22500
X95000Y-25000
X95000Y-27500
X95000Y-30000
X95000Y-32500
X95000Y-35000
X95000Y-37500
X95000Y-40000
X95000Y-42500
T3
X52250Y-35000
X52250Y-36500
X53750Y-35000
X53750Y-36500
T4
X25000Y-29300
X25000Y-34300
X80325Y-42250
X85325Y-42250
X35875Y-42250
X40875Y-42250
X58100Y-42250
X63100Y-42250
T5
X25000Y-20775
X91250Y-42175
T6
X22800Y-19300
X92800Y-44300
X92800Y-19300
X22800Y-44300
T0
M30
