G04 #@! TF.GenerationSoftware,KiCad,Pcbnew,(5.1.6)-1*
G04 #@! TF.CreationDate,2020-09-10T01:06:56+02:00*
G04 #@! TF.ProjectId,BananaSchplit,42616e61-6e61-4536-9368-706c69742e6b,rev?*
G04 #@! TF.SameCoordinates,Original*
G04 #@! TF.FileFunction,Legend,Bot*
G04 #@! TF.FilePolarity,Positive*
%FSLAX46Y46*%
G04 Gerber Fmt 4.6, Leading zero omitted, Abs format (unit mm)*
G04 Created by KiCad (PCBNEW (5.1.6)-1) date 2020-09-10 01:06:56*
%MOMM*%
%LPD*%
G01*
G04 APERTURE LIST*
%ADD10C,0.150000*%
G04 APERTURE END LIST*
D10*
X89371428Y-19052380D02*
X89371428Y-18052380D01*
X88800000Y-18052380D01*
X88657142Y-18100000D01*
X88585714Y-18147619D01*
X88514285Y-18242857D01*
X88514285Y-18385714D01*
X88585714Y-18480952D01*
X88657142Y-18528571D01*
X88800000Y-18576190D01*
X89371428Y-18576190D01*
X87871428Y-19052380D02*
X87871428Y-18052380D01*
X87228571Y-19052380D02*
X87228571Y-18528571D01*
X87300000Y-18433333D01*
X87442857Y-18385714D01*
X87657142Y-18385714D01*
X87800000Y-18433333D01*
X87871428Y-18480952D01*
X86514285Y-19052380D02*
X86514285Y-18385714D01*
X86514285Y-18052380D02*
X86585714Y-18100000D01*
X86514285Y-18147619D01*
X86442857Y-18100000D01*
X86514285Y-18052380D01*
X86514285Y-18147619D01*
X85585714Y-19052380D02*
X85728571Y-19004761D01*
X85800000Y-18909523D01*
X85800000Y-18052380D01*
X84942857Y-18052380D02*
X85085714Y-18242857D01*
X84371428Y-19004761D02*
X84228571Y-19052380D01*
X83942857Y-19052380D01*
X83800000Y-19004761D01*
X83728571Y-18909523D01*
X83728571Y-18861904D01*
X83800000Y-18766666D01*
X83942857Y-18719047D01*
X84157142Y-18719047D01*
X84300000Y-18671428D01*
X84371428Y-18576190D01*
X84371428Y-18528571D01*
X84300000Y-18433333D01*
X84157142Y-18385714D01*
X83942857Y-18385714D01*
X83800000Y-18433333D01*
X81228571Y-19052380D02*
X81942857Y-19052380D01*
X81942857Y-18052380D01*
X80085714Y-19052380D02*
X80085714Y-18528571D01*
X80157142Y-18433333D01*
X80300000Y-18385714D01*
X80585714Y-18385714D01*
X80728571Y-18433333D01*
X80085714Y-19004761D02*
X80228571Y-19052380D01*
X80585714Y-19052380D01*
X80728571Y-19004761D01*
X80800000Y-18909523D01*
X80800000Y-18814285D01*
X80728571Y-18719047D01*
X80585714Y-18671428D01*
X80228571Y-18671428D01*
X80085714Y-18623809D01*
X79371428Y-19052380D02*
X79371428Y-18052380D01*
X79371428Y-18433333D02*
X79228571Y-18385714D01*
X78942857Y-18385714D01*
X78800000Y-18433333D01*
X78728571Y-18480952D01*
X78657142Y-18576190D01*
X78657142Y-18861904D01*
X78728571Y-18957142D01*
X78800000Y-19004761D01*
X78942857Y-19052380D01*
X79228571Y-19052380D01*
X79371428Y-19004761D01*
X42066666Y-44752380D02*
X42542857Y-44752380D01*
X42590476Y-45228571D01*
X42542857Y-45180952D01*
X42447619Y-45133333D01*
X42209523Y-45133333D01*
X42114285Y-45180952D01*
X42066666Y-45228571D01*
X42019047Y-45323809D01*
X42019047Y-45561904D01*
X42066666Y-45657142D01*
X42114285Y-45704761D01*
X42209523Y-45752380D01*
X42447619Y-45752380D01*
X42542857Y-45704761D01*
X42590476Y-45657142D01*
X41400000Y-44752380D02*
X41304761Y-44752380D01*
X41209523Y-44800000D01*
X41161904Y-44847619D01*
X41114285Y-44942857D01*
X41066666Y-45133333D01*
X41066666Y-45371428D01*
X41114285Y-45561904D01*
X41161904Y-45657142D01*
X41209523Y-45704761D01*
X41304761Y-45752380D01*
X41400000Y-45752380D01*
X41495238Y-45704761D01*
X41542857Y-45657142D01*
X41590476Y-45561904D01*
X41638095Y-45371428D01*
X41638095Y-45133333D01*
X41590476Y-44942857D01*
X41542857Y-44847619D01*
X41495238Y-44800000D01*
X41400000Y-44752380D01*
X40447619Y-44752380D02*
X40352380Y-44752380D01*
X40257142Y-44800000D01*
X40209523Y-44847619D01*
X40161904Y-44942857D01*
X40114285Y-45133333D01*
X40114285Y-45371428D01*
X40161904Y-45561904D01*
X40209523Y-45657142D01*
X40257142Y-45704761D01*
X40352380Y-45752380D01*
X40447619Y-45752380D01*
X40542857Y-45704761D01*
X40590476Y-45657142D01*
X40638095Y-45561904D01*
X40685714Y-45371428D01*
X40685714Y-45133333D01*
X40638095Y-44942857D01*
X40590476Y-44847619D01*
X40542857Y-44800000D01*
X40447619Y-44752380D01*
X39685714Y-45752380D02*
X39685714Y-45085714D01*
X39685714Y-45180952D02*
X39638095Y-45133333D01*
X39542857Y-45085714D01*
X39400000Y-45085714D01*
X39304761Y-45133333D01*
X39257142Y-45228571D01*
X39257142Y-45752380D01*
X39257142Y-45228571D02*
X39209523Y-45133333D01*
X39114285Y-45085714D01*
X38971428Y-45085714D01*
X38876190Y-45133333D01*
X38828571Y-45228571D01*
X38828571Y-45752380D01*
X38400000Y-45466666D02*
X37923809Y-45466666D01*
X38495238Y-45752380D02*
X38161904Y-44752380D01*
X37828571Y-45752380D01*
X36733333Y-45752380D02*
X36733333Y-44752380D01*
X36400000Y-45466666D01*
X36066666Y-44752380D01*
X36066666Y-45752380D01*
X35638095Y-45466666D02*
X35161904Y-45466666D01*
X35733333Y-45752380D02*
X35400000Y-44752380D01*
X35066666Y-45752380D01*
X34828571Y-44752380D02*
X34161904Y-45752380D01*
X34161904Y-44752380D02*
X34828571Y-45752380D01*
X86564285Y-45085714D02*
X86564285Y-45752380D01*
X86802380Y-44704761D02*
X87040476Y-45419047D01*
X86421428Y-45419047D01*
X85564285Y-44752380D02*
X86040476Y-44752380D01*
X86088095Y-45228571D01*
X86040476Y-45180952D01*
X85945238Y-45133333D01*
X85707142Y-45133333D01*
X85611904Y-45180952D01*
X85564285Y-45228571D01*
X85516666Y-45323809D01*
X85516666Y-45561904D01*
X85564285Y-45657142D01*
X85611904Y-45704761D01*
X85707142Y-45752380D01*
X85945238Y-45752380D01*
X86040476Y-45704761D01*
X86088095Y-45657142D01*
X84897619Y-44752380D02*
X84802380Y-44752380D01*
X84707142Y-44800000D01*
X84659523Y-44847619D01*
X84611904Y-44942857D01*
X84564285Y-45133333D01*
X84564285Y-45371428D01*
X84611904Y-45561904D01*
X84659523Y-45657142D01*
X84707142Y-45704761D01*
X84802380Y-45752380D01*
X84897619Y-45752380D01*
X84992857Y-45704761D01*
X85040476Y-45657142D01*
X85088095Y-45561904D01*
X85135714Y-45371428D01*
X85135714Y-45133333D01*
X85088095Y-44942857D01*
X85040476Y-44847619D01*
X84992857Y-44800000D01*
X84897619Y-44752380D01*
X84135714Y-45752380D02*
X84135714Y-45085714D01*
X84135714Y-45180952D02*
X84088095Y-45133333D01*
X83992857Y-45085714D01*
X83850000Y-45085714D01*
X83754761Y-45133333D01*
X83707142Y-45228571D01*
X83707142Y-45752380D01*
X83707142Y-45228571D02*
X83659523Y-45133333D01*
X83564285Y-45085714D01*
X83421428Y-45085714D01*
X83326190Y-45133333D01*
X83278571Y-45228571D01*
X83278571Y-45752380D01*
X82850000Y-45466666D02*
X82373809Y-45466666D01*
X82945238Y-45752380D02*
X82611904Y-44752380D01*
X82278571Y-45752380D01*
X81183333Y-45752380D02*
X81183333Y-44752380D01*
X80850000Y-45466666D01*
X80516666Y-44752380D01*
X80516666Y-45752380D01*
X80088095Y-45466666D02*
X79611904Y-45466666D01*
X80183333Y-45752380D02*
X79850000Y-44752380D01*
X79516666Y-45752380D01*
X79278571Y-44752380D02*
X78611904Y-45752380D01*
X78611904Y-44752380D02*
X79278571Y-45752380D01*
X64264285Y-44752380D02*
X64454761Y-44752380D01*
X64550000Y-44800000D01*
X64597619Y-44847619D01*
X64692857Y-44990476D01*
X64740476Y-45180952D01*
X64740476Y-45561904D01*
X64692857Y-45657142D01*
X64645238Y-45704761D01*
X64550000Y-45752380D01*
X64359523Y-45752380D01*
X64264285Y-45704761D01*
X64216666Y-45657142D01*
X64169047Y-45561904D01*
X64169047Y-45323809D01*
X64216666Y-45228571D01*
X64264285Y-45180952D01*
X64359523Y-45133333D01*
X64550000Y-45133333D01*
X64645238Y-45180952D01*
X64692857Y-45228571D01*
X64740476Y-45323809D01*
X63550000Y-44752380D02*
X63454761Y-44752380D01*
X63359523Y-44800000D01*
X63311904Y-44847619D01*
X63264285Y-44942857D01*
X63216666Y-45133333D01*
X63216666Y-45371428D01*
X63264285Y-45561904D01*
X63311904Y-45657142D01*
X63359523Y-45704761D01*
X63454761Y-45752380D01*
X63550000Y-45752380D01*
X63645238Y-45704761D01*
X63692857Y-45657142D01*
X63740476Y-45561904D01*
X63788095Y-45371428D01*
X63788095Y-45133333D01*
X63740476Y-44942857D01*
X63692857Y-44847619D01*
X63645238Y-44800000D01*
X63550000Y-44752380D01*
X62597619Y-44752380D02*
X62502380Y-44752380D01*
X62407142Y-44800000D01*
X62359523Y-44847619D01*
X62311904Y-44942857D01*
X62264285Y-45133333D01*
X62264285Y-45371428D01*
X62311904Y-45561904D01*
X62359523Y-45657142D01*
X62407142Y-45704761D01*
X62502380Y-45752380D01*
X62597619Y-45752380D01*
X62692857Y-45704761D01*
X62740476Y-45657142D01*
X62788095Y-45561904D01*
X62835714Y-45371428D01*
X62835714Y-45133333D01*
X62788095Y-44942857D01*
X62740476Y-44847619D01*
X62692857Y-44800000D01*
X62597619Y-44752380D01*
X61835714Y-45752380D02*
X61835714Y-45085714D01*
X61835714Y-45180952D02*
X61788095Y-45133333D01*
X61692857Y-45085714D01*
X61550000Y-45085714D01*
X61454761Y-45133333D01*
X61407142Y-45228571D01*
X61407142Y-45752380D01*
X61407142Y-45228571D02*
X61359523Y-45133333D01*
X61264285Y-45085714D01*
X61121428Y-45085714D01*
X61026190Y-45133333D01*
X60978571Y-45228571D01*
X60978571Y-45752380D01*
X60550000Y-45466666D02*
X60073809Y-45466666D01*
X60645238Y-45752380D02*
X60311904Y-44752380D01*
X59978571Y-45752380D01*
X58883333Y-45752380D02*
X58883333Y-44752380D01*
X58550000Y-45466666D01*
X58216666Y-44752380D01*
X58216666Y-45752380D01*
X57788095Y-45466666D02*
X57311904Y-45466666D01*
X57883333Y-45752380D02*
X57550000Y-44752380D01*
X57216666Y-45752380D01*
X56978571Y-44752380D02*
X56311904Y-45752380D01*
X56311904Y-44752380D02*
X56978571Y-45752380D01*
X29883214Y-33800000D02*
X29978452Y-33752380D01*
X30121309Y-33752380D01*
X30264166Y-33800000D01*
X30359404Y-33895238D01*
X30407023Y-33990476D01*
X30454642Y-34180952D01*
X30454642Y-34323809D01*
X30407023Y-34514285D01*
X30359404Y-34609523D01*
X30264166Y-34704761D01*
X30121309Y-34752380D01*
X30026071Y-34752380D01*
X29883214Y-34704761D01*
X29835595Y-34657142D01*
X29835595Y-34323809D01*
X30026071Y-34323809D01*
X29407023Y-34752380D02*
X29407023Y-33752380D01*
X28835595Y-34752380D01*
X28835595Y-33752380D01*
X28359404Y-34752380D02*
X28359404Y-33752380D01*
X28121309Y-33752380D01*
X27978452Y-33800000D01*
X27883214Y-33895238D01*
X27835595Y-33990476D01*
X27787976Y-34180952D01*
X27787976Y-34323809D01*
X27835595Y-34514285D01*
X27883214Y-34609523D01*
X27978452Y-34704761D01*
X28121309Y-34752380D01*
X28359404Y-34752380D01*
X30359404Y-27927380D02*
X30026071Y-28927380D01*
X29692738Y-27927380D01*
X28787976Y-28832142D02*
X28835595Y-28879761D01*
X28978452Y-28927380D01*
X29073690Y-28927380D01*
X29216547Y-28879761D01*
X29311785Y-28784523D01*
X29359404Y-28689285D01*
X29407023Y-28498809D01*
X29407023Y-28355952D01*
X29359404Y-28165476D01*
X29311785Y-28070238D01*
X29216547Y-27975000D01*
X29073690Y-27927380D01*
X28978452Y-27927380D01*
X28835595Y-27975000D01*
X28787976Y-28022619D01*
X27787976Y-28832142D02*
X27835595Y-28879761D01*
X27978452Y-28927380D01*
X28073690Y-28927380D01*
X28216547Y-28879761D01*
X28311785Y-28784523D01*
X28359404Y-28689285D01*
X28407023Y-28498809D01*
X28407023Y-28355952D01*
X28359404Y-28165476D01*
X28311785Y-28070238D01*
X28216547Y-27975000D01*
X28073690Y-27927380D01*
X27978452Y-27927380D01*
X27835595Y-27975000D01*
X27787976Y-28022619D01*
X30597500Y-29910714D02*
X31359404Y-30196428D01*
X30597500Y-30482142D01*
X29597500Y-30577380D02*
X30168928Y-30577380D01*
X29883214Y-30577380D02*
X29883214Y-29577380D01*
X29978452Y-29720238D01*
X30073690Y-29815476D01*
X30168928Y-29863095D01*
X29216547Y-29672619D02*
X29168928Y-29625000D01*
X29073690Y-29577380D01*
X28835595Y-29577380D01*
X28740357Y-29625000D01*
X28692738Y-29672619D01*
X28645119Y-29767857D01*
X28645119Y-29863095D01*
X28692738Y-30005952D01*
X29264166Y-30577380D01*
X28645119Y-30577380D01*
X28359404Y-29577380D02*
X28026071Y-30577380D01*
X27692738Y-29577380D01*
X82211904Y-39021428D02*
X81450000Y-39021428D01*
X80450000Y-39402380D02*
X81021428Y-39402380D01*
X80735714Y-39402380D02*
X80735714Y-38402380D01*
X80830952Y-38545238D01*
X80926190Y-38640476D01*
X81021428Y-38688095D01*
X80069047Y-38497619D02*
X80021428Y-38450000D01*
X79926190Y-38402380D01*
X79688095Y-38402380D01*
X79592857Y-38450000D01*
X79545238Y-38497619D01*
X79497619Y-38592857D01*
X79497619Y-38688095D01*
X79545238Y-38830952D01*
X80116666Y-39402380D01*
X79497619Y-39402380D01*
X79211904Y-38402380D02*
X78878571Y-39402380D01*
X78545238Y-38402380D01*
X86061904Y-38450000D02*
X86157142Y-38402380D01*
X86300000Y-38402380D01*
X86442857Y-38450000D01*
X86538095Y-38545238D01*
X86585714Y-38640476D01*
X86633333Y-38830952D01*
X86633333Y-38973809D01*
X86585714Y-39164285D01*
X86538095Y-39259523D01*
X86442857Y-39354761D01*
X86300000Y-39402380D01*
X86204761Y-39402380D01*
X86061904Y-39354761D01*
X86014285Y-39307142D01*
X86014285Y-38973809D01*
X86204761Y-38973809D01*
X85585714Y-39402380D02*
X85585714Y-38402380D01*
X85014285Y-39402380D01*
X85014285Y-38402380D01*
X84538095Y-39402380D02*
X84538095Y-38402380D01*
X84300000Y-38402380D01*
X84157142Y-38450000D01*
X84061904Y-38545238D01*
X84014285Y-38640476D01*
X83966666Y-38830952D01*
X83966666Y-38973809D01*
X84014285Y-39164285D01*
X84061904Y-39259523D01*
X84157142Y-39354761D01*
X84300000Y-39402380D01*
X84538095Y-39402380D01*
X63861904Y-38450000D02*
X63957142Y-38402380D01*
X64100000Y-38402380D01*
X64242857Y-38450000D01*
X64338095Y-38545238D01*
X64385714Y-38640476D01*
X64433333Y-38830952D01*
X64433333Y-38973809D01*
X64385714Y-39164285D01*
X64338095Y-39259523D01*
X64242857Y-39354761D01*
X64100000Y-39402380D01*
X64004761Y-39402380D01*
X63861904Y-39354761D01*
X63814285Y-39307142D01*
X63814285Y-38973809D01*
X64004761Y-38973809D01*
X63385714Y-39402380D02*
X63385714Y-38402380D01*
X62814285Y-39402380D01*
X62814285Y-38402380D01*
X62338095Y-39402380D02*
X62338095Y-38402380D01*
X62100000Y-38402380D01*
X61957142Y-38450000D01*
X61861904Y-38545238D01*
X61814285Y-38640476D01*
X61766666Y-38830952D01*
X61766666Y-38973809D01*
X61814285Y-39164285D01*
X61861904Y-39259523D01*
X61957142Y-39354761D01*
X62100000Y-39402380D01*
X62338095Y-39402380D01*
X60011904Y-39021428D02*
X59250000Y-39021428D01*
X59630952Y-39402380D02*
X59630952Y-38640476D01*
X58250000Y-39402380D02*
X58821428Y-39402380D01*
X58535714Y-39402380D02*
X58535714Y-38402380D01*
X58630952Y-38545238D01*
X58726190Y-38640476D01*
X58821428Y-38688095D01*
X57869047Y-38497619D02*
X57821428Y-38450000D01*
X57726190Y-38402380D01*
X57488095Y-38402380D01*
X57392857Y-38450000D01*
X57345238Y-38497619D01*
X57297619Y-38592857D01*
X57297619Y-38688095D01*
X57345238Y-38830952D01*
X57916666Y-39402380D01*
X57297619Y-39402380D01*
X57011904Y-38402380D02*
X56678571Y-39402380D01*
X56345238Y-38402380D01*
X37185714Y-39021428D02*
X36423809Y-39021428D01*
X36804761Y-39402380D02*
X36804761Y-38640476D01*
X35471428Y-38402380D02*
X35947619Y-38402380D01*
X35995238Y-38878571D01*
X35947619Y-38830952D01*
X35852380Y-38783333D01*
X35614285Y-38783333D01*
X35519047Y-38830952D01*
X35471428Y-38878571D01*
X35423809Y-38973809D01*
X35423809Y-39211904D01*
X35471428Y-39307142D01*
X35519047Y-39354761D01*
X35614285Y-39402380D01*
X35852380Y-39402380D01*
X35947619Y-39354761D01*
X35995238Y-39307142D01*
X35138095Y-38402380D02*
X34804761Y-39402380D01*
X34471428Y-38402380D01*
X41661904Y-38450000D02*
X41757142Y-38402380D01*
X41900000Y-38402380D01*
X42042857Y-38450000D01*
X42138095Y-38545238D01*
X42185714Y-38640476D01*
X42233333Y-38830952D01*
X42233333Y-38973809D01*
X42185714Y-39164285D01*
X42138095Y-39259523D01*
X42042857Y-39354761D01*
X41900000Y-39402380D01*
X41804761Y-39402380D01*
X41661904Y-39354761D01*
X41614285Y-39307142D01*
X41614285Y-38973809D01*
X41804761Y-38973809D01*
X41185714Y-39402380D02*
X41185714Y-38402380D01*
X40614285Y-39402380D01*
X40614285Y-38402380D01*
X40138095Y-39402380D02*
X40138095Y-38402380D01*
X39900000Y-38402380D01*
X39757142Y-38450000D01*
X39661904Y-38545238D01*
X39614285Y-38640476D01*
X39566666Y-38830952D01*
X39566666Y-38973809D01*
X39614285Y-39164285D01*
X39661904Y-39259523D01*
X39757142Y-39354761D01*
X39900000Y-39402380D01*
X40138095Y-39402380D01*
X29273809Y-18052380D02*
X28940476Y-19052380D01*
X28607142Y-18052380D01*
X27750000Y-19052380D02*
X28321428Y-19052380D01*
X28035714Y-19052380D02*
X28035714Y-18052380D01*
X28130952Y-18195238D01*
X28226190Y-18290476D01*
X28321428Y-18338095D01*
X27321428Y-18957142D02*
X27273809Y-19004761D01*
X27321428Y-19052380D01*
X27369047Y-19004761D01*
X27321428Y-18957142D01*
X27321428Y-19052380D01*
X26654761Y-18052380D02*
X26559523Y-18052380D01*
X26464285Y-18100000D01*
X26416666Y-18147619D01*
X26369047Y-18242857D01*
X26321428Y-18433333D01*
X26321428Y-18671428D01*
X26369047Y-18861904D01*
X26416666Y-18957142D01*
X26464285Y-19004761D01*
X26559523Y-19052380D01*
X26654761Y-19052380D01*
X26750000Y-19004761D01*
X26797619Y-18957142D01*
X26845238Y-18861904D01*
X26892857Y-18671428D01*
X26892857Y-18433333D01*
X26845238Y-18242857D01*
X26797619Y-18147619D01*
X26750000Y-18100000D01*
X26654761Y-18052380D01*
X68121413Y-33435714D02*
X68014270Y-34102380D01*
X67764270Y-33626190D01*
X67633318Y-34102380D01*
X67359508Y-33435714D01*
X67073794Y-33435714D02*
X66966651Y-34102380D01*
X66716651Y-33626190D01*
X66585699Y-34102380D01*
X66311889Y-33435714D01*
X66026175Y-33435714D02*
X65919032Y-34102380D01*
X65669032Y-33626190D01*
X65538080Y-34102380D01*
X65264270Y-33435714D01*
X64954747Y-34007142D02*
X64913080Y-34054761D01*
X64966651Y-34102380D01*
X65008318Y-34054761D01*
X64954747Y-34007142D01*
X64966651Y-34102380D01*
X64407127Y-33435714D02*
X64532127Y-34435714D01*
X64413080Y-33483333D02*
X64311889Y-33435714D01*
X64121413Y-33435714D01*
X64032127Y-33483333D01*
X63990461Y-33530952D01*
X63954747Y-33626190D01*
X63990461Y-33911904D01*
X64049985Y-34007142D01*
X64103556Y-34054761D01*
X64204747Y-34102380D01*
X64395223Y-34102380D01*
X64484508Y-34054761D01*
X63585699Y-34102380D02*
X63460699Y-33102380D01*
X63157127Y-34102380D02*
X63091651Y-33578571D01*
X63127366Y-33483333D01*
X63216651Y-33435714D01*
X63359508Y-33435714D01*
X63460699Y-33483333D01*
X63514270Y-33530952D01*
X62680937Y-34102380D02*
X62597604Y-33435714D01*
X62555937Y-33102380D02*
X62609508Y-33150000D01*
X62567842Y-33197619D01*
X62514270Y-33150000D01*
X62555937Y-33102380D01*
X62567842Y-33197619D01*
X62061889Y-34102380D02*
X62151175Y-34054761D01*
X62186889Y-33959523D01*
X62079747Y-33102380D01*
X61722604Y-34054761D02*
X61633318Y-34102380D01*
X61442842Y-34102380D01*
X61341651Y-34054761D01*
X61282127Y-33959523D01*
X61276175Y-33911904D01*
X61311889Y-33816666D01*
X61401175Y-33769047D01*
X61544032Y-33769047D01*
X61633318Y-33721428D01*
X61669032Y-33626190D01*
X61663080Y-33578571D01*
X61603556Y-33483333D01*
X61502366Y-33435714D01*
X61359508Y-33435714D01*
X61270223Y-33483333D01*
X60442842Y-34102380D02*
X60377366Y-33578571D01*
X60413080Y-33483333D01*
X60502366Y-33435714D01*
X60692842Y-33435714D01*
X60794032Y-33483333D01*
X60436889Y-34054761D02*
X60538080Y-34102380D01*
X60776175Y-34102380D01*
X60865461Y-34054761D01*
X60901175Y-33959523D01*
X60889270Y-33864285D01*
X60829747Y-33769047D01*
X60728556Y-33721428D01*
X60490461Y-33721428D01*
X60389270Y-33673809D01*
X59823794Y-34102380D02*
X59913080Y-34054761D01*
X59948794Y-33959523D01*
X59841651Y-33102380D01*
X59430937Y-34007142D02*
X59389270Y-34054761D01*
X59442842Y-34102380D01*
X59484508Y-34054761D01*
X59430937Y-34007142D01*
X59442842Y-34102380D01*
X58532127Y-34054761D02*
X58633318Y-34102380D01*
X58823794Y-34102380D01*
X58913080Y-34054761D01*
X58954747Y-34007142D01*
X58990461Y-33911904D01*
X58954747Y-33626190D01*
X58895223Y-33530952D01*
X58841651Y-33483333D01*
X58740461Y-33435714D01*
X58549985Y-33435714D01*
X58460699Y-33483333D01*
X57966651Y-34102380D02*
X58055937Y-34054761D01*
X58097604Y-34007142D01*
X58133318Y-33911904D01*
X58097604Y-33626190D01*
X58038080Y-33530952D01*
X57984508Y-33483333D01*
X57883318Y-33435714D01*
X57740461Y-33435714D01*
X57651175Y-33483333D01*
X57609508Y-33530952D01*
X57573794Y-33626190D01*
X57609508Y-33911904D01*
X57669032Y-34007142D01*
X57722604Y-34054761D01*
X57823794Y-34102380D01*
X57966651Y-34102380D01*
X57192842Y-34007142D02*
X57151175Y-34054761D01*
X57204747Y-34102380D01*
X57246413Y-34054761D01*
X57192842Y-34007142D01*
X57204747Y-34102380D01*
X56216651Y-33435714D02*
X56299985Y-34102380D01*
X56645223Y-33435714D02*
X56710699Y-33959523D01*
X56674985Y-34054761D01*
X56585699Y-34102380D01*
X56442842Y-34102380D01*
X56341651Y-34054761D01*
X56288080Y-34007142D01*
X55823794Y-34102380D02*
X55698794Y-33102380D01*
X55680937Y-33721428D02*
X55442842Y-34102380D01*
X55359508Y-33435714D02*
X55788080Y-33816666D01*
M02*
